%TF.GenerationSoftware,KiCad,Pcbnew,9.0.7-9.0.7~ubuntu24.04.1*%
%TF.CreationDate,2026-03-17T14:46:35+00:00*%
%TF.ProjectId,layout,6c61796f-7574-42e6-9b69-6361645f7063,rev?*%
%TF.SameCoordinates,Original*%
%TF.FileFunction,Soldermask,Top*%
%TF.FilePolarity,Negative*%
%FSLAX46Y46*%
G04 Gerber Fmt 4.6, Leading zero omitted, Abs format (unit mm)*
G04 Created by KiCad (PCBNEW 9.0.7-9.0.7~ubuntu24.04.1) date 2026-03-17 14:46:35*
%MOMM*%
%LPD*%
G01*
G04 APERTURE LIST*
G04 Aperture macros list*
%AMRoundRect*
0 Rectangle with rounded corners*
0 $1 Rounding radius*
0 $2 $3 $4 $5 $6 $7 $8 $9 X,Y pos of 4 corners*
0 Add a 4 corners polygon primitive as box body*
4,1,4,$2,$3,$4,$5,$6,$7,$8,$9,$2,$3,0*
0 Add four circle primitives for the rounded corners*
1,1,$1+$1,$2,$3*
1,1,$1+$1,$4,$5*
1,1,$1+$1,$6,$7*
1,1,$1+$1,$8,$9*
0 Add four rect primitives between the rounded corners*
20,1,$1+$1,$2,$3,$4,$5,0*
20,1,$1+$1,$4,$5,$6,$7,0*
20,1,$1+$1,$6,$7,$8,$9,0*
20,1,$1+$1,$8,$9,$2,$3,0*%
G04 Aperture macros list end*
%ADD10RoundRect,0.250000X-0.250000X-0.475000X0.250000X-0.475000X0.250000X0.475000X-0.250000X0.475000X0*%
%ADD11RoundRect,0.225000X-0.225000X-0.250000X0.225000X-0.250000X0.225000X0.250000X-0.225000X0.250000X0*%
%ADD12C,3.600000*%
%ADD13C,5.600000*%
%ADD14RoundRect,0.200000X-0.200000X-0.275000X0.200000X-0.275000X0.200000X0.275000X-0.200000X0.275000X0*%
%ADD15RoundRect,0.250000X-0.325000X-1.100000X0.325000X-1.100000X0.325000X1.100000X-0.325000X1.100000X0*%
%ADD16R,1.700000X1.700000*%
%ADD17O,1.700000X1.700000*%
%ADD18RoundRect,0.150000X-0.512500X-0.150000X0.512500X-0.150000X0.512500X0.150000X-0.512500X0.150000X0*%
%ADD19R,1.800000X1.800000*%
%ADD20C,1.800000*%
%ADD21RoundRect,0.750000X-1.250000X-0.750000X1.250000X-0.750000X1.250000X0.750000X-1.250000X0.750000X0*%
%ADD22RoundRect,0.375000X-0.625000X-0.375000X0.625000X-0.375000X0.625000X0.375000X-0.625000X0.375000X0*%
%ADD23RoundRect,0.500000X-0.500000X-1.400000X0.500000X-1.400000X0.500000X1.400000X-0.500000X1.400000X0*%
%ADD24RoundRect,0.150000X-0.825000X-0.150000X0.825000X-0.150000X0.825000X0.150000X-0.825000X0.150000X0*%
%ADD25RoundRect,0.062500X-0.350000X-0.062500X0.350000X-0.062500X0.350000X0.062500X-0.350000X0.062500X0*%
%ADD26RoundRect,0.062500X-0.062500X-0.350000X0.062500X-0.350000X0.062500X0.350000X-0.062500X0.350000X0*%
%ADD27R,2.400000X2.400000*%
%ADD28RoundRect,0.250000X-0.325000X-0.650000X0.325000X-0.650000X0.325000X0.650000X-0.325000X0.650000X0*%
%ADD29R,1.350000X1.350000*%
%ADD30O,1.350000X1.350000*%
%ADD31RoundRect,0.140000X-0.140000X-0.170000X0.140000X-0.170000X0.140000X0.170000X-0.140000X0.170000X0*%
%ADD32RoundRect,0.150000X-0.587500X-0.150000X0.587500X-0.150000X0.587500X0.150000X-0.587500X0.150000X0*%
%ADD33C,1.200000*%
%ADD34O,1.200000X2.200000*%
%ADD35O,2.200000X1.200000*%
%ADD36RoundRect,0.135000X-0.135000X-0.185000X0.135000X-0.185000X0.135000X0.185000X-0.135000X0.185000X0*%
%ADD37RoundRect,0.218750X-0.218750X-0.256250X0.218750X-0.256250X0.218750X0.256250X-0.218750X0.256250X0*%
%ADD38RoundRect,0.250000X-0.262500X-0.450000X0.262500X-0.450000X0.262500X0.450000X-0.262500X0.450000X0*%
%ADD39C,0.700000*%
%ADD40O,2.400000X0.900000*%
%ADD41O,1.700000X0.900000*%
G04 APERTURE END LIST*
D10*
%TO.C,C46*%
X148550000Y-26500000D03*
X150450000Y-26500000D03*
%TD*%
%TO.C,C4*%
X169550000Y-26500000D03*
X171450000Y-26500000D03*
%TD*%
D11*
%TO.C,C47*%
X178725000Y-26500000D03*
X180275000Y-26500000D03*
%TD*%
%TO.C,C6*%
X39225000Y-16500000D03*
X40775000Y-16500000D03*
%TD*%
D12*
%TO.C,H3*%
X50000000Y-106000000D03*
D13*
X50000000Y-106000000D03*
%TD*%
D10*
%TO.C,C42*%
X144050000Y-26500000D03*
X145950000Y-26500000D03*
%TD*%
%TO.C,C13*%
X148550000Y-23000000D03*
X150450000Y-23000000D03*
%TD*%
D14*
%TO.C,R9*%
X197175000Y-88000000D03*
X198825000Y-88000000D03*
%TD*%
D11*
%TO.C,C26*%
X70225000Y-15000000D03*
X71775000Y-15000000D03*
%TD*%
D10*
%TO.C,C27*%
X119550000Y-62500000D03*
X121450000Y-62500000D03*
%TD*%
D12*
%TO.C,H4*%
X206000000Y-106000000D03*
D13*
X206000000Y-106000000D03*
%TD*%
D15*
%TO.C,C19*%
X152525000Y-62000000D03*
X155475000Y-62000000D03*
%TD*%
D14*
%TO.C,R8*%
X35175000Y-13000000D03*
X36825000Y-13000000D03*
%TD*%
D12*
%TO.C,H2*%
X206000000Y-14000000D03*
D13*
X206000000Y-14000000D03*
%TD*%
D14*
%TO.C,R1*%
X82875000Y-42500000D03*
X84525000Y-42500000D03*
%TD*%
D16*
%TO.C,J15*%
X39000000Y-64000000D03*
D17*
X39000000Y-66540000D03*
X39000000Y-69080000D03*
X39000000Y-71620000D03*
X39000000Y-74160000D03*
X39000000Y-76700000D03*
X39000000Y-79240000D03*
X39000000Y-81780000D03*
%TD*%
D11*
%TO.C,C35*%
X43225000Y-28500000D03*
X44775000Y-28500000D03*
%TD*%
D18*
%TO.C,U3*%
X36862500Y-29050000D03*
X36862500Y-30000000D03*
X36862500Y-30950000D03*
X39137500Y-30950000D03*
X39137500Y-29050000D03*
%TD*%
D15*
%TO.C,C20*%
X157025000Y-62000000D03*
X159975000Y-62000000D03*
%TD*%
D14*
%TO.C,R23*%
X39175000Y-20000000D03*
X40825000Y-20000000D03*
%TD*%
D11*
%TO.C,C15*%
X115225000Y-59000000D03*
X116775000Y-59000000D03*
%TD*%
D10*
%TO.C,C36*%
X39050000Y-13000000D03*
X40950000Y-13000000D03*
%TD*%
D16*
%TO.C,J18*%
X82000000Y-88000000D03*
D17*
X82000000Y-90540000D03*
X82000000Y-93080000D03*
X82000000Y-95620000D03*
X82000000Y-98160000D03*
X82000000Y-100700000D03*
X82000000Y-103240000D03*
X82000000Y-105780000D03*
%TD*%
D14*
%TO.C,R3*%
X183175000Y-26500000D03*
X184825000Y-26500000D03*
%TD*%
D10*
%TO.C,C9*%
X157550000Y-85500000D03*
X159450000Y-85500000D03*
%TD*%
D19*
%TO.C,RV1*%
X184000000Y-58000000D03*
D20*
X184000000Y-60500000D03*
X184000000Y-63000000D03*
D21*
X191000000Y-56100000D03*
X191000000Y-64900000D03*
%TD*%
D10*
%TO.C,C11*%
X144050000Y-23000000D03*
X145950000Y-23000000D03*
%TD*%
D16*
%TO.C,J10*%
X15000000Y-88000000D03*
D17*
X15000000Y-90540000D03*
X15000000Y-93080000D03*
X15000000Y-95620000D03*
X15000000Y-98160000D03*
X15000000Y-100700000D03*
X15000000Y-103240000D03*
X15000000Y-105780000D03*
%TD*%
D14*
%TO.C,R18*%
X128675000Y-91000000D03*
X130325000Y-91000000D03*
%TD*%
D10*
%TO.C,C40*%
X74550000Y-15000000D03*
X76450000Y-15000000D03*
%TD*%
D11*
%TO.C,C29*%
X183225000Y-23000000D03*
X184775000Y-23000000D03*
%TD*%
%TO.C,C18*%
X128725000Y-59000000D03*
X130275000Y-59000000D03*
%TD*%
%TO.C,C37*%
X139725000Y-26500000D03*
X141275000Y-26500000D03*
%TD*%
D10*
%TO.C,C3*%
X135050000Y-26500000D03*
X136950000Y-26500000D03*
%TD*%
D15*
%TO.C,C23*%
X178025000Y-23000000D03*
X180975000Y-23000000D03*
%TD*%
D14*
%TO.C,R6*%
X124175000Y-94500000D03*
X125825000Y-94500000D03*
%TD*%
D16*
%TO.C,J3*%
X205000000Y-30000000D03*
D17*
X205000000Y-27460000D03*
X207540000Y-30000000D03*
X207540000Y-27460000D03*
X210080000Y-30000000D03*
X210080000Y-27460000D03*
X212620000Y-30000000D03*
X212620000Y-27460000D03*
X215160000Y-30000000D03*
X215160000Y-27460000D03*
%TD*%
D22*
%TO.C,U6*%
X61850000Y-15700000D03*
X61850000Y-18000000D03*
D23*
X68150000Y-18000000D03*
D22*
X61850000Y-20300000D03*
%TD*%
D24*
%TO.C,U10*%
X107525000Y-92095000D03*
X107525000Y-93365000D03*
X107525000Y-94635000D03*
X107525000Y-95905000D03*
X112475000Y-95905000D03*
X112475000Y-94635000D03*
X112475000Y-93365000D03*
X112475000Y-92095000D03*
%TD*%
D25*
%TO.C,U1*%
X128062500Y-24800000D03*
X128062500Y-25200000D03*
X128062500Y-25600000D03*
X128062500Y-26000000D03*
X128062500Y-26400000D03*
X128062500Y-26800000D03*
X128062500Y-27200000D03*
D26*
X128800000Y-27937500D03*
X129200000Y-27937500D03*
X129600000Y-27937500D03*
X130000000Y-27937500D03*
X130400000Y-27937500D03*
X130800000Y-27937500D03*
X131200000Y-27937500D03*
D25*
X131937500Y-27200000D03*
X131937500Y-26800000D03*
X131937500Y-26400000D03*
X131937500Y-26000000D03*
X131937500Y-25600000D03*
X131937500Y-25200000D03*
X131937500Y-24800000D03*
D26*
X131200000Y-24062500D03*
X130800000Y-24062500D03*
X130400000Y-24062500D03*
X130000000Y-24062500D03*
X129600000Y-24062500D03*
X129200000Y-24062500D03*
X128800000Y-24062500D03*
D27*
X130000000Y-26000000D03*
%TD*%
D24*
%TO.C,U9*%
X107525000Y-78095000D03*
X107525000Y-79365000D03*
X107525000Y-80635000D03*
X107525000Y-81905000D03*
X112475000Y-81905000D03*
X112475000Y-80635000D03*
X112475000Y-79365000D03*
X112475000Y-78095000D03*
%TD*%
D16*
%TO.C,J17*%
X39000000Y-88000000D03*
D17*
X39000000Y-90540000D03*
X39000000Y-93080000D03*
X39000000Y-95620000D03*
X39000000Y-98160000D03*
X39000000Y-100700000D03*
X39000000Y-103240000D03*
X39000000Y-105780000D03*
%TD*%
D11*
%TO.C,C21*%
X162225000Y-62000000D03*
X163775000Y-62000000D03*
%TD*%
%TO.C,C22*%
X166725000Y-62000000D03*
X168275000Y-62000000D03*
%TD*%
D14*
%TO.C,R2*%
X87375000Y-42500000D03*
X89025000Y-42500000D03*
%TD*%
D11*
%TO.C,C53*%
X47725000Y-28500000D03*
X49275000Y-28500000D03*
%TD*%
D25*
%TO.C,U2*%
X158062500Y-24800000D03*
X158062500Y-25200000D03*
X158062500Y-25600000D03*
X158062500Y-26000000D03*
X158062500Y-26400000D03*
X158062500Y-26800000D03*
X158062500Y-27200000D03*
D26*
X158800000Y-27937500D03*
X159200000Y-27937500D03*
X159600000Y-27937500D03*
X160000000Y-27937500D03*
X160400000Y-27937500D03*
X160800000Y-27937500D03*
X161200000Y-27937500D03*
D25*
X161937500Y-27200000D03*
X161937500Y-26800000D03*
X161937500Y-26400000D03*
X161937500Y-26000000D03*
X161937500Y-25600000D03*
X161937500Y-25200000D03*
X161937500Y-24800000D03*
D26*
X161200000Y-24062500D03*
X160800000Y-24062500D03*
X160400000Y-24062500D03*
X160000000Y-24062500D03*
X159600000Y-24062500D03*
X159200000Y-24062500D03*
X158800000Y-24062500D03*
D27*
X160000000Y-26000000D03*
%TD*%
D16*
%TO.C,J1*%
X52300000Y-44000000D03*
D17*
X52300000Y-46540000D03*
X52300000Y-49080000D03*
X52300000Y-51620000D03*
X52300000Y-54160000D03*
X52300000Y-56700000D03*
X52300000Y-59240000D03*
X52300000Y-61780000D03*
X52300000Y-64320000D03*
X52300000Y-66860000D03*
X52300000Y-69400000D03*
X52300000Y-71940000D03*
X52300000Y-74480000D03*
X52300000Y-77020000D03*
X52300000Y-79560000D03*
X52300000Y-82100000D03*
X52300000Y-84640000D03*
X52300000Y-87180000D03*
X52300000Y-89720000D03*
X52300000Y-92260000D03*
%TD*%
D11*
%TO.C,C31*%
X115225000Y-78500000D03*
X116775000Y-78500000D03*
%TD*%
D10*
%TO.C,C1*%
X135050000Y-23000000D03*
X136950000Y-23000000D03*
%TD*%
D11*
%TO.C,C49*%
X119725000Y-78500000D03*
X121275000Y-78500000D03*
%TD*%
D10*
%TO.C,C48*%
X115050000Y-66000000D03*
X116950000Y-66000000D03*
%TD*%
%TO.C,C25*%
X115050000Y-62500000D03*
X116950000Y-62500000D03*
%TD*%
%TO.C,C34*%
X153050000Y-82000000D03*
X154950000Y-82000000D03*
%TD*%
%TO.C,C52*%
X157550000Y-82000000D03*
X159450000Y-82000000D03*
%TD*%
D11*
%TO.C,C43*%
X174225000Y-26500000D03*
X175775000Y-26500000D03*
%TD*%
D28*
%TO.C,C10*%
X139025000Y-23000000D03*
X141975000Y-23000000D03*
%TD*%
D19*
%TO.C,RV2*%
X184000000Y-74000000D03*
D20*
X184000000Y-76500000D03*
X184000000Y-79000000D03*
D21*
X191000000Y-72100000D03*
X191000000Y-80900000D03*
%TD*%
D16*
%TO.C,J16*%
X82000000Y-64000000D03*
D17*
X82000000Y-66540000D03*
X82000000Y-69080000D03*
X82000000Y-71620000D03*
X82000000Y-74160000D03*
X82000000Y-76700000D03*
X82000000Y-79240000D03*
X82000000Y-81780000D03*
%TD*%
D14*
%TO.C,R10*%
X197175000Y-96000000D03*
X198825000Y-96000000D03*
%TD*%
D29*
%TO.C,J4*%
X18000000Y-32000000D03*
D30*
X18000000Y-34000000D03*
%TD*%
D16*
%TO.C,J9*%
X58000000Y-64000000D03*
D17*
X58000000Y-66540000D03*
X58000000Y-69080000D03*
X58000000Y-71620000D03*
X58000000Y-74160000D03*
X58000000Y-76700000D03*
X58000000Y-79240000D03*
X58000000Y-81780000D03*
%TD*%
D10*
%TO.C,C14*%
X169550000Y-23000000D03*
X171450000Y-23000000D03*
%TD*%
D14*
%TO.C,R15*%
X198175000Y-28500000D03*
X199825000Y-28500000D03*
%TD*%
D10*
%TO.C,C50*%
X119550000Y-91000000D03*
X121450000Y-91000000D03*
%TD*%
%TO.C,C30*%
X124050000Y-62500000D03*
X125950000Y-62500000D03*
%TD*%
%TO.C,C28*%
X153050000Y-23000000D03*
X154950000Y-23000000D03*
%TD*%
D31*
%TO.C,C7*%
X43520000Y-32000000D03*
X44480000Y-32000000D03*
%TD*%
D14*
%TO.C,R14*%
X153175000Y-26500000D03*
X154825000Y-26500000D03*
%TD*%
D32*
%TO.C,D1*%
X47062500Y-15050000D03*
X47062500Y-16950000D03*
X48937500Y-16000000D03*
%TD*%
D16*
%TO.C,J2*%
X77700000Y-44000000D03*
D17*
X77700000Y-46540000D03*
X77700000Y-49080000D03*
X77700000Y-51620000D03*
X77700000Y-54160000D03*
X77700000Y-56700000D03*
X77700000Y-59240000D03*
X77700000Y-61780000D03*
X77700000Y-64320000D03*
X77700000Y-66860000D03*
X77700000Y-69400000D03*
X77700000Y-71940000D03*
X77700000Y-74480000D03*
X77700000Y-77020000D03*
X77700000Y-79560000D03*
X77700000Y-82100000D03*
X77700000Y-84640000D03*
X77700000Y-87180000D03*
X77700000Y-89720000D03*
X77700000Y-92260000D03*
%TD*%
D16*
%TO.C,J13*%
X200000000Y-88000000D03*
D17*
X200000000Y-90540000D03*
X200000000Y-93080000D03*
%TD*%
D10*
%TO.C,C2*%
X174050000Y-23000000D03*
X175950000Y-23000000D03*
%TD*%
D14*
%TO.C,R13*%
X166675000Y-65500000D03*
X168325000Y-65500000D03*
%TD*%
D18*
%TO.C,U4*%
X32862500Y-15050000D03*
X32862500Y-16000000D03*
X32862500Y-16950000D03*
X35137500Y-16950000D03*
X35137500Y-15050000D03*
%TD*%
D14*
%TO.C,R21*%
X193675000Y-28500000D03*
X195325000Y-28500000D03*
%TD*%
D10*
%TO.C,C12*%
X165050000Y-23000000D03*
X166950000Y-23000000D03*
%TD*%
D14*
%TO.C,R19*%
X115175000Y-94500000D03*
X116825000Y-94500000D03*
%TD*%
D16*
%TO.C,J11*%
X58000000Y-88000000D03*
D17*
X58000000Y-90540000D03*
X58000000Y-93080000D03*
X58000000Y-95620000D03*
X58000000Y-98160000D03*
X58000000Y-100700000D03*
X58000000Y-103240000D03*
X58000000Y-105780000D03*
%TD*%
D11*
%TO.C,C39*%
X128725000Y-62500000D03*
X130275000Y-62500000D03*
%TD*%
D14*
%TO.C,R11*%
X43675000Y-16500000D03*
X45325000Y-16500000D03*
%TD*%
D33*
%TO.C,J7*%
X195000000Y-60000000D03*
X195000000Y-62500000D03*
X200000000Y-55000000D03*
X205000000Y-60000000D03*
X205000000Y-62500000D03*
D34*
X195000000Y-55000000D03*
D35*
X200000000Y-60000000D03*
D34*
X205000000Y-55000000D03*
%TD*%
D14*
%TO.C,R7*%
X128675000Y-94500000D03*
X130325000Y-94500000D03*
%TD*%
%TO.C,R24*%
X104175000Y-48000000D03*
X105825000Y-48000000D03*
%TD*%
D16*
%TO.C,J6*%
X135000000Y-105000000D03*
D17*
X135000000Y-107540000D03*
%TD*%
D16*
%TO.C,J5*%
X118000000Y-105000000D03*
D17*
X118000000Y-107540000D03*
%TD*%
D15*
%TO.C,C5*%
X74025000Y-18500000D03*
X76975000Y-18500000D03*
%TD*%
D36*
%TO.C,R4*%
X23490000Y-14500000D03*
X24510000Y-14500000D03*
%TD*%
D37*
%TO.C,D2*%
X29212500Y-13000000D03*
X30787500Y-13000000D03*
%TD*%
D16*
%TO.C,J8*%
X15000000Y-64000000D03*
D17*
X15000000Y-66540000D03*
X15000000Y-69080000D03*
X15000000Y-71620000D03*
X15000000Y-74160000D03*
X15000000Y-76700000D03*
X15000000Y-79240000D03*
X15000000Y-81780000D03*
%TD*%
D12*
%TO.C,H1*%
X14000000Y-10000000D03*
D13*
X14000000Y-10000000D03*
%TD*%
D38*
%TO.C,FB1*%
X101087500Y-50000000D03*
X102912500Y-50000000D03*
%TD*%
D14*
%TO.C,R17*%
X124175000Y-91000000D03*
X125825000Y-91000000D03*
%TD*%
%TO.C,R12*%
X162175000Y-65500000D03*
X163825000Y-65500000D03*
%TD*%
D36*
%TO.C,R5*%
X27990000Y-14500000D03*
X29010000Y-14500000D03*
%TD*%
D14*
%TO.C,R22*%
X87175000Y-88000000D03*
X88825000Y-88000000D03*
%TD*%
%TO.C,R20*%
X119675000Y-94500000D03*
X121325000Y-94500000D03*
%TD*%
D11*
%TO.C,C51*%
X157725000Y-65500000D03*
X159275000Y-65500000D03*
%TD*%
D10*
%TO.C,C44*%
X133050000Y-62500000D03*
X134950000Y-62500000D03*
%TD*%
%TO.C,C38*%
X165050000Y-26500000D03*
X166950000Y-26500000D03*
%TD*%
D14*
%TO.C,R16*%
X135175000Y-30000000D03*
X136825000Y-30000000D03*
%TD*%
D11*
%TO.C,C45*%
X70225000Y-18500000D03*
X71775000Y-18500000D03*
%TD*%
D10*
%TO.C,C8*%
X153050000Y-85500000D03*
X154950000Y-85500000D03*
%TD*%
D15*
%TO.C,C16*%
X119025000Y-59000000D03*
X121975000Y-59000000D03*
%TD*%
D11*
%TO.C,C24*%
X133225000Y-59000000D03*
X134775000Y-59000000D03*
%TD*%
D16*
%TO.C,J14*%
X200000000Y-96000000D03*
D17*
X200000000Y-98540000D03*
X200000000Y-101080000D03*
%TD*%
D10*
%TO.C,C32*%
X115050000Y-91000000D03*
X116950000Y-91000000D03*
%TD*%
D33*
%TO.C,J12*%
X195000000Y-78000000D03*
X195000000Y-80500000D03*
X200000000Y-73000000D03*
X205000000Y-78000000D03*
X205000000Y-80500000D03*
D34*
X195000000Y-73000000D03*
D35*
X200000000Y-78000000D03*
D34*
X205000000Y-73000000D03*
%TD*%
D11*
%TO.C,C41*%
X43725000Y-13000000D03*
X45275000Y-13000000D03*
%TD*%
D24*
%TO.C,U7*%
X145525000Y-60555000D03*
X145525000Y-61825000D03*
X145525000Y-63095000D03*
X145525000Y-64365000D03*
X145525000Y-65635000D03*
X145525000Y-66905000D03*
X145525000Y-68175000D03*
X145525000Y-69445000D03*
X150475000Y-69445000D03*
X150475000Y-68175000D03*
X150475000Y-66905000D03*
X150475000Y-65635000D03*
X150475000Y-64365000D03*
X150475000Y-63095000D03*
X150475000Y-61825000D03*
X150475000Y-60555000D03*
%TD*%
D15*
%TO.C,C17*%
X123525000Y-59000000D03*
X126475000Y-59000000D03*
%TD*%
D39*
%TO.C,J19*%
X18000000Y-16000000D03*
X18000000Y-16850000D03*
X18000000Y-17700000D03*
X18000000Y-18550000D03*
X18000000Y-19400000D03*
X18000000Y-20250000D03*
X18000000Y-21100000D03*
X18000000Y-21950000D03*
X16650000Y-21950000D03*
X16650000Y-21100000D03*
X16650000Y-20250000D03*
X16650000Y-19400000D03*
X16650000Y-18550000D03*
X16650000Y-17700000D03*
X16650000Y-16850000D03*
X16650000Y-16000000D03*
D40*
X17020000Y-14650000D03*
D41*
X13640000Y-14650000D03*
D40*
X17020000Y-23300000D03*
D41*
X13640000Y-23300000D03*
%TD*%
D25*
%TO.C,U5*%
X108062500Y-60800000D03*
X108062500Y-61200000D03*
X108062500Y-61600000D03*
X108062500Y-62000000D03*
X108062500Y-62400000D03*
X108062500Y-62800000D03*
X108062500Y-63200000D03*
D26*
X108800000Y-63937500D03*
X109200000Y-63937500D03*
X109600000Y-63937500D03*
X110000000Y-63937500D03*
X110400000Y-63937500D03*
X110800000Y-63937500D03*
X111200000Y-63937500D03*
D25*
X111937500Y-63200000D03*
X111937500Y-62800000D03*
X111937500Y-62400000D03*
X111937500Y-62000000D03*
X111937500Y-61600000D03*
X111937500Y-61200000D03*
X111937500Y-60800000D03*
D26*
X111200000Y-60062500D03*
X110800000Y-60062500D03*
X110400000Y-60062500D03*
X110000000Y-60062500D03*
X109600000Y-60062500D03*
X109200000Y-60062500D03*
X108800000Y-60062500D03*
D27*
X110000000Y-62000000D03*
%TD*%
D24*
%TO.C,U8*%
X145525000Y-80555000D03*
X145525000Y-81825000D03*
X145525000Y-83095000D03*
X145525000Y-84365000D03*
X145525000Y-85635000D03*
X145525000Y-86905000D03*
X145525000Y-88175000D03*
X145525000Y-89445000D03*
X150475000Y-89445000D03*
X150475000Y-88175000D03*
X150475000Y-86905000D03*
X150475000Y-85635000D03*
X150475000Y-84365000D03*
X150475000Y-83095000D03*
X150475000Y-81825000D03*
X150475000Y-80555000D03*
%TD*%
D11*
%TO.C,C33*%
X153225000Y-65500000D03*
X154775000Y-65500000D03*
%TD*%
M02*
