%TF.GenerationSoftware,KiCad,Pcbnew,9.0.7-9.0.7~ubuntu24.04.1*%
%TF.CreationDate,2026-03-17T14:46:35+00:00*%
%TF.ProjectId,layout,6c61796f-7574-42e6-9b69-6361645f7063,rev?*%
%TF.SameCoordinates,Original*%
%TF.FileFunction,Soldermask,Bot*%
%TF.FilePolarity,Negative*%
%FSLAX46Y46*%
G04 Gerber Fmt 4.6, Leading zero omitted, Abs format (unit mm)*
G04 Created by KiCad (PCBNEW 9.0.7-9.0.7~ubuntu24.04.1) date 2026-03-17 14:46:35*
%MOMM*%
%LPD*%
G01*
G04 APERTURE LIST*
G04 Aperture macros list*
%AMRoundRect*
0 Rectangle with rounded corners*
0 $1 Rounding radius*
0 $2 $3 $4 $5 $6 $7 $8 $9 X,Y pos of 4 corners*
0 Add a 4 corners polygon primitive as box body*
4,1,4,$2,$3,$4,$5,$6,$7,$8,$9,$2,$3,0*
0 Add four circle primitives for the rounded corners*
1,1,$1+$1,$2,$3*
1,1,$1+$1,$4,$5*
1,1,$1+$1,$6,$7*
1,1,$1+$1,$8,$9*
0 Add four rect primitives between the rounded corners*
20,1,$1+$1,$2,$3,$4,$5,0*
20,1,$1+$1,$4,$5,$6,$7,0*
20,1,$1+$1,$6,$7,$8,$9,0*
20,1,$1+$1,$8,$9,$2,$3,0*%
G04 Aperture macros list end*
%ADD10C,3.600000*%
%ADD11C,5.600000*%
%ADD12R,1.700000X1.700000*%
%ADD13O,1.700000X1.700000*%
%ADD14R,1.800000X1.800000*%
%ADD15C,1.800000*%
%ADD16RoundRect,0.750000X-1.250000X-0.750000X1.250000X-0.750000X1.250000X0.750000X-1.250000X0.750000X0*%
%ADD17R,1.350000X1.350000*%
%ADD18O,1.350000X1.350000*%
%ADD19C,1.200000*%
%ADD20O,1.200000X2.200000*%
%ADD21O,2.200000X1.200000*%
%ADD22C,0.700000*%
%ADD23O,2.400000X0.900000*%
%ADD24O,1.700000X0.900000*%
G04 APERTURE END LIST*
D10*
%TO.C,H3*%
X50000000Y-106000000D03*
D11*
X50000000Y-106000000D03*
%TD*%
D10*
%TO.C,H4*%
X206000000Y-106000000D03*
D11*
X206000000Y-106000000D03*
%TD*%
D10*
%TO.C,H2*%
X206000000Y-14000000D03*
D11*
X206000000Y-14000000D03*
%TD*%
D12*
%TO.C,J15*%
X39000000Y-64000000D03*
D13*
X39000000Y-66540000D03*
X39000000Y-69080000D03*
X39000000Y-71620000D03*
X39000000Y-74160000D03*
X39000000Y-76700000D03*
X39000000Y-79240000D03*
X39000000Y-81780000D03*
%TD*%
D12*
%TO.C,J18*%
X82000000Y-88000000D03*
D13*
X82000000Y-90540000D03*
X82000000Y-93080000D03*
X82000000Y-95620000D03*
X82000000Y-98160000D03*
X82000000Y-100700000D03*
X82000000Y-103240000D03*
X82000000Y-105780000D03*
%TD*%
D14*
%TO.C,RV1*%
X184000000Y-58000000D03*
D15*
X184000000Y-60500000D03*
X184000000Y-63000000D03*
D16*
X191000000Y-56100000D03*
X191000000Y-64900000D03*
%TD*%
D12*
%TO.C,J10*%
X15000000Y-88000000D03*
D13*
X15000000Y-90540000D03*
X15000000Y-93080000D03*
X15000000Y-95620000D03*
X15000000Y-98160000D03*
X15000000Y-100700000D03*
X15000000Y-103240000D03*
X15000000Y-105780000D03*
%TD*%
D12*
%TO.C,J3*%
X205000000Y-30000000D03*
D13*
X205000000Y-27460000D03*
X207540000Y-30000000D03*
X207540000Y-27460000D03*
X210080000Y-30000000D03*
X210080000Y-27460000D03*
X212620000Y-30000000D03*
X212620000Y-27460000D03*
X215160000Y-30000000D03*
X215160000Y-27460000D03*
%TD*%
D12*
%TO.C,J17*%
X39000000Y-88000000D03*
D13*
X39000000Y-90540000D03*
X39000000Y-93080000D03*
X39000000Y-95620000D03*
X39000000Y-98160000D03*
X39000000Y-100700000D03*
X39000000Y-103240000D03*
X39000000Y-105780000D03*
%TD*%
D12*
%TO.C,J1*%
X52300000Y-44000000D03*
D13*
X52300000Y-46540000D03*
X52300000Y-49080000D03*
X52300000Y-51620000D03*
X52300000Y-54160000D03*
X52300000Y-56700000D03*
X52300000Y-59240000D03*
X52300000Y-61780000D03*
X52300000Y-64320000D03*
X52300000Y-66860000D03*
X52300000Y-69400000D03*
X52300000Y-71940000D03*
X52300000Y-74480000D03*
X52300000Y-77020000D03*
X52300000Y-79560000D03*
X52300000Y-82100000D03*
X52300000Y-84640000D03*
X52300000Y-87180000D03*
X52300000Y-89720000D03*
X52300000Y-92260000D03*
%TD*%
D14*
%TO.C,RV2*%
X184000000Y-74000000D03*
D15*
X184000000Y-76500000D03*
X184000000Y-79000000D03*
D16*
X191000000Y-72100000D03*
X191000000Y-80900000D03*
%TD*%
D12*
%TO.C,J16*%
X82000000Y-64000000D03*
D13*
X82000000Y-66540000D03*
X82000000Y-69080000D03*
X82000000Y-71620000D03*
X82000000Y-74160000D03*
X82000000Y-76700000D03*
X82000000Y-79240000D03*
X82000000Y-81780000D03*
%TD*%
D17*
%TO.C,J4*%
X18000000Y-32000000D03*
D18*
X18000000Y-34000000D03*
%TD*%
D12*
%TO.C,J9*%
X58000000Y-64000000D03*
D13*
X58000000Y-66540000D03*
X58000000Y-69080000D03*
X58000000Y-71620000D03*
X58000000Y-74160000D03*
X58000000Y-76700000D03*
X58000000Y-79240000D03*
X58000000Y-81780000D03*
%TD*%
D12*
%TO.C,J2*%
X77700000Y-44000000D03*
D13*
X77700000Y-46540000D03*
X77700000Y-49080000D03*
X77700000Y-51620000D03*
X77700000Y-54160000D03*
X77700000Y-56700000D03*
X77700000Y-59240000D03*
X77700000Y-61780000D03*
X77700000Y-64320000D03*
X77700000Y-66860000D03*
X77700000Y-69400000D03*
X77700000Y-71940000D03*
X77700000Y-74480000D03*
X77700000Y-77020000D03*
X77700000Y-79560000D03*
X77700000Y-82100000D03*
X77700000Y-84640000D03*
X77700000Y-87180000D03*
X77700000Y-89720000D03*
X77700000Y-92260000D03*
%TD*%
D12*
%TO.C,J13*%
X200000000Y-88000000D03*
D13*
X200000000Y-90540000D03*
X200000000Y-93080000D03*
%TD*%
D12*
%TO.C,J11*%
X58000000Y-88000000D03*
D13*
X58000000Y-90540000D03*
X58000000Y-93080000D03*
X58000000Y-95620000D03*
X58000000Y-98160000D03*
X58000000Y-100700000D03*
X58000000Y-103240000D03*
X58000000Y-105780000D03*
%TD*%
D19*
%TO.C,J7*%
X195000000Y-60000000D03*
X195000000Y-62500000D03*
X200000000Y-55000000D03*
X205000000Y-60000000D03*
X205000000Y-62500000D03*
D20*
X195000000Y-55000000D03*
D21*
X200000000Y-60000000D03*
D20*
X205000000Y-55000000D03*
%TD*%
D12*
%TO.C,J6*%
X135000000Y-105000000D03*
D13*
X135000000Y-107540000D03*
%TD*%
D12*
%TO.C,J5*%
X118000000Y-105000000D03*
D13*
X118000000Y-107540000D03*
%TD*%
D12*
%TO.C,J8*%
X15000000Y-64000000D03*
D13*
X15000000Y-66540000D03*
X15000000Y-69080000D03*
X15000000Y-71620000D03*
X15000000Y-74160000D03*
X15000000Y-76700000D03*
X15000000Y-79240000D03*
X15000000Y-81780000D03*
%TD*%
D10*
%TO.C,H1*%
X14000000Y-10000000D03*
D11*
X14000000Y-10000000D03*
%TD*%
D12*
%TO.C,J14*%
X200000000Y-96000000D03*
D13*
X200000000Y-98540000D03*
X200000000Y-101080000D03*
%TD*%
D19*
%TO.C,J12*%
X195000000Y-78000000D03*
X195000000Y-80500000D03*
X200000000Y-73000000D03*
X205000000Y-78000000D03*
X205000000Y-80500000D03*
D20*
X195000000Y-73000000D03*
D21*
X200000000Y-78000000D03*
D20*
X205000000Y-73000000D03*
%TD*%
D22*
%TO.C,J19*%
X18000000Y-16000000D03*
X18000000Y-16850000D03*
X18000000Y-17700000D03*
X18000000Y-18550000D03*
X18000000Y-19400000D03*
X18000000Y-20250000D03*
X18000000Y-21100000D03*
X18000000Y-21950000D03*
X16650000Y-21950000D03*
X16650000Y-21100000D03*
X16650000Y-20250000D03*
X16650000Y-19400000D03*
X16650000Y-18550000D03*
X16650000Y-17700000D03*
X16650000Y-16850000D03*
X16650000Y-16000000D03*
D23*
X17020000Y-14650000D03*
D24*
X13640000Y-14650000D03*
D23*
X17020000Y-23300000D03*
D24*
X13640000Y-23300000D03*
%TD*%
M02*
