%TF.GenerationSoftware,KiCad,Pcbnew,9.0.7-9.0.7~ubuntu24.04.1*%
%TF.CreationDate,2026-03-17T14:46:34+00:00*%
%TF.ProjectId,layout,6c61796f-7574-42e6-9b69-6361645f7063,rev?*%
%TF.SameCoordinates,Original*%
%TF.FileFunction,Copper,L2,Inr*%
%TF.FilePolarity,Positive*%
%FSLAX46Y46*%
G04 Gerber Fmt 4.6, Leading zero omitted, Abs format (unit mm)*
G04 Created by KiCad (PCBNEW 9.0.7-9.0.7~ubuntu24.04.1) date 2026-03-17 14:46:34*
%MOMM*%
%LPD*%
G01*
G04 APERTURE LIST*
G04 Aperture macros list*
%AMRoundRect*
0 Rectangle with rounded corners*
0 $1 Rounding radius*
0 $2 $3 $4 $5 $6 $7 $8 $9 X,Y pos of 4 corners*
0 Add a 4 corners polygon primitive as box body*
4,1,4,$2,$3,$4,$5,$6,$7,$8,$9,$2,$3,0*
0 Add four circle primitives for the rounded corners*
1,1,$1+$1,$2,$3*
1,1,$1+$1,$4,$5*
1,1,$1+$1,$6,$7*
1,1,$1+$1,$8,$9*
0 Add four rect primitives between the rounded corners*
20,1,$1+$1,$2,$3,$4,$5,0*
20,1,$1+$1,$4,$5,$6,$7,0*
20,1,$1+$1,$6,$7,$8,$9,0*
20,1,$1+$1,$8,$9,$2,$3,0*%
G04 Aperture macros list end*
%TA.AperFunction,ComponentPad*%
%ADD10C,3.600000*%
%TD*%
%TA.AperFunction,ComponentPad*%
%ADD11R,1.700000X1.700000*%
%TD*%
%TA.AperFunction,ComponentPad*%
%ADD12O,1.700000X1.700000*%
%TD*%
%TA.AperFunction,ComponentPad*%
%ADD13R,1.800000X1.800000*%
%TD*%
%TA.AperFunction,ComponentPad*%
%ADD14C,1.800000*%
%TD*%
%TA.AperFunction,ComponentPad*%
%ADD15RoundRect,0.750000X-1.250000X-0.750000X1.250000X-0.750000X1.250000X0.750000X-1.250000X0.750000X0*%
%TD*%
%TA.AperFunction,ComponentPad*%
%ADD16R,1.350000X1.350000*%
%TD*%
%TA.AperFunction,ComponentPad*%
%ADD17O,1.350000X1.350000*%
%TD*%
%TA.AperFunction,ComponentPad*%
%ADD18O,1.200000X2.200000*%
%TD*%
%TA.AperFunction,ComponentPad*%
%ADD19O,2.200000X1.200000*%
%TD*%
%TA.AperFunction,ComponentPad*%
%ADD20C,0.700000*%
%TD*%
%TA.AperFunction,ComponentPad*%
%ADD21O,2.400000X0.900000*%
%TD*%
%TA.AperFunction,ComponentPad*%
%ADD22O,1.700000X0.900000*%
%TD*%
G04 APERTURE END LIST*
D10*
%TO.N,N/C*%
%TO.C,H3*%
X50000000Y-106000000D03*
%TD*%
%TO.N,N/C*%
%TO.C,H4*%
X206000000Y-106000000D03*
%TD*%
%TO.N,N/C*%
%TO.C,H2*%
X206000000Y-14000000D03*
%TD*%
D11*
%TO.N,DGND*%
%TO.C,J15*%
X39000000Y-64000000D03*
D12*
%TO.N,NC_SA_GPIO43*%
X39000000Y-66540000D03*
%TO.N,NC_SA_GPIO44*%
X39000000Y-69080000D03*
%TO.N,NC_SA_GPIO1*%
X39000000Y-71620000D03*
%TO.N,NC_SA_GPIO2*%
X39000000Y-74160000D03*
%TO.N,NC_SA_GPIO42*%
X39000000Y-76700000D03*
%TO.N,UART_SLAVE_TX*%
X39000000Y-79240000D03*
%TO.N,SD_FWD_AB*%
X39000000Y-81780000D03*
%TD*%
D11*
%TO.N,DGND*%
%TO.C,J18*%
X82000000Y-88000000D03*
D12*
%TO.N,NC_SD_GPIO43*%
X82000000Y-90540000D03*
%TO.N,NC_SD_GPIO44*%
X82000000Y-93080000D03*
%TO.N,NC_SD_GPIO1*%
X82000000Y-95620000D03*
%TO.N,NC_SD_GPIO2*%
X82000000Y-98160000D03*
%TO.N,NC_SD_GPIO42*%
X82000000Y-100700000D03*
%TO.N,UART_SLAVE_TX*%
X82000000Y-103240000D03*
%TO.N,SD_FWD_CD*%
X82000000Y-105780000D03*
%TD*%
D13*
%TO.N,HP_AC_L*%
%TO.C,RV1*%
X184000000Y-58000000D03*
D14*
%TO.N,HP_VOL_L*%
X184000000Y-60500000D03*
%TO.N,AGND*%
X184000000Y-63000000D03*
D15*
%TO.N,N/C*%
X191000000Y-56100000D03*
X191000000Y-64900000D03*
%TD*%
D11*
%TO.N,DVDD*%
%TO.C,J10*%
X15000000Y-88000000D03*
D12*
X15000000Y-90540000D03*
%TO.N,EN_SLAVE4*%
X15000000Y-93080000D03*
%TO.N,NC_SC_GPIO4*%
X15000000Y-95620000D03*
%TO.N,BCLK_OUT*%
X15000000Y-98160000D03*
%TO.N,LRCK_OUT*%
X15000000Y-100700000D03*
%TO.N,DIN_C*%
X15000000Y-103240000D03*
%TO.N,NC_SC_GPIO15*%
X15000000Y-105780000D03*
%TD*%
D11*
%TO.N,SIG_CH1*%
%TO.C,J3*%
X205000000Y-30000000D03*
D12*
%TO.N,SIG_CH2*%
X205000000Y-27460000D03*
%TO.N,SIG_CH3*%
X207540000Y-30000000D03*
%TO.N,SIG_CH4*%
X207540000Y-27460000D03*
%TO.N,SIG_CH5*%
X210080000Y-30000000D03*
%TO.N,SIG_CH6*%
X210080000Y-27460000D03*
%TO.N,SIG_CH7*%
X212620000Y-30000000D03*
%TO.N,SIG_CH8*%
X212620000Y-27460000D03*
%TO.N,AVDD*%
X215160000Y-30000000D03*
%TO.N,AGND*%
X215160000Y-27460000D03*
%TD*%
D11*
%TO.N,DGND*%
%TO.C,J17*%
X39000000Y-88000000D03*
D12*
%TO.N,NC_SC_GPIO43*%
X39000000Y-90540000D03*
%TO.N,NC_SC_GPIO44*%
X39000000Y-93080000D03*
%TO.N,NC_SC_GPIO1*%
X39000000Y-95620000D03*
%TO.N,NC_SC_GPIO2*%
X39000000Y-98160000D03*
%TO.N,NC_SC_GPIO42*%
X39000000Y-100700000D03*
%TO.N,UART_SLAVE_TX*%
X39000000Y-103240000D03*
%TO.N,SD_FWD_CD*%
X39000000Y-105780000D03*
%TD*%
D11*
%TO.N,DVDD*%
%TO.C,J1*%
X52300000Y-44000000D03*
D12*
X52300000Y-46540000D03*
%TO.N,ESP_RST*%
X52300000Y-49080000D03*
%TO.N,NC_GPIO4*%
X52300000Y-51620000D03*
%TO.N,MCLK*%
X52300000Y-54160000D03*
%TO.N,BCLK*%
X52300000Y-56700000D03*
%TO.N,LRCK*%
X52300000Y-59240000D03*
%TO.N,ADCDAT_A*%
X52300000Y-61780000D03*
%TO.N,ADCDAT_B*%
X52300000Y-64320000D03*
%TO.N,SD_FWD_AB*%
X52300000Y-66860000D03*
%TO.N,SD_FWD_CD*%
X52300000Y-69400000D03*
%TO.N,BCLK_OUT*%
X52300000Y-71940000D03*
%TO.N,USB_DN*%
X52300000Y-74480000D03*
%TO.N,USB_DP*%
X52300000Y-77020000D03*
%TO.N,NC_GPIO3*%
X52300000Y-79560000D03*
%TO.N,MUX_B*%
X52300000Y-82100000D03*
%TO.N,LRCK_OUT*%
X52300000Y-84640000D03*
%TO.N,DIN_A*%
X52300000Y-87180000D03*
%TO.N,DIN_B*%
X52300000Y-89720000D03*
%TO.N,DIN_C*%
X52300000Y-92260000D03*
%TD*%
D13*
%TO.N,HP_AC_R*%
%TO.C,RV2*%
X184000000Y-74000000D03*
D14*
%TO.N,HP_VOL_R*%
X184000000Y-76500000D03*
%TO.N,AGND*%
X184000000Y-79000000D03*
D15*
%TO.N,N/C*%
X191000000Y-72100000D03*
X191000000Y-80900000D03*
%TD*%
D11*
%TO.N,DGND*%
%TO.C,J16*%
X82000000Y-64000000D03*
D12*
%TO.N,NC_SB_GPIO43*%
X82000000Y-66540000D03*
%TO.N,NC_SB_GPIO44*%
X82000000Y-69080000D03*
%TO.N,NC_SB_GPIO1*%
X82000000Y-71620000D03*
%TO.N,NC_SB_GPIO2*%
X82000000Y-74160000D03*
%TO.N,NC_SB_GPIO42*%
X82000000Y-76700000D03*
%TO.N,UART_SLAVE_TX*%
X82000000Y-79240000D03*
%TO.N,SD_FWD_AB*%
X82000000Y-81780000D03*
%TD*%
D16*
%TO.N,VBAT_RAW*%
%TO.C,J4*%
X18000000Y-32000000D03*
D17*
%TO.N,DGND*%
X18000000Y-34000000D03*
%TD*%
D11*
%TO.N,DVDD*%
%TO.C,J9*%
X58000000Y-64000000D03*
D12*
X58000000Y-66540000D03*
%TO.N,EN_SLAVE3*%
X58000000Y-69080000D03*
%TO.N,NC_SB_GPIO4*%
X58000000Y-71620000D03*
%TO.N,BCLK_OUT*%
X58000000Y-74160000D03*
%TO.N,LRCK_OUT*%
X58000000Y-76700000D03*
%TO.N,DIN_B*%
X58000000Y-79240000D03*
%TO.N,NC_SB_GPIO15*%
X58000000Y-81780000D03*
%TD*%
D11*
%TO.N,DGND*%
%TO.C,J2*%
X77700000Y-44000000D03*
D12*
%TO.N,NC_GPIO43*%
X77700000Y-46540000D03*
%TO.N,NC_GPIO44*%
X77700000Y-49080000D03*
%TO.N,BOOT_SLAVE3*%
X77700000Y-51620000D03*
%TO.N,BOOT_SLAVE2*%
X77700000Y-54160000D03*
%TO.N,BOOT_SLAVE4*%
X77700000Y-56700000D03*
%TO.N,EN_SLAVE2*%
X77700000Y-59240000D03*
%TO.N,EN_SLAVE3*%
X77700000Y-61780000D03*
%TO.N,EN_SLAVE4*%
X77700000Y-64320000D03*
%TO.N,SCL*%
X77700000Y-66860000D03*
%TO.N,EN_SLAVE5*%
X77700000Y-69400000D03*
%TO.N,VBAT_MON*%
X77700000Y-71940000D03*
%TO.N,MUX_INH*%
X77700000Y-74480000D03*
%TO.N,NC_GPIO0*%
X77700000Y-77020000D03*
%TO.N,MUX_A*%
X77700000Y-79560000D03*
%TO.N,NC_GPIO48*%
X77700000Y-82100000D03*
%TO.N,BOOT_SLAVE5*%
X77700000Y-84640000D03*
%TO.N,SDA*%
X77700000Y-87180000D03*
%TO.N,DIN_D*%
X77700000Y-89720000D03*
%TO.N,DOUT_DAC*%
X77700000Y-92260000D03*
%TD*%
D11*
%TO.N,JACK_L_TIP*%
%TO.C,J13*%
X200000000Y-88000000D03*
D12*
%TO.N,JACK_L_RING*%
X200000000Y-90540000D03*
%TO.N,AGND*%
X200000000Y-93080000D03*
%TD*%
D11*
%TO.N,DVDD*%
%TO.C,J11*%
X58000000Y-88000000D03*
D12*
X58000000Y-90540000D03*
%TO.N,EN_SLAVE5*%
X58000000Y-93080000D03*
%TO.N,NC_SD_GPIO4*%
X58000000Y-95620000D03*
%TO.N,BCLK_OUT*%
X58000000Y-98160000D03*
%TO.N,LRCK_OUT*%
X58000000Y-100700000D03*
%TO.N,DIN_D*%
X58000000Y-103240000D03*
%TO.N,NC_SD_GPIO15*%
X58000000Y-105780000D03*
%TD*%
D18*
%TO.N,N/C*%
%TO.C,J7*%
X195000000Y-55000000D03*
D19*
X200000000Y-60000000D03*
D18*
X205000000Y-55000000D03*
%TD*%
D11*
%TO.N,FS2_A*%
%TO.C,J6*%
X135000000Y-105000000D03*
D12*
%TO.N,FS2_B*%
X135000000Y-107540000D03*
%TD*%
D11*
%TO.N,FS1_A*%
%TO.C,J5*%
X118000000Y-105000000D03*
D12*
%TO.N,FS1_B*%
X118000000Y-107540000D03*
%TD*%
D11*
%TO.N,DVDD*%
%TO.C,J8*%
X15000000Y-64000000D03*
D12*
X15000000Y-66540000D03*
%TO.N,EN_SLAVE2*%
X15000000Y-69080000D03*
%TO.N,NC_SA_GPIO4*%
X15000000Y-71620000D03*
%TO.N,BCLK_OUT*%
X15000000Y-74160000D03*
%TO.N,LRCK_OUT*%
X15000000Y-76700000D03*
%TO.N,DIN_A*%
X15000000Y-79240000D03*
%TO.N,NC_SA_GPIO15*%
X15000000Y-81780000D03*
%TD*%
D10*
%TO.N,N/C*%
%TO.C,H1*%
X14000000Y-10000000D03*
%TD*%
D11*
%TO.N,JACK_R_TIP*%
%TO.C,J14*%
X200000000Y-96000000D03*
D12*
%TO.N,JACK_R_RING*%
X200000000Y-98540000D03*
%TO.N,AGND*%
X200000000Y-101080000D03*
%TD*%
D18*
%TO.N,N/C*%
%TO.C,J12*%
X195000000Y-73000000D03*
D19*
X200000000Y-78000000D03*
D18*
X205000000Y-73000000D03*
%TD*%
D20*
%TO.N,DGND*%
%TO.C,J19*%
X18000000Y-16000000D03*
%TO.N,VBUS*%
X18000000Y-16850000D03*
%TO.N,CC1*%
X18000000Y-17700000D03*
%TO.N,USB_DP*%
X18000000Y-18550000D03*
%TO.N,USB_DN*%
X18000000Y-19400000D03*
%TO.N,N/C*%
X18000000Y-20250000D03*
X18000000Y-21100000D03*
X18000000Y-21950000D03*
X16650000Y-21950000D03*
X16650000Y-21100000D03*
%TO.N,CC2*%
X16650000Y-20250000D03*
%TO.N,USB_DP*%
X16650000Y-19400000D03*
%TO.N,USB_DN*%
X16650000Y-18550000D03*
%TO.N,N/C*%
X16650000Y-17700000D03*
%TO.N,VBUS*%
X16650000Y-16850000D03*
%TO.N,DGND*%
X16650000Y-16000000D03*
D21*
%TO.N,N/C*%
X17020000Y-14650000D03*
D22*
X13640000Y-14650000D03*
D21*
X17020000Y-23300000D03*
D22*
%TO.N,DGND*%
X13640000Y-23300000D03*
%TD*%
M02*
