%TF.GenerationSoftware,KiCad,Pcbnew,9.0.7-9.0.7~ubuntu24.04.1*%
%TF.CreationDate,2026-03-17T15:56:11+00:00*%
%TF.ProjectId,layout,6c61796f-7574-42e6-9b69-6361645f7063,rev?*%
%TF.SameCoordinates,Original*%
%TF.FileFunction,Legend,Top*%
%TF.FilePolarity,Positive*%
%FSLAX46Y46*%
G04 Gerber Fmt 4.6, Leading zero omitted, Abs format (unit mm)*
G04 Created by KiCad (PCBNEW 9.0.7-9.0.7~ubuntu24.04.1) date 2026-03-17 15:56:11*
%MOMM*%
%LPD*%
G01*
G04 APERTURE LIST*
%ADD10C,0.150000*%
%ADD11C,0.120000*%
G04 APERTURE END LIST*
D10*
X125357142Y-49679580D02*
X125309523Y-49727200D01*
X125309523Y-49727200D02*
X125166666Y-49774819D01*
X125166666Y-49774819D02*
X125071428Y-49774819D01*
X125071428Y-49774819D02*
X124928571Y-49727200D01*
X124928571Y-49727200D02*
X124833333Y-49631961D01*
X124833333Y-49631961D02*
X124785714Y-49536723D01*
X124785714Y-49536723D02*
X124738095Y-49346247D01*
X124738095Y-49346247D02*
X124738095Y-49203390D01*
X124738095Y-49203390D02*
X124785714Y-49012914D01*
X124785714Y-49012914D02*
X124833333Y-48917676D01*
X124833333Y-48917676D02*
X124928571Y-48822438D01*
X124928571Y-48822438D02*
X125071428Y-48774819D01*
X125071428Y-48774819D02*
X125166666Y-48774819D01*
X125166666Y-48774819D02*
X125309523Y-48822438D01*
X125309523Y-48822438D02*
X125357142Y-48870057D01*
X126309523Y-49774819D02*
X125738095Y-49774819D01*
X126023809Y-49774819D02*
X126023809Y-48774819D01*
X126023809Y-48774819D02*
X125928571Y-48917676D01*
X125928571Y-48917676D02*
X125833333Y-49012914D01*
X125833333Y-49012914D02*
X125738095Y-49060533D01*
X126785714Y-49774819D02*
X126976190Y-49774819D01*
X126976190Y-49774819D02*
X127071428Y-49727200D01*
X127071428Y-49727200D02*
X127119047Y-49679580D01*
X127119047Y-49679580D02*
X127214285Y-49536723D01*
X127214285Y-49536723D02*
X127261904Y-49346247D01*
X127261904Y-49346247D02*
X127261904Y-48965295D01*
X127261904Y-48965295D02*
X127214285Y-48870057D01*
X127214285Y-48870057D02*
X127166666Y-48822438D01*
X127166666Y-48822438D02*
X127071428Y-48774819D01*
X127071428Y-48774819D02*
X126880952Y-48774819D01*
X126880952Y-48774819D02*
X126785714Y-48822438D01*
X126785714Y-48822438D02*
X126738095Y-48870057D01*
X126738095Y-48870057D02*
X126690476Y-48965295D01*
X126690476Y-48965295D02*
X126690476Y-49203390D01*
X126690476Y-49203390D02*
X126738095Y-49298628D01*
X126738095Y-49298628D02*
X126785714Y-49346247D01*
X126785714Y-49346247D02*
X126880952Y-49393866D01*
X126880952Y-49393866D02*
X127071428Y-49393866D01*
X127071428Y-49393866D02*
X127166666Y-49346247D01*
X127166666Y-49346247D02*
X127214285Y-49298628D01*
X127214285Y-49298628D02*
X127261904Y-49203390D01*
X104833333Y-55024819D02*
X104500000Y-54548628D01*
X104261905Y-55024819D02*
X104261905Y-54024819D01*
X104261905Y-54024819D02*
X104642857Y-54024819D01*
X104642857Y-54024819D02*
X104738095Y-54072438D01*
X104738095Y-54072438D02*
X104785714Y-54120057D01*
X104785714Y-54120057D02*
X104833333Y-54215295D01*
X104833333Y-54215295D02*
X104833333Y-54358152D01*
X104833333Y-54358152D02*
X104785714Y-54453390D01*
X104785714Y-54453390D02*
X104738095Y-54501009D01*
X104738095Y-54501009D02*
X104642857Y-54548628D01*
X104642857Y-54548628D02*
X104261905Y-54548628D01*
X105785714Y-55024819D02*
X105214286Y-55024819D01*
X105500000Y-55024819D02*
X105500000Y-54024819D01*
X105500000Y-54024819D02*
X105404762Y-54167676D01*
X105404762Y-54167676D02*
X105309524Y-54262914D01*
X105309524Y-54262914D02*
X105214286Y-54310533D01*
X26261905Y-11024819D02*
X26261905Y-10024819D01*
X26261905Y-10024819D02*
X26500000Y-10024819D01*
X26500000Y-10024819D02*
X26642857Y-10072438D01*
X26642857Y-10072438D02*
X26738095Y-10167676D01*
X26738095Y-10167676D02*
X26785714Y-10262914D01*
X26785714Y-10262914D02*
X26833333Y-10453390D01*
X26833333Y-10453390D02*
X26833333Y-10596247D01*
X26833333Y-10596247D02*
X26785714Y-10786723D01*
X26785714Y-10786723D02*
X26738095Y-10881961D01*
X26738095Y-10881961D02*
X26642857Y-10977200D01*
X26642857Y-10977200D02*
X26500000Y-11024819D01*
X26500000Y-11024819D02*
X26261905Y-11024819D01*
X27214286Y-10120057D02*
X27261905Y-10072438D01*
X27261905Y-10072438D02*
X27357143Y-10024819D01*
X27357143Y-10024819D02*
X27595238Y-10024819D01*
X27595238Y-10024819D02*
X27690476Y-10072438D01*
X27690476Y-10072438D02*
X27738095Y-10120057D01*
X27738095Y-10120057D02*
X27785714Y-10215295D01*
X27785714Y-10215295D02*
X27785714Y-10310533D01*
X27785714Y-10310533D02*
X27738095Y-10453390D01*
X27738095Y-10453390D02*
X27166667Y-11024819D01*
X27166667Y-11024819D02*
X27785714Y-11024819D01*
X15666666Y-25394819D02*
X15666666Y-26109104D01*
X15666666Y-26109104D02*
X15619047Y-26251961D01*
X15619047Y-26251961D02*
X15523809Y-26347200D01*
X15523809Y-26347200D02*
X15380952Y-26394819D01*
X15380952Y-26394819D02*
X15285714Y-26394819D01*
X16571428Y-25728152D02*
X16571428Y-26394819D01*
X16333333Y-25347200D02*
X16095238Y-26061485D01*
X16095238Y-26061485D02*
X16714285Y-26061485D01*
X17254819Y-18784523D02*
X17969104Y-18784523D01*
X17969104Y-18784523D02*
X18111961Y-18832142D01*
X18111961Y-18832142D02*
X18207200Y-18927380D01*
X18207200Y-18927380D02*
X18254819Y-19070237D01*
X18254819Y-19070237D02*
X18254819Y-19165475D01*
X18254819Y-17784523D02*
X18254819Y-18355951D01*
X18254819Y-18070237D02*
X17254819Y-18070237D01*
X17254819Y-18070237D02*
X17397676Y-18165475D01*
X17397676Y-18165475D02*
X17492914Y-18260713D01*
X17492914Y-18260713D02*
X17540533Y-18355951D01*
X18254819Y-17308332D02*
X18254819Y-17117856D01*
X18254819Y-17117856D02*
X18207200Y-17022618D01*
X18207200Y-17022618D02*
X18159580Y-16974999D01*
X18159580Y-16974999D02*
X18016723Y-16879761D01*
X18016723Y-16879761D02*
X17826247Y-16832142D01*
X17826247Y-16832142D02*
X17445295Y-16832142D01*
X17445295Y-16832142D02*
X17350057Y-16879761D01*
X17350057Y-16879761D02*
X17302438Y-16927380D01*
X17302438Y-16927380D02*
X17254819Y-17022618D01*
X17254819Y-17022618D02*
X17254819Y-17213094D01*
X17254819Y-17213094D02*
X17302438Y-17308332D01*
X17302438Y-17308332D02*
X17350057Y-17355951D01*
X17350057Y-17355951D02*
X17445295Y-17403570D01*
X17445295Y-17403570D02*
X17683390Y-17403570D01*
X17683390Y-17403570D02*
X17778628Y-17355951D01*
X17778628Y-17355951D02*
X17826247Y-17308332D01*
X17826247Y-17308332D02*
X17873866Y-17213094D01*
X17873866Y-17213094D02*
X17873866Y-17022618D01*
X17873866Y-17022618D02*
X17826247Y-16927380D01*
X17826247Y-16927380D02*
X17778628Y-16879761D01*
X17778628Y-16879761D02*
X17683390Y-16832142D01*
X129857142Y-67429580D02*
X129809523Y-67477200D01*
X129809523Y-67477200D02*
X129666666Y-67524819D01*
X129666666Y-67524819D02*
X129571428Y-67524819D01*
X129571428Y-67524819D02*
X129428571Y-67477200D01*
X129428571Y-67477200D02*
X129333333Y-67381961D01*
X129333333Y-67381961D02*
X129285714Y-67286723D01*
X129285714Y-67286723D02*
X129238095Y-67096247D01*
X129238095Y-67096247D02*
X129238095Y-66953390D01*
X129238095Y-66953390D02*
X129285714Y-66762914D01*
X129285714Y-66762914D02*
X129333333Y-66667676D01*
X129333333Y-66667676D02*
X129428571Y-66572438D01*
X129428571Y-66572438D02*
X129571428Y-66524819D01*
X129571428Y-66524819D02*
X129666666Y-66524819D01*
X129666666Y-66524819D02*
X129809523Y-66572438D01*
X129809523Y-66572438D02*
X129857142Y-66620057D01*
X130761904Y-66524819D02*
X130285714Y-66524819D01*
X130285714Y-66524819D02*
X130238095Y-67001009D01*
X130238095Y-67001009D02*
X130285714Y-66953390D01*
X130285714Y-66953390D02*
X130380952Y-66905771D01*
X130380952Y-66905771D02*
X130619047Y-66905771D01*
X130619047Y-66905771D02*
X130714285Y-66953390D01*
X130714285Y-66953390D02*
X130761904Y-67001009D01*
X130761904Y-67001009D02*
X130809523Y-67096247D01*
X130809523Y-67096247D02*
X130809523Y-67334342D01*
X130809523Y-67334342D02*
X130761904Y-67429580D01*
X130761904Y-67429580D02*
X130714285Y-67477200D01*
X130714285Y-67477200D02*
X130619047Y-67524819D01*
X130619047Y-67524819D02*
X130380952Y-67524819D01*
X130380952Y-67524819D02*
X130285714Y-67477200D01*
X130285714Y-67477200D02*
X130238095Y-67429580D01*
X131190476Y-66620057D02*
X131238095Y-66572438D01*
X131238095Y-66572438D02*
X131333333Y-66524819D01*
X131333333Y-66524819D02*
X131571428Y-66524819D01*
X131571428Y-66524819D02*
X131666666Y-66572438D01*
X131666666Y-66572438D02*
X131714285Y-66620057D01*
X131714285Y-66620057D02*
X131761904Y-66715295D01*
X131761904Y-66715295D02*
X131761904Y-66810533D01*
X131761904Y-66810533D02*
X131714285Y-66953390D01*
X131714285Y-66953390D02*
X131142857Y-67524819D01*
X131142857Y-67524819D02*
X131761904Y-67524819D01*
X95357142Y-47929580D02*
X95309523Y-47977200D01*
X95309523Y-47977200D02*
X95166666Y-48024819D01*
X95166666Y-48024819D02*
X95071428Y-48024819D01*
X95071428Y-48024819D02*
X94928571Y-47977200D01*
X94928571Y-47977200D02*
X94833333Y-47881961D01*
X94833333Y-47881961D02*
X94785714Y-47786723D01*
X94785714Y-47786723D02*
X94738095Y-47596247D01*
X94738095Y-47596247D02*
X94738095Y-47453390D01*
X94738095Y-47453390D02*
X94785714Y-47262914D01*
X94785714Y-47262914D02*
X94833333Y-47167676D01*
X94833333Y-47167676D02*
X94928571Y-47072438D01*
X94928571Y-47072438D02*
X95071428Y-47024819D01*
X95071428Y-47024819D02*
X95166666Y-47024819D01*
X95166666Y-47024819D02*
X95309523Y-47072438D01*
X95309523Y-47072438D02*
X95357142Y-47120057D01*
X96309523Y-48024819D02*
X95738095Y-48024819D01*
X96023809Y-48024819D02*
X96023809Y-47024819D01*
X96023809Y-47024819D02*
X95928571Y-47167676D01*
X95928571Y-47167676D02*
X95833333Y-47262914D01*
X95833333Y-47262914D02*
X95738095Y-47310533D01*
X97214285Y-47024819D02*
X96738095Y-47024819D01*
X96738095Y-47024819D02*
X96690476Y-47501009D01*
X96690476Y-47501009D02*
X96738095Y-47453390D01*
X96738095Y-47453390D02*
X96833333Y-47405771D01*
X96833333Y-47405771D02*
X97071428Y-47405771D01*
X97071428Y-47405771D02*
X97166666Y-47453390D01*
X97166666Y-47453390D02*
X97214285Y-47501009D01*
X97214285Y-47501009D02*
X97261904Y-47596247D01*
X97261904Y-47596247D02*
X97261904Y-47834342D01*
X97261904Y-47834342D02*
X97214285Y-47929580D01*
X97214285Y-47929580D02*
X97166666Y-47977200D01*
X97166666Y-47977200D02*
X97071428Y-48024819D01*
X97071428Y-48024819D02*
X96833333Y-48024819D01*
X96833333Y-48024819D02*
X96738095Y-47977200D01*
X96738095Y-47977200D02*
X96690476Y-47929580D01*
X158833333Y-73284819D02*
X158500000Y-72808628D01*
X158261905Y-73284819D02*
X158261905Y-72284819D01*
X158261905Y-72284819D02*
X158642857Y-72284819D01*
X158642857Y-72284819D02*
X158738095Y-72332438D01*
X158738095Y-72332438D02*
X158785714Y-72380057D01*
X158785714Y-72380057D02*
X158833333Y-72475295D01*
X158833333Y-72475295D02*
X158833333Y-72618152D01*
X158833333Y-72618152D02*
X158785714Y-72713390D01*
X158785714Y-72713390D02*
X158738095Y-72761009D01*
X158738095Y-72761009D02*
X158642857Y-72808628D01*
X158642857Y-72808628D02*
X158261905Y-72808628D01*
X159309524Y-73284819D02*
X159500000Y-73284819D01*
X159500000Y-73284819D02*
X159595238Y-73237200D01*
X159595238Y-73237200D02*
X159642857Y-73189580D01*
X159642857Y-73189580D02*
X159738095Y-73046723D01*
X159738095Y-73046723D02*
X159785714Y-72856247D01*
X159785714Y-72856247D02*
X159785714Y-72475295D01*
X159785714Y-72475295D02*
X159738095Y-72380057D01*
X159738095Y-72380057D02*
X159690476Y-72332438D01*
X159690476Y-72332438D02*
X159595238Y-72284819D01*
X159595238Y-72284819D02*
X159404762Y-72284819D01*
X159404762Y-72284819D02*
X159309524Y-72332438D01*
X159309524Y-72332438D02*
X159261905Y-72380057D01*
X159261905Y-72380057D02*
X159214286Y-72475295D01*
X159214286Y-72475295D02*
X159214286Y-72713390D01*
X159214286Y-72713390D02*
X159261905Y-72808628D01*
X159261905Y-72808628D02*
X159309524Y-72856247D01*
X159309524Y-72856247D02*
X159404762Y-72903866D01*
X159404762Y-72903866D02*
X159595238Y-72903866D01*
X159595238Y-72903866D02*
X159690476Y-72856247D01*
X159690476Y-72856247D02*
X159738095Y-72808628D01*
X159738095Y-72808628D02*
X159785714Y-72713390D01*
X129238095Y-18154819D02*
X129238095Y-18964342D01*
X129238095Y-18964342D02*
X129285714Y-19059580D01*
X129285714Y-19059580D02*
X129333333Y-19107200D01*
X129333333Y-19107200D02*
X129428571Y-19154819D01*
X129428571Y-19154819D02*
X129619047Y-19154819D01*
X129619047Y-19154819D02*
X129714285Y-19107200D01*
X129714285Y-19107200D02*
X129761904Y-19059580D01*
X129761904Y-19059580D02*
X129809523Y-18964342D01*
X129809523Y-18964342D02*
X129809523Y-18154819D01*
X130238095Y-18250057D02*
X130285714Y-18202438D01*
X130285714Y-18202438D02*
X130380952Y-18154819D01*
X130380952Y-18154819D02*
X130619047Y-18154819D01*
X130619047Y-18154819D02*
X130714285Y-18202438D01*
X130714285Y-18202438D02*
X130761904Y-18250057D01*
X130761904Y-18250057D02*
X130809523Y-18345295D01*
X130809523Y-18345295D02*
X130809523Y-18440533D01*
X130809523Y-18440533D02*
X130761904Y-18583390D01*
X130761904Y-18583390D02*
X130190476Y-19154819D01*
X130190476Y-19154819D02*
X130809523Y-19154819D01*
X135357142Y-21429580D02*
X135309523Y-21477200D01*
X135309523Y-21477200D02*
X135166666Y-21524819D01*
X135166666Y-21524819D02*
X135071428Y-21524819D01*
X135071428Y-21524819D02*
X134928571Y-21477200D01*
X134928571Y-21477200D02*
X134833333Y-21381961D01*
X134833333Y-21381961D02*
X134785714Y-21286723D01*
X134785714Y-21286723D02*
X134738095Y-21096247D01*
X134738095Y-21096247D02*
X134738095Y-20953390D01*
X134738095Y-20953390D02*
X134785714Y-20762914D01*
X134785714Y-20762914D02*
X134833333Y-20667676D01*
X134833333Y-20667676D02*
X134928571Y-20572438D01*
X134928571Y-20572438D02*
X135071428Y-20524819D01*
X135071428Y-20524819D02*
X135166666Y-20524819D01*
X135166666Y-20524819D02*
X135309523Y-20572438D01*
X135309523Y-20572438D02*
X135357142Y-20620057D01*
X135690476Y-20524819D02*
X136309523Y-20524819D01*
X136309523Y-20524819D02*
X135976190Y-20905771D01*
X135976190Y-20905771D02*
X136119047Y-20905771D01*
X136119047Y-20905771D02*
X136214285Y-20953390D01*
X136214285Y-20953390D02*
X136261904Y-21001009D01*
X136261904Y-21001009D02*
X136309523Y-21096247D01*
X136309523Y-21096247D02*
X136309523Y-21334342D01*
X136309523Y-21334342D02*
X136261904Y-21429580D01*
X136261904Y-21429580D02*
X136214285Y-21477200D01*
X136214285Y-21477200D02*
X136119047Y-21524819D01*
X136119047Y-21524819D02*
X135833333Y-21524819D01*
X135833333Y-21524819D02*
X135738095Y-21477200D01*
X135738095Y-21477200D02*
X135690476Y-21429580D01*
X136880952Y-20953390D02*
X136785714Y-20905771D01*
X136785714Y-20905771D02*
X136738095Y-20858152D01*
X136738095Y-20858152D02*
X136690476Y-20762914D01*
X136690476Y-20762914D02*
X136690476Y-20715295D01*
X136690476Y-20715295D02*
X136738095Y-20620057D01*
X136738095Y-20620057D02*
X136785714Y-20572438D01*
X136785714Y-20572438D02*
X136880952Y-20524819D01*
X136880952Y-20524819D02*
X137071428Y-20524819D01*
X137071428Y-20524819D02*
X137166666Y-20572438D01*
X137166666Y-20572438D02*
X137214285Y-20620057D01*
X137214285Y-20620057D02*
X137261904Y-20715295D01*
X137261904Y-20715295D02*
X137261904Y-20762914D01*
X137261904Y-20762914D02*
X137214285Y-20858152D01*
X137214285Y-20858152D02*
X137166666Y-20905771D01*
X137166666Y-20905771D02*
X137071428Y-20953390D01*
X137071428Y-20953390D02*
X136880952Y-20953390D01*
X136880952Y-20953390D02*
X136785714Y-21001009D01*
X136785714Y-21001009D02*
X136738095Y-21048628D01*
X136738095Y-21048628D02*
X136690476Y-21143866D01*
X136690476Y-21143866D02*
X136690476Y-21334342D01*
X136690476Y-21334342D02*
X136738095Y-21429580D01*
X136738095Y-21429580D02*
X136785714Y-21477200D01*
X136785714Y-21477200D02*
X136880952Y-21524819D01*
X136880952Y-21524819D02*
X137071428Y-21524819D01*
X137071428Y-21524819D02*
X137166666Y-21477200D01*
X137166666Y-21477200D02*
X137214285Y-21429580D01*
X137214285Y-21429580D02*
X137261904Y-21334342D01*
X137261904Y-21334342D02*
X137261904Y-21143866D01*
X137261904Y-21143866D02*
X137214285Y-21048628D01*
X137214285Y-21048628D02*
X137166666Y-21001009D01*
X137166666Y-21001009D02*
X137071428Y-20953390D01*
X125833333Y-70679580D02*
X125785714Y-70727200D01*
X125785714Y-70727200D02*
X125642857Y-70774819D01*
X125642857Y-70774819D02*
X125547619Y-70774819D01*
X125547619Y-70774819D02*
X125404762Y-70727200D01*
X125404762Y-70727200D02*
X125309524Y-70631961D01*
X125309524Y-70631961D02*
X125261905Y-70536723D01*
X125261905Y-70536723D02*
X125214286Y-70346247D01*
X125214286Y-70346247D02*
X125214286Y-70203390D01*
X125214286Y-70203390D02*
X125261905Y-70012914D01*
X125261905Y-70012914D02*
X125309524Y-69917676D01*
X125309524Y-69917676D02*
X125404762Y-69822438D01*
X125404762Y-69822438D02*
X125547619Y-69774819D01*
X125547619Y-69774819D02*
X125642857Y-69774819D01*
X125642857Y-69774819D02*
X125785714Y-69822438D01*
X125785714Y-69822438D02*
X125833333Y-69870057D01*
X126404762Y-70203390D02*
X126309524Y-70155771D01*
X126309524Y-70155771D02*
X126261905Y-70108152D01*
X126261905Y-70108152D02*
X126214286Y-70012914D01*
X126214286Y-70012914D02*
X126214286Y-69965295D01*
X126214286Y-69965295D02*
X126261905Y-69870057D01*
X126261905Y-69870057D02*
X126309524Y-69822438D01*
X126309524Y-69822438D02*
X126404762Y-69774819D01*
X126404762Y-69774819D02*
X126595238Y-69774819D01*
X126595238Y-69774819D02*
X126690476Y-69822438D01*
X126690476Y-69822438D02*
X126738095Y-69870057D01*
X126738095Y-69870057D02*
X126785714Y-69965295D01*
X126785714Y-69965295D02*
X126785714Y-70012914D01*
X126785714Y-70012914D02*
X126738095Y-70108152D01*
X126738095Y-70108152D02*
X126690476Y-70155771D01*
X126690476Y-70155771D02*
X126595238Y-70203390D01*
X126595238Y-70203390D02*
X126404762Y-70203390D01*
X126404762Y-70203390D02*
X126309524Y-70251009D01*
X126309524Y-70251009D02*
X126261905Y-70298628D01*
X126261905Y-70298628D02*
X126214286Y-70393866D01*
X126214286Y-70393866D02*
X126214286Y-70584342D01*
X126214286Y-70584342D02*
X126261905Y-70679580D01*
X126261905Y-70679580D02*
X126309524Y-70727200D01*
X126309524Y-70727200D02*
X126404762Y-70774819D01*
X126404762Y-70774819D02*
X126595238Y-70774819D01*
X126595238Y-70774819D02*
X126690476Y-70727200D01*
X126690476Y-70727200D02*
X126738095Y-70679580D01*
X126738095Y-70679580D02*
X126785714Y-70584342D01*
X126785714Y-70584342D02*
X126785714Y-70393866D01*
X126785714Y-70393866D02*
X126738095Y-70298628D01*
X126738095Y-70298628D02*
X126690476Y-70251009D01*
X126690476Y-70251009D02*
X126595238Y-70203390D01*
X39857142Y-14784819D02*
X39523809Y-14308628D01*
X39285714Y-14784819D02*
X39285714Y-13784819D01*
X39285714Y-13784819D02*
X39666666Y-13784819D01*
X39666666Y-13784819D02*
X39761904Y-13832438D01*
X39761904Y-13832438D02*
X39809523Y-13880057D01*
X39809523Y-13880057D02*
X39857142Y-13975295D01*
X39857142Y-13975295D02*
X39857142Y-14118152D01*
X39857142Y-14118152D02*
X39809523Y-14213390D01*
X39809523Y-14213390D02*
X39761904Y-14261009D01*
X39761904Y-14261009D02*
X39666666Y-14308628D01*
X39666666Y-14308628D02*
X39285714Y-14308628D01*
X40809523Y-14784819D02*
X40238095Y-14784819D01*
X40523809Y-14784819D02*
X40523809Y-13784819D01*
X40523809Y-13784819D02*
X40428571Y-13927676D01*
X40428571Y-13927676D02*
X40333333Y-14022914D01*
X40333333Y-14022914D02*
X40238095Y-14070533D01*
X41761904Y-14784819D02*
X41190476Y-14784819D01*
X41476190Y-14784819D02*
X41476190Y-13784819D01*
X41476190Y-13784819D02*
X41380952Y-13927676D01*
X41380952Y-13927676D02*
X41285714Y-14022914D01*
X41285714Y-14022914D02*
X41190476Y-14070533D01*
X148857142Y-17679580D02*
X148809523Y-17727200D01*
X148809523Y-17727200D02*
X148666666Y-17774819D01*
X148666666Y-17774819D02*
X148571428Y-17774819D01*
X148571428Y-17774819D02*
X148428571Y-17727200D01*
X148428571Y-17727200D02*
X148333333Y-17631961D01*
X148333333Y-17631961D02*
X148285714Y-17536723D01*
X148285714Y-17536723D02*
X148238095Y-17346247D01*
X148238095Y-17346247D02*
X148238095Y-17203390D01*
X148238095Y-17203390D02*
X148285714Y-17012914D01*
X148285714Y-17012914D02*
X148333333Y-16917676D01*
X148333333Y-16917676D02*
X148428571Y-16822438D01*
X148428571Y-16822438D02*
X148571428Y-16774819D01*
X148571428Y-16774819D02*
X148666666Y-16774819D01*
X148666666Y-16774819D02*
X148809523Y-16822438D01*
X148809523Y-16822438D02*
X148857142Y-16870057D01*
X149238095Y-16870057D02*
X149285714Y-16822438D01*
X149285714Y-16822438D02*
X149380952Y-16774819D01*
X149380952Y-16774819D02*
X149619047Y-16774819D01*
X149619047Y-16774819D02*
X149714285Y-16822438D01*
X149714285Y-16822438D02*
X149761904Y-16870057D01*
X149761904Y-16870057D02*
X149809523Y-16965295D01*
X149809523Y-16965295D02*
X149809523Y-17060533D01*
X149809523Y-17060533D02*
X149761904Y-17203390D01*
X149761904Y-17203390D02*
X149190476Y-17774819D01*
X149190476Y-17774819D02*
X149809523Y-17774819D01*
X150142857Y-16774819D02*
X150761904Y-16774819D01*
X150761904Y-16774819D02*
X150428571Y-17155771D01*
X150428571Y-17155771D02*
X150571428Y-17155771D01*
X150571428Y-17155771D02*
X150666666Y-17203390D01*
X150666666Y-17203390D02*
X150714285Y-17251009D01*
X150714285Y-17251009D02*
X150761904Y-17346247D01*
X150761904Y-17346247D02*
X150761904Y-17584342D01*
X150761904Y-17584342D02*
X150714285Y-17679580D01*
X150714285Y-17679580D02*
X150666666Y-17727200D01*
X150666666Y-17727200D02*
X150571428Y-17774819D01*
X150571428Y-17774819D02*
X150285714Y-17774819D01*
X150285714Y-17774819D02*
X150190476Y-17727200D01*
X150190476Y-17727200D02*
X150142857Y-17679580D01*
X99857142Y-47679580D02*
X99809523Y-47727200D01*
X99809523Y-47727200D02*
X99666666Y-47774819D01*
X99666666Y-47774819D02*
X99571428Y-47774819D01*
X99571428Y-47774819D02*
X99428571Y-47727200D01*
X99428571Y-47727200D02*
X99333333Y-47631961D01*
X99333333Y-47631961D02*
X99285714Y-47536723D01*
X99285714Y-47536723D02*
X99238095Y-47346247D01*
X99238095Y-47346247D02*
X99238095Y-47203390D01*
X99238095Y-47203390D02*
X99285714Y-47012914D01*
X99285714Y-47012914D02*
X99333333Y-46917676D01*
X99333333Y-46917676D02*
X99428571Y-46822438D01*
X99428571Y-46822438D02*
X99571428Y-46774819D01*
X99571428Y-46774819D02*
X99666666Y-46774819D01*
X99666666Y-46774819D02*
X99809523Y-46822438D01*
X99809523Y-46822438D02*
X99857142Y-46870057D01*
X100809523Y-47774819D02*
X100238095Y-47774819D01*
X100523809Y-47774819D02*
X100523809Y-46774819D01*
X100523809Y-46774819D02*
X100428571Y-46917676D01*
X100428571Y-46917676D02*
X100333333Y-47012914D01*
X100333333Y-47012914D02*
X100238095Y-47060533D01*
X101666666Y-46774819D02*
X101476190Y-46774819D01*
X101476190Y-46774819D02*
X101380952Y-46822438D01*
X101380952Y-46822438D02*
X101333333Y-46870057D01*
X101333333Y-46870057D02*
X101238095Y-47012914D01*
X101238095Y-47012914D02*
X101190476Y-47203390D01*
X101190476Y-47203390D02*
X101190476Y-47584342D01*
X101190476Y-47584342D02*
X101238095Y-47679580D01*
X101238095Y-47679580D02*
X101285714Y-47727200D01*
X101285714Y-47727200D02*
X101380952Y-47774819D01*
X101380952Y-47774819D02*
X101571428Y-47774819D01*
X101571428Y-47774819D02*
X101666666Y-47727200D01*
X101666666Y-47727200D02*
X101714285Y-47679580D01*
X101714285Y-47679580D02*
X101761904Y-47584342D01*
X101761904Y-47584342D02*
X101761904Y-47346247D01*
X101761904Y-47346247D02*
X101714285Y-47251009D01*
X101714285Y-47251009D02*
X101666666Y-47203390D01*
X101666666Y-47203390D02*
X101571428Y-47155771D01*
X101571428Y-47155771D02*
X101380952Y-47155771D01*
X101380952Y-47155771D02*
X101285714Y-47203390D01*
X101285714Y-47203390D02*
X101238095Y-47251009D01*
X101238095Y-47251009D02*
X101190476Y-47346247D01*
X104238095Y-18154819D02*
X104238095Y-18964342D01*
X104238095Y-18964342D02*
X104285714Y-19059580D01*
X104285714Y-19059580D02*
X104333333Y-19107200D01*
X104333333Y-19107200D02*
X104428571Y-19154819D01*
X104428571Y-19154819D02*
X104619047Y-19154819D01*
X104619047Y-19154819D02*
X104714285Y-19107200D01*
X104714285Y-19107200D02*
X104761904Y-19059580D01*
X104761904Y-19059580D02*
X104809523Y-18964342D01*
X104809523Y-18964342D02*
X104809523Y-18154819D01*
X105809523Y-19154819D02*
X105238095Y-19154819D01*
X105523809Y-19154819D02*
X105523809Y-18154819D01*
X105523809Y-18154819D02*
X105428571Y-18297676D01*
X105428571Y-18297676D02*
X105333333Y-18392914D01*
X105333333Y-18392914D02*
X105238095Y-18440533D01*
X138857142Y-53784819D02*
X138523809Y-53308628D01*
X138285714Y-53784819D02*
X138285714Y-52784819D01*
X138285714Y-52784819D02*
X138666666Y-52784819D01*
X138666666Y-52784819D02*
X138761904Y-52832438D01*
X138761904Y-52832438D02*
X138809523Y-52880057D01*
X138809523Y-52880057D02*
X138857142Y-52975295D01*
X138857142Y-52975295D02*
X138857142Y-53118152D01*
X138857142Y-53118152D02*
X138809523Y-53213390D01*
X138809523Y-53213390D02*
X138761904Y-53261009D01*
X138761904Y-53261009D02*
X138666666Y-53308628D01*
X138666666Y-53308628D02*
X138285714Y-53308628D01*
X139809523Y-53784819D02*
X139238095Y-53784819D01*
X139523809Y-53784819D02*
X139523809Y-52784819D01*
X139523809Y-52784819D02*
X139428571Y-52927676D01*
X139428571Y-52927676D02*
X139333333Y-53022914D01*
X139333333Y-53022914D02*
X139238095Y-53070533D01*
X140142857Y-52784819D02*
X140761904Y-52784819D01*
X140761904Y-52784819D02*
X140428571Y-53165771D01*
X140428571Y-53165771D02*
X140571428Y-53165771D01*
X140571428Y-53165771D02*
X140666666Y-53213390D01*
X140666666Y-53213390D02*
X140714285Y-53261009D01*
X140714285Y-53261009D02*
X140761904Y-53356247D01*
X140761904Y-53356247D02*
X140761904Y-53594342D01*
X140761904Y-53594342D02*
X140714285Y-53689580D01*
X140714285Y-53689580D02*
X140666666Y-53737200D01*
X140666666Y-53737200D02*
X140571428Y-53784819D01*
X140571428Y-53784819D02*
X140285714Y-53784819D01*
X140285714Y-53784819D02*
X140190476Y-53737200D01*
X140190476Y-53737200D02*
X140142857Y-53689580D01*
X99857142Y-73929580D02*
X99809523Y-73977200D01*
X99809523Y-73977200D02*
X99666666Y-74024819D01*
X99666666Y-74024819D02*
X99571428Y-74024819D01*
X99571428Y-74024819D02*
X99428571Y-73977200D01*
X99428571Y-73977200D02*
X99333333Y-73881961D01*
X99333333Y-73881961D02*
X99285714Y-73786723D01*
X99285714Y-73786723D02*
X99238095Y-73596247D01*
X99238095Y-73596247D02*
X99238095Y-73453390D01*
X99238095Y-73453390D02*
X99285714Y-73262914D01*
X99285714Y-73262914D02*
X99333333Y-73167676D01*
X99333333Y-73167676D02*
X99428571Y-73072438D01*
X99428571Y-73072438D02*
X99571428Y-73024819D01*
X99571428Y-73024819D02*
X99666666Y-73024819D01*
X99666666Y-73024819D02*
X99809523Y-73072438D01*
X99809523Y-73072438D02*
X99857142Y-73120057D01*
X100761904Y-73024819D02*
X100285714Y-73024819D01*
X100285714Y-73024819D02*
X100238095Y-73501009D01*
X100238095Y-73501009D02*
X100285714Y-73453390D01*
X100285714Y-73453390D02*
X100380952Y-73405771D01*
X100380952Y-73405771D02*
X100619047Y-73405771D01*
X100619047Y-73405771D02*
X100714285Y-73453390D01*
X100714285Y-73453390D02*
X100761904Y-73501009D01*
X100761904Y-73501009D02*
X100809523Y-73596247D01*
X100809523Y-73596247D02*
X100809523Y-73834342D01*
X100809523Y-73834342D02*
X100761904Y-73929580D01*
X100761904Y-73929580D02*
X100714285Y-73977200D01*
X100714285Y-73977200D02*
X100619047Y-74024819D01*
X100619047Y-74024819D02*
X100380952Y-74024819D01*
X100380952Y-74024819D02*
X100285714Y-73977200D01*
X100285714Y-73977200D02*
X100238095Y-73929580D01*
X101428571Y-73024819D02*
X101523809Y-73024819D01*
X101523809Y-73024819D02*
X101619047Y-73072438D01*
X101619047Y-73072438D02*
X101666666Y-73120057D01*
X101666666Y-73120057D02*
X101714285Y-73215295D01*
X101714285Y-73215295D02*
X101761904Y-73405771D01*
X101761904Y-73405771D02*
X101761904Y-73643866D01*
X101761904Y-73643866D02*
X101714285Y-73834342D01*
X101714285Y-73834342D02*
X101666666Y-73929580D01*
X101666666Y-73929580D02*
X101619047Y-73977200D01*
X101619047Y-73977200D02*
X101523809Y-74024819D01*
X101523809Y-74024819D02*
X101428571Y-74024819D01*
X101428571Y-74024819D02*
X101333333Y-73977200D01*
X101333333Y-73977200D02*
X101285714Y-73929580D01*
X101285714Y-73929580D02*
X101238095Y-73834342D01*
X101238095Y-73834342D02*
X101190476Y-73643866D01*
X101190476Y-73643866D02*
X101190476Y-73405771D01*
X101190476Y-73405771D02*
X101238095Y-73215295D01*
X101238095Y-73215295D02*
X101285714Y-73120057D01*
X101285714Y-73120057D02*
X101333333Y-73072438D01*
X101333333Y-73072438D02*
X101428571Y-73024819D01*
X60357142Y-12199580D02*
X60309523Y-12247200D01*
X60309523Y-12247200D02*
X60166666Y-12294819D01*
X60166666Y-12294819D02*
X60071428Y-12294819D01*
X60071428Y-12294819D02*
X59928571Y-12247200D01*
X59928571Y-12247200D02*
X59833333Y-12151961D01*
X59833333Y-12151961D02*
X59785714Y-12056723D01*
X59785714Y-12056723D02*
X59738095Y-11866247D01*
X59738095Y-11866247D02*
X59738095Y-11723390D01*
X59738095Y-11723390D02*
X59785714Y-11532914D01*
X59785714Y-11532914D02*
X59833333Y-11437676D01*
X59833333Y-11437676D02*
X59928571Y-11342438D01*
X59928571Y-11342438D02*
X60071428Y-11294819D01*
X60071428Y-11294819D02*
X60166666Y-11294819D01*
X60166666Y-11294819D02*
X60309523Y-11342438D01*
X60309523Y-11342438D02*
X60357142Y-11390057D01*
X60738095Y-11390057D02*
X60785714Y-11342438D01*
X60785714Y-11342438D02*
X60880952Y-11294819D01*
X60880952Y-11294819D02*
X61119047Y-11294819D01*
X61119047Y-11294819D02*
X61214285Y-11342438D01*
X61214285Y-11342438D02*
X61261904Y-11390057D01*
X61261904Y-11390057D02*
X61309523Y-11485295D01*
X61309523Y-11485295D02*
X61309523Y-11580533D01*
X61309523Y-11580533D02*
X61261904Y-11723390D01*
X61261904Y-11723390D02*
X60690476Y-12294819D01*
X60690476Y-12294819D02*
X61309523Y-12294819D01*
X62166666Y-11294819D02*
X61976190Y-11294819D01*
X61976190Y-11294819D02*
X61880952Y-11342438D01*
X61880952Y-11342438D02*
X61833333Y-11390057D01*
X61833333Y-11390057D02*
X61738095Y-11532914D01*
X61738095Y-11532914D02*
X61690476Y-11723390D01*
X61690476Y-11723390D02*
X61690476Y-12104342D01*
X61690476Y-12104342D02*
X61738095Y-12199580D01*
X61738095Y-12199580D02*
X61785714Y-12247200D01*
X61785714Y-12247200D02*
X61880952Y-12294819D01*
X61880952Y-12294819D02*
X62071428Y-12294819D01*
X62071428Y-12294819D02*
X62166666Y-12247200D01*
X62166666Y-12247200D02*
X62214285Y-12199580D01*
X62214285Y-12199580D02*
X62261904Y-12104342D01*
X62261904Y-12104342D02*
X62261904Y-11866247D01*
X62261904Y-11866247D02*
X62214285Y-11771009D01*
X62214285Y-11771009D02*
X62166666Y-11723390D01*
X62166666Y-11723390D02*
X62071428Y-11675771D01*
X62071428Y-11675771D02*
X61880952Y-11675771D01*
X61880952Y-11675771D02*
X61785714Y-11723390D01*
X61785714Y-11723390D02*
X61738095Y-11771009D01*
X61738095Y-11771009D02*
X61690476Y-11866247D01*
X164190476Y-71124819D02*
X164190476Y-71839104D01*
X164190476Y-71839104D02*
X164142857Y-71981961D01*
X164142857Y-71981961D02*
X164047619Y-72077200D01*
X164047619Y-72077200D02*
X163904762Y-72124819D01*
X163904762Y-72124819D02*
X163809524Y-72124819D01*
X165190476Y-72124819D02*
X164619048Y-72124819D01*
X164904762Y-72124819D02*
X164904762Y-71124819D01*
X164904762Y-71124819D02*
X164809524Y-71267676D01*
X164809524Y-71267676D02*
X164714286Y-71362914D01*
X164714286Y-71362914D02*
X164619048Y-71410533D01*
X165523810Y-71124819D02*
X166142857Y-71124819D01*
X166142857Y-71124819D02*
X165809524Y-71505771D01*
X165809524Y-71505771D02*
X165952381Y-71505771D01*
X165952381Y-71505771D02*
X166047619Y-71553390D01*
X166047619Y-71553390D02*
X166095238Y-71601009D01*
X166095238Y-71601009D02*
X166142857Y-71696247D01*
X166142857Y-71696247D02*
X166142857Y-71934342D01*
X166142857Y-71934342D02*
X166095238Y-72029580D01*
X166095238Y-72029580D02*
X166047619Y-72077200D01*
X166047619Y-72077200D02*
X165952381Y-72124819D01*
X165952381Y-72124819D02*
X165666667Y-72124819D01*
X165666667Y-72124819D02*
X165571429Y-72077200D01*
X165571429Y-72077200D02*
X165523810Y-72029580D01*
X99857142Y-51179580D02*
X99809523Y-51227200D01*
X99809523Y-51227200D02*
X99666666Y-51274819D01*
X99666666Y-51274819D02*
X99571428Y-51274819D01*
X99571428Y-51274819D02*
X99428571Y-51227200D01*
X99428571Y-51227200D02*
X99333333Y-51131961D01*
X99333333Y-51131961D02*
X99285714Y-51036723D01*
X99285714Y-51036723D02*
X99238095Y-50846247D01*
X99238095Y-50846247D02*
X99238095Y-50703390D01*
X99238095Y-50703390D02*
X99285714Y-50512914D01*
X99285714Y-50512914D02*
X99333333Y-50417676D01*
X99333333Y-50417676D02*
X99428571Y-50322438D01*
X99428571Y-50322438D02*
X99571428Y-50274819D01*
X99571428Y-50274819D02*
X99666666Y-50274819D01*
X99666666Y-50274819D02*
X99809523Y-50322438D01*
X99809523Y-50322438D02*
X99857142Y-50370057D01*
X100238095Y-50370057D02*
X100285714Y-50322438D01*
X100285714Y-50322438D02*
X100380952Y-50274819D01*
X100380952Y-50274819D02*
X100619047Y-50274819D01*
X100619047Y-50274819D02*
X100714285Y-50322438D01*
X100714285Y-50322438D02*
X100761904Y-50370057D01*
X100761904Y-50370057D02*
X100809523Y-50465295D01*
X100809523Y-50465295D02*
X100809523Y-50560533D01*
X100809523Y-50560533D02*
X100761904Y-50703390D01*
X100761904Y-50703390D02*
X100190476Y-51274819D01*
X100190476Y-51274819D02*
X100809523Y-51274819D01*
X101142857Y-50274819D02*
X101809523Y-50274819D01*
X101809523Y-50274819D02*
X101380952Y-51274819D01*
X110357142Y-21429580D02*
X110309523Y-21477200D01*
X110309523Y-21477200D02*
X110166666Y-21524819D01*
X110166666Y-21524819D02*
X110071428Y-21524819D01*
X110071428Y-21524819D02*
X109928571Y-21477200D01*
X109928571Y-21477200D02*
X109833333Y-21381961D01*
X109833333Y-21381961D02*
X109785714Y-21286723D01*
X109785714Y-21286723D02*
X109738095Y-21096247D01*
X109738095Y-21096247D02*
X109738095Y-20953390D01*
X109738095Y-20953390D02*
X109785714Y-20762914D01*
X109785714Y-20762914D02*
X109833333Y-20667676D01*
X109833333Y-20667676D02*
X109928571Y-20572438D01*
X109928571Y-20572438D02*
X110071428Y-20524819D01*
X110071428Y-20524819D02*
X110166666Y-20524819D01*
X110166666Y-20524819D02*
X110309523Y-20572438D01*
X110309523Y-20572438D02*
X110357142Y-20620057D01*
X110738095Y-20620057D02*
X110785714Y-20572438D01*
X110785714Y-20572438D02*
X110880952Y-20524819D01*
X110880952Y-20524819D02*
X111119047Y-20524819D01*
X111119047Y-20524819D02*
X111214285Y-20572438D01*
X111214285Y-20572438D02*
X111261904Y-20620057D01*
X111261904Y-20620057D02*
X111309523Y-20715295D01*
X111309523Y-20715295D02*
X111309523Y-20810533D01*
X111309523Y-20810533D02*
X111261904Y-20953390D01*
X111261904Y-20953390D02*
X110690476Y-21524819D01*
X110690476Y-21524819D02*
X111309523Y-21524819D01*
X111880952Y-20953390D02*
X111785714Y-20905771D01*
X111785714Y-20905771D02*
X111738095Y-20858152D01*
X111738095Y-20858152D02*
X111690476Y-20762914D01*
X111690476Y-20762914D02*
X111690476Y-20715295D01*
X111690476Y-20715295D02*
X111738095Y-20620057D01*
X111738095Y-20620057D02*
X111785714Y-20572438D01*
X111785714Y-20572438D02*
X111880952Y-20524819D01*
X111880952Y-20524819D02*
X112071428Y-20524819D01*
X112071428Y-20524819D02*
X112166666Y-20572438D01*
X112166666Y-20572438D02*
X112214285Y-20620057D01*
X112214285Y-20620057D02*
X112261904Y-20715295D01*
X112261904Y-20715295D02*
X112261904Y-20762914D01*
X112261904Y-20762914D02*
X112214285Y-20858152D01*
X112214285Y-20858152D02*
X112166666Y-20905771D01*
X112166666Y-20905771D02*
X112071428Y-20953390D01*
X112071428Y-20953390D02*
X111880952Y-20953390D01*
X111880952Y-20953390D02*
X111785714Y-21001009D01*
X111785714Y-21001009D02*
X111738095Y-21048628D01*
X111738095Y-21048628D02*
X111690476Y-21143866D01*
X111690476Y-21143866D02*
X111690476Y-21334342D01*
X111690476Y-21334342D02*
X111738095Y-21429580D01*
X111738095Y-21429580D02*
X111785714Y-21477200D01*
X111785714Y-21477200D02*
X111880952Y-21524819D01*
X111880952Y-21524819D02*
X112071428Y-21524819D01*
X112071428Y-21524819D02*
X112166666Y-21477200D01*
X112166666Y-21477200D02*
X112214285Y-21429580D01*
X112214285Y-21429580D02*
X112261904Y-21334342D01*
X112261904Y-21334342D02*
X112261904Y-21143866D01*
X112261904Y-21143866D02*
X112214285Y-21048628D01*
X112214285Y-21048628D02*
X112166666Y-21001009D01*
X112166666Y-21001009D02*
X112071428Y-20953390D01*
X154857142Y-25784819D02*
X154523809Y-25308628D01*
X154285714Y-25784819D02*
X154285714Y-24784819D01*
X154285714Y-24784819D02*
X154666666Y-24784819D01*
X154666666Y-24784819D02*
X154761904Y-24832438D01*
X154761904Y-24832438D02*
X154809523Y-24880057D01*
X154809523Y-24880057D02*
X154857142Y-24975295D01*
X154857142Y-24975295D02*
X154857142Y-25118152D01*
X154857142Y-25118152D02*
X154809523Y-25213390D01*
X154809523Y-25213390D02*
X154761904Y-25261009D01*
X154761904Y-25261009D02*
X154666666Y-25308628D01*
X154666666Y-25308628D02*
X154285714Y-25308628D01*
X155809523Y-25784819D02*
X155238095Y-25784819D01*
X155523809Y-25784819D02*
X155523809Y-24784819D01*
X155523809Y-24784819D02*
X155428571Y-24927676D01*
X155428571Y-24927676D02*
X155333333Y-25022914D01*
X155333333Y-25022914D02*
X155238095Y-25070533D01*
X156380952Y-25213390D02*
X156285714Y-25165771D01*
X156285714Y-25165771D02*
X156238095Y-25118152D01*
X156238095Y-25118152D02*
X156190476Y-25022914D01*
X156190476Y-25022914D02*
X156190476Y-24975295D01*
X156190476Y-24975295D02*
X156238095Y-24880057D01*
X156238095Y-24880057D02*
X156285714Y-24832438D01*
X156285714Y-24832438D02*
X156380952Y-24784819D01*
X156380952Y-24784819D02*
X156571428Y-24784819D01*
X156571428Y-24784819D02*
X156666666Y-24832438D01*
X156666666Y-24832438D02*
X156714285Y-24880057D01*
X156714285Y-24880057D02*
X156761904Y-24975295D01*
X156761904Y-24975295D02*
X156761904Y-25022914D01*
X156761904Y-25022914D02*
X156714285Y-25118152D01*
X156714285Y-25118152D02*
X156666666Y-25165771D01*
X156666666Y-25165771D02*
X156571428Y-25213390D01*
X156571428Y-25213390D02*
X156380952Y-25213390D01*
X156380952Y-25213390D02*
X156285714Y-25261009D01*
X156285714Y-25261009D02*
X156238095Y-25308628D01*
X156238095Y-25308628D02*
X156190476Y-25403866D01*
X156190476Y-25403866D02*
X156190476Y-25594342D01*
X156190476Y-25594342D02*
X156238095Y-25689580D01*
X156238095Y-25689580D02*
X156285714Y-25737200D01*
X156285714Y-25737200D02*
X156380952Y-25784819D01*
X156380952Y-25784819D02*
X156571428Y-25784819D01*
X156571428Y-25784819D02*
X156666666Y-25737200D01*
X156666666Y-25737200D02*
X156714285Y-25689580D01*
X156714285Y-25689580D02*
X156761904Y-25594342D01*
X156761904Y-25594342D02*
X156761904Y-25403866D01*
X156761904Y-25403866D02*
X156714285Y-25308628D01*
X156714285Y-25308628D02*
X156666666Y-25261009D01*
X156666666Y-25261009D02*
X156571428Y-25213390D01*
X34190476Y-51124819D02*
X34190476Y-51839104D01*
X34190476Y-51839104D02*
X34142857Y-51981961D01*
X34142857Y-51981961D02*
X34047619Y-52077200D01*
X34047619Y-52077200D02*
X33904762Y-52124819D01*
X33904762Y-52124819D02*
X33809524Y-52124819D01*
X35190476Y-52124819D02*
X34619048Y-52124819D01*
X34904762Y-52124819D02*
X34904762Y-51124819D01*
X34904762Y-51124819D02*
X34809524Y-51267676D01*
X34809524Y-51267676D02*
X34714286Y-51362914D01*
X34714286Y-51362914D02*
X34619048Y-51410533D01*
X36095238Y-51124819D02*
X35619048Y-51124819D01*
X35619048Y-51124819D02*
X35571429Y-51601009D01*
X35571429Y-51601009D02*
X35619048Y-51553390D01*
X35619048Y-51553390D02*
X35714286Y-51505771D01*
X35714286Y-51505771D02*
X35952381Y-51505771D01*
X35952381Y-51505771D02*
X36047619Y-51553390D01*
X36047619Y-51553390D02*
X36095238Y-51601009D01*
X36095238Y-51601009D02*
X36142857Y-51696247D01*
X36142857Y-51696247D02*
X36142857Y-51934342D01*
X36142857Y-51934342D02*
X36095238Y-52029580D01*
X36095238Y-52029580D02*
X36047619Y-52077200D01*
X36047619Y-52077200D02*
X35952381Y-52124819D01*
X35952381Y-52124819D02*
X35714286Y-52124819D01*
X35714286Y-52124819D02*
X35619048Y-52077200D01*
X35619048Y-52077200D02*
X35571429Y-52029580D01*
X89238095Y-48154819D02*
X89238095Y-48964342D01*
X89238095Y-48964342D02*
X89285714Y-49059580D01*
X89285714Y-49059580D02*
X89333333Y-49107200D01*
X89333333Y-49107200D02*
X89428571Y-49154819D01*
X89428571Y-49154819D02*
X89619047Y-49154819D01*
X89619047Y-49154819D02*
X89714285Y-49107200D01*
X89714285Y-49107200D02*
X89761904Y-49059580D01*
X89761904Y-49059580D02*
X89809523Y-48964342D01*
X89809523Y-48964342D02*
X89809523Y-48154819D01*
X90761904Y-48154819D02*
X90285714Y-48154819D01*
X90285714Y-48154819D02*
X90238095Y-48631009D01*
X90238095Y-48631009D02*
X90285714Y-48583390D01*
X90285714Y-48583390D02*
X90380952Y-48535771D01*
X90380952Y-48535771D02*
X90619047Y-48535771D01*
X90619047Y-48535771D02*
X90714285Y-48583390D01*
X90714285Y-48583390D02*
X90761904Y-48631009D01*
X90761904Y-48631009D02*
X90809523Y-48726247D01*
X90809523Y-48726247D02*
X90809523Y-48964342D01*
X90809523Y-48964342D02*
X90761904Y-49059580D01*
X90761904Y-49059580D02*
X90714285Y-49107200D01*
X90714285Y-49107200D02*
X90619047Y-49154819D01*
X90619047Y-49154819D02*
X90380952Y-49154819D01*
X90380952Y-49154819D02*
X90285714Y-49107200D01*
X90285714Y-49107200D02*
X90238095Y-49059580D01*
X119357142Y-21699580D02*
X119309523Y-21747200D01*
X119309523Y-21747200D02*
X119166666Y-21794819D01*
X119166666Y-21794819D02*
X119071428Y-21794819D01*
X119071428Y-21794819D02*
X118928571Y-21747200D01*
X118928571Y-21747200D02*
X118833333Y-21651961D01*
X118833333Y-21651961D02*
X118785714Y-21556723D01*
X118785714Y-21556723D02*
X118738095Y-21366247D01*
X118738095Y-21366247D02*
X118738095Y-21223390D01*
X118738095Y-21223390D02*
X118785714Y-21032914D01*
X118785714Y-21032914D02*
X118833333Y-20937676D01*
X118833333Y-20937676D02*
X118928571Y-20842438D01*
X118928571Y-20842438D02*
X119071428Y-20794819D01*
X119071428Y-20794819D02*
X119166666Y-20794819D01*
X119166666Y-20794819D02*
X119309523Y-20842438D01*
X119309523Y-20842438D02*
X119357142Y-20890057D01*
X119690476Y-20794819D02*
X120309523Y-20794819D01*
X120309523Y-20794819D02*
X119976190Y-21175771D01*
X119976190Y-21175771D02*
X120119047Y-21175771D01*
X120119047Y-21175771D02*
X120214285Y-21223390D01*
X120214285Y-21223390D02*
X120261904Y-21271009D01*
X120261904Y-21271009D02*
X120309523Y-21366247D01*
X120309523Y-21366247D02*
X120309523Y-21604342D01*
X120309523Y-21604342D02*
X120261904Y-21699580D01*
X120261904Y-21699580D02*
X120214285Y-21747200D01*
X120214285Y-21747200D02*
X120119047Y-21794819D01*
X120119047Y-21794819D02*
X119833333Y-21794819D01*
X119833333Y-21794819D02*
X119738095Y-21747200D01*
X119738095Y-21747200D02*
X119690476Y-21699580D01*
X120642857Y-20794819D02*
X121309523Y-20794819D01*
X121309523Y-20794819D02*
X120880952Y-21794819D01*
X119357142Y-17679580D02*
X119309523Y-17727200D01*
X119309523Y-17727200D02*
X119166666Y-17774819D01*
X119166666Y-17774819D02*
X119071428Y-17774819D01*
X119071428Y-17774819D02*
X118928571Y-17727200D01*
X118928571Y-17727200D02*
X118833333Y-17631961D01*
X118833333Y-17631961D02*
X118785714Y-17536723D01*
X118785714Y-17536723D02*
X118738095Y-17346247D01*
X118738095Y-17346247D02*
X118738095Y-17203390D01*
X118738095Y-17203390D02*
X118785714Y-17012914D01*
X118785714Y-17012914D02*
X118833333Y-16917676D01*
X118833333Y-16917676D02*
X118928571Y-16822438D01*
X118928571Y-16822438D02*
X119071428Y-16774819D01*
X119071428Y-16774819D02*
X119166666Y-16774819D01*
X119166666Y-16774819D02*
X119309523Y-16822438D01*
X119309523Y-16822438D02*
X119357142Y-16870057D01*
X120309523Y-17774819D02*
X119738095Y-17774819D01*
X120023809Y-17774819D02*
X120023809Y-16774819D01*
X120023809Y-16774819D02*
X119928571Y-16917676D01*
X119928571Y-16917676D02*
X119833333Y-17012914D01*
X119833333Y-17012914D02*
X119738095Y-17060533D01*
X121261904Y-17774819D02*
X120690476Y-17774819D01*
X120976190Y-17774819D02*
X120976190Y-16774819D01*
X120976190Y-16774819D02*
X120880952Y-16917676D01*
X120880952Y-16917676D02*
X120785714Y-17012914D01*
X120785714Y-17012914D02*
X120690476Y-17060533D01*
X153357142Y-18199580D02*
X153309523Y-18247200D01*
X153309523Y-18247200D02*
X153166666Y-18294819D01*
X153166666Y-18294819D02*
X153071428Y-18294819D01*
X153071428Y-18294819D02*
X152928571Y-18247200D01*
X152928571Y-18247200D02*
X152833333Y-18151961D01*
X152833333Y-18151961D02*
X152785714Y-18056723D01*
X152785714Y-18056723D02*
X152738095Y-17866247D01*
X152738095Y-17866247D02*
X152738095Y-17723390D01*
X152738095Y-17723390D02*
X152785714Y-17532914D01*
X152785714Y-17532914D02*
X152833333Y-17437676D01*
X152833333Y-17437676D02*
X152928571Y-17342438D01*
X152928571Y-17342438D02*
X153071428Y-17294819D01*
X153071428Y-17294819D02*
X153166666Y-17294819D01*
X153166666Y-17294819D02*
X153309523Y-17342438D01*
X153309523Y-17342438D02*
X153357142Y-17390057D01*
X153738095Y-17390057D02*
X153785714Y-17342438D01*
X153785714Y-17342438D02*
X153880952Y-17294819D01*
X153880952Y-17294819D02*
X154119047Y-17294819D01*
X154119047Y-17294819D02*
X154214285Y-17342438D01*
X154214285Y-17342438D02*
X154261904Y-17390057D01*
X154261904Y-17390057D02*
X154309523Y-17485295D01*
X154309523Y-17485295D02*
X154309523Y-17580533D01*
X154309523Y-17580533D02*
X154261904Y-17723390D01*
X154261904Y-17723390D02*
X153690476Y-18294819D01*
X153690476Y-18294819D02*
X154309523Y-18294819D01*
X154785714Y-18294819D02*
X154976190Y-18294819D01*
X154976190Y-18294819D02*
X155071428Y-18247200D01*
X155071428Y-18247200D02*
X155119047Y-18199580D01*
X155119047Y-18199580D02*
X155214285Y-18056723D01*
X155214285Y-18056723D02*
X155261904Y-17866247D01*
X155261904Y-17866247D02*
X155261904Y-17485295D01*
X155261904Y-17485295D02*
X155214285Y-17390057D01*
X155214285Y-17390057D02*
X155166666Y-17342438D01*
X155166666Y-17342438D02*
X155071428Y-17294819D01*
X155071428Y-17294819D02*
X154880952Y-17294819D01*
X154880952Y-17294819D02*
X154785714Y-17342438D01*
X154785714Y-17342438D02*
X154738095Y-17390057D01*
X154738095Y-17390057D02*
X154690476Y-17485295D01*
X154690476Y-17485295D02*
X154690476Y-17723390D01*
X154690476Y-17723390D02*
X154738095Y-17818628D01*
X154738095Y-17818628D02*
X154785714Y-17866247D01*
X154785714Y-17866247D02*
X154880952Y-17913866D01*
X154880952Y-17913866D02*
X155071428Y-17913866D01*
X155071428Y-17913866D02*
X155166666Y-17866247D01*
X155166666Y-17866247D02*
X155214285Y-17818628D01*
X155214285Y-17818628D02*
X155261904Y-17723390D01*
X150357142Y-25784819D02*
X150023809Y-25308628D01*
X149785714Y-25784819D02*
X149785714Y-24784819D01*
X149785714Y-24784819D02*
X150166666Y-24784819D01*
X150166666Y-24784819D02*
X150261904Y-24832438D01*
X150261904Y-24832438D02*
X150309523Y-24880057D01*
X150309523Y-24880057D02*
X150357142Y-24975295D01*
X150357142Y-24975295D02*
X150357142Y-25118152D01*
X150357142Y-25118152D02*
X150309523Y-25213390D01*
X150309523Y-25213390D02*
X150261904Y-25261009D01*
X150261904Y-25261009D02*
X150166666Y-25308628D01*
X150166666Y-25308628D02*
X149785714Y-25308628D01*
X150738095Y-24880057D02*
X150785714Y-24832438D01*
X150785714Y-24832438D02*
X150880952Y-24784819D01*
X150880952Y-24784819D02*
X151119047Y-24784819D01*
X151119047Y-24784819D02*
X151214285Y-24832438D01*
X151214285Y-24832438D02*
X151261904Y-24880057D01*
X151261904Y-24880057D02*
X151309523Y-24975295D01*
X151309523Y-24975295D02*
X151309523Y-25070533D01*
X151309523Y-25070533D02*
X151261904Y-25213390D01*
X151261904Y-25213390D02*
X150690476Y-25784819D01*
X150690476Y-25784819D02*
X151309523Y-25784819D01*
X152261904Y-25784819D02*
X151690476Y-25784819D01*
X151976190Y-25784819D02*
X151976190Y-24784819D01*
X151976190Y-24784819D02*
X151880952Y-24927676D01*
X151880952Y-24927676D02*
X151785714Y-25022914D01*
X151785714Y-25022914D02*
X151690476Y-25070533D01*
X144833333Y-17679580D02*
X144785714Y-17727200D01*
X144785714Y-17727200D02*
X144642857Y-17774819D01*
X144642857Y-17774819D02*
X144547619Y-17774819D01*
X144547619Y-17774819D02*
X144404762Y-17727200D01*
X144404762Y-17727200D02*
X144309524Y-17631961D01*
X144309524Y-17631961D02*
X144261905Y-17536723D01*
X144261905Y-17536723D02*
X144214286Y-17346247D01*
X144214286Y-17346247D02*
X144214286Y-17203390D01*
X144214286Y-17203390D02*
X144261905Y-17012914D01*
X144261905Y-17012914D02*
X144309524Y-16917676D01*
X144309524Y-16917676D02*
X144404762Y-16822438D01*
X144404762Y-16822438D02*
X144547619Y-16774819D01*
X144547619Y-16774819D02*
X144642857Y-16774819D01*
X144642857Y-16774819D02*
X144785714Y-16822438D01*
X144785714Y-16822438D02*
X144833333Y-16870057D01*
X145214286Y-16870057D02*
X145261905Y-16822438D01*
X145261905Y-16822438D02*
X145357143Y-16774819D01*
X145357143Y-16774819D02*
X145595238Y-16774819D01*
X145595238Y-16774819D02*
X145690476Y-16822438D01*
X145690476Y-16822438D02*
X145738095Y-16870057D01*
X145738095Y-16870057D02*
X145785714Y-16965295D01*
X145785714Y-16965295D02*
X145785714Y-17060533D01*
X145785714Y-17060533D02*
X145738095Y-17203390D01*
X145738095Y-17203390D02*
X145166667Y-17774819D01*
X145166667Y-17774819D02*
X145785714Y-17774819D01*
X39857142Y-11199580D02*
X39809523Y-11247200D01*
X39809523Y-11247200D02*
X39666666Y-11294819D01*
X39666666Y-11294819D02*
X39571428Y-11294819D01*
X39571428Y-11294819D02*
X39428571Y-11247200D01*
X39428571Y-11247200D02*
X39333333Y-11151961D01*
X39333333Y-11151961D02*
X39285714Y-11056723D01*
X39285714Y-11056723D02*
X39238095Y-10866247D01*
X39238095Y-10866247D02*
X39238095Y-10723390D01*
X39238095Y-10723390D02*
X39285714Y-10532914D01*
X39285714Y-10532914D02*
X39333333Y-10437676D01*
X39333333Y-10437676D02*
X39428571Y-10342438D01*
X39428571Y-10342438D02*
X39571428Y-10294819D01*
X39571428Y-10294819D02*
X39666666Y-10294819D01*
X39666666Y-10294819D02*
X39809523Y-10342438D01*
X39809523Y-10342438D02*
X39857142Y-10390057D01*
X40714285Y-10628152D02*
X40714285Y-11294819D01*
X40476190Y-10247200D02*
X40238095Y-10961485D01*
X40238095Y-10961485D02*
X40857142Y-10961485D01*
X41761904Y-11294819D02*
X41190476Y-11294819D01*
X41476190Y-11294819D02*
X41476190Y-10294819D01*
X41476190Y-10294819D02*
X41380952Y-10437676D01*
X41380952Y-10437676D02*
X41285714Y-10532914D01*
X41285714Y-10532914D02*
X41190476Y-10580533D01*
X113357142Y-48199580D02*
X113309523Y-48247200D01*
X113309523Y-48247200D02*
X113166666Y-48294819D01*
X113166666Y-48294819D02*
X113071428Y-48294819D01*
X113071428Y-48294819D02*
X112928571Y-48247200D01*
X112928571Y-48247200D02*
X112833333Y-48151961D01*
X112833333Y-48151961D02*
X112785714Y-48056723D01*
X112785714Y-48056723D02*
X112738095Y-47866247D01*
X112738095Y-47866247D02*
X112738095Y-47723390D01*
X112738095Y-47723390D02*
X112785714Y-47532914D01*
X112785714Y-47532914D02*
X112833333Y-47437676D01*
X112833333Y-47437676D02*
X112928571Y-47342438D01*
X112928571Y-47342438D02*
X113071428Y-47294819D01*
X113071428Y-47294819D02*
X113166666Y-47294819D01*
X113166666Y-47294819D02*
X113309523Y-47342438D01*
X113309523Y-47342438D02*
X113357142Y-47390057D01*
X113738095Y-47390057D02*
X113785714Y-47342438D01*
X113785714Y-47342438D02*
X113880952Y-47294819D01*
X113880952Y-47294819D02*
X114119047Y-47294819D01*
X114119047Y-47294819D02*
X114214285Y-47342438D01*
X114214285Y-47342438D02*
X114261904Y-47390057D01*
X114261904Y-47390057D02*
X114309523Y-47485295D01*
X114309523Y-47485295D02*
X114309523Y-47580533D01*
X114309523Y-47580533D02*
X114261904Y-47723390D01*
X114261904Y-47723390D02*
X113690476Y-48294819D01*
X113690476Y-48294819D02*
X114309523Y-48294819D01*
X115166666Y-47628152D02*
X115166666Y-48294819D01*
X114928571Y-47247200D02*
X114690476Y-47961485D01*
X114690476Y-47961485D02*
X115309523Y-47961485D01*
X83166666Y-40281009D02*
X82833333Y-40281009D01*
X82833333Y-40804819D02*
X82833333Y-39804819D01*
X82833333Y-39804819D02*
X83309523Y-39804819D01*
X84023809Y-40281009D02*
X84166666Y-40328628D01*
X84166666Y-40328628D02*
X84214285Y-40376247D01*
X84214285Y-40376247D02*
X84261904Y-40471485D01*
X84261904Y-40471485D02*
X84261904Y-40614342D01*
X84261904Y-40614342D02*
X84214285Y-40709580D01*
X84214285Y-40709580D02*
X84166666Y-40757200D01*
X84166666Y-40757200D02*
X84071428Y-40804819D01*
X84071428Y-40804819D02*
X83690476Y-40804819D01*
X83690476Y-40804819D02*
X83690476Y-39804819D01*
X83690476Y-39804819D02*
X84023809Y-39804819D01*
X84023809Y-39804819D02*
X84119047Y-39852438D01*
X84119047Y-39852438D02*
X84166666Y-39900057D01*
X84166666Y-39900057D02*
X84214285Y-39995295D01*
X84214285Y-39995295D02*
X84214285Y-40090533D01*
X84214285Y-40090533D02*
X84166666Y-40185771D01*
X84166666Y-40185771D02*
X84119047Y-40233390D01*
X84119047Y-40233390D02*
X84023809Y-40281009D01*
X84023809Y-40281009D02*
X83690476Y-40281009D01*
X85214285Y-40804819D02*
X84642857Y-40804819D01*
X84928571Y-40804819D02*
X84928571Y-39804819D01*
X84928571Y-39804819D02*
X84833333Y-39947676D01*
X84833333Y-39947676D02*
X84738095Y-40042914D01*
X84738095Y-40042914D02*
X84642857Y-40090533D01*
X95357142Y-63699580D02*
X95309523Y-63747200D01*
X95309523Y-63747200D02*
X95166666Y-63794819D01*
X95166666Y-63794819D02*
X95071428Y-63794819D01*
X95071428Y-63794819D02*
X94928571Y-63747200D01*
X94928571Y-63747200D02*
X94833333Y-63651961D01*
X94833333Y-63651961D02*
X94785714Y-63556723D01*
X94785714Y-63556723D02*
X94738095Y-63366247D01*
X94738095Y-63366247D02*
X94738095Y-63223390D01*
X94738095Y-63223390D02*
X94785714Y-63032914D01*
X94785714Y-63032914D02*
X94833333Y-62937676D01*
X94833333Y-62937676D02*
X94928571Y-62842438D01*
X94928571Y-62842438D02*
X95071428Y-62794819D01*
X95071428Y-62794819D02*
X95166666Y-62794819D01*
X95166666Y-62794819D02*
X95309523Y-62842438D01*
X95309523Y-62842438D02*
X95357142Y-62890057D01*
X95690476Y-62794819D02*
X96309523Y-62794819D01*
X96309523Y-62794819D02*
X95976190Y-63175771D01*
X95976190Y-63175771D02*
X96119047Y-63175771D01*
X96119047Y-63175771D02*
X96214285Y-63223390D01*
X96214285Y-63223390D02*
X96261904Y-63271009D01*
X96261904Y-63271009D02*
X96309523Y-63366247D01*
X96309523Y-63366247D02*
X96309523Y-63604342D01*
X96309523Y-63604342D02*
X96261904Y-63699580D01*
X96261904Y-63699580D02*
X96214285Y-63747200D01*
X96214285Y-63747200D02*
X96119047Y-63794819D01*
X96119047Y-63794819D02*
X95833333Y-63794819D01*
X95833333Y-63794819D02*
X95738095Y-63747200D01*
X95738095Y-63747200D02*
X95690476Y-63699580D01*
X97261904Y-63794819D02*
X96690476Y-63794819D01*
X96976190Y-63794819D02*
X96976190Y-62794819D01*
X96976190Y-62794819D02*
X96880952Y-62937676D01*
X96880952Y-62937676D02*
X96785714Y-63032914D01*
X96785714Y-63032914D02*
X96690476Y-63080533D01*
X95357142Y-77784819D02*
X95023809Y-77308628D01*
X94785714Y-77784819D02*
X94785714Y-76784819D01*
X94785714Y-76784819D02*
X95166666Y-76784819D01*
X95166666Y-76784819D02*
X95261904Y-76832438D01*
X95261904Y-76832438D02*
X95309523Y-76880057D01*
X95309523Y-76880057D02*
X95357142Y-76975295D01*
X95357142Y-76975295D02*
X95357142Y-77118152D01*
X95357142Y-77118152D02*
X95309523Y-77213390D01*
X95309523Y-77213390D02*
X95261904Y-77261009D01*
X95261904Y-77261009D02*
X95166666Y-77308628D01*
X95166666Y-77308628D02*
X94785714Y-77308628D01*
X95738095Y-76880057D02*
X95785714Y-76832438D01*
X95785714Y-76832438D02*
X95880952Y-76784819D01*
X95880952Y-76784819D02*
X96119047Y-76784819D01*
X96119047Y-76784819D02*
X96214285Y-76832438D01*
X96214285Y-76832438D02*
X96261904Y-76880057D01*
X96261904Y-76880057D02*
X96309523Y-76975295D01*
X96309523Y-76975295D02*
X96309523Y-77070533D01*
X96309523Y-77070533D02*
X96261904Y-77213390D01*
X96261904Y-77213390D02*
X95690476Y-77784819D01*
X95690476Y-77784819D02*
X96309523Y-77784819D01*
X96928571Y-76784819D02*
X97023809Y-76784819D01*
X97023809Y-76784819D02*
X97119047Y-76832438D01*
X97119047Y-76832438D02*
X97166666Y-76880057D01*
X97166666Y-76880057D02*
X97214285Y-76975295D01*
X97214285Y-76975295D02*
X97261904Y-77165771D01*
X97261904Y-77165771D02*
X97261904Y-77403866D01*
X97261904Y-77403866D02*
X97214285Y-77594342D01*
X97214285Y-77594342D02*
X97166666Y-77689580D01*
X97166666Y-77689580D02*
X97119047Y-77737200D01*
X97119047Y-77737200D02*
X97023809Y-77784819D01*
X97023809Y-77784819D02*
X96928571Y-77784819D01*
X96928571Y-77784819D02*
X96833333Y-77737200D01*
X96833333Y-77737200D02*
X96785714Y-77689580D01*
X96785714Y-77689580D02*
X96738095Y-77594342D01*
X96738095Y-77594342D02*
X96690476Y-77403866D01*
X96690476Y-77403866D02*
X96690476Y-77165771D01*
X96690476Y-77165771D02*
X96738095Y-76975295D01*
X96738095Y-76975295D02*
X96785714Y-76880057D01*
X96785714Y-76880057D02*
X96833333Y-76832438D01*
X96833333Y-76832438D02*
X96928571Y-76784819D01*
X110833333Y-17679580D02*
X110785714Y-17727200D01*
X110785714Y-17727200D02*
X110642857Y-17774819D01*
X110642857Y-17774819D02*
X110547619Y-17774819D01*
X110547619Y-17774819D02*
X110404762Y-17727200D01*
X110404762Y-17727200D02*
X110309524Y-17631961D01*
X110309524Y-17631961D02*
X110261905Y-17536723D01*
X110261905Y-17536723D02*
X110214286Y-17346247D01*
X110214286Y-17346247D02*
X110214286Y-17203390D01*
X110214286Y-17203390D02*
X110261905Y-17012914D01*
X110261905Y-17012914D02*
X110309524Y-16917676D01*
X110309524Y-16917676D02*
X110404762Y-16822438D01*
X110404762Y-16822438D02*
X110547619Y-16774819D01*
X110547619Y-16774819D02*
X110642857Y-16774819D01*
X110642857Y-16774819D02*
X110785714Y-16822438D01*
X110785714Y-16822438D02*
X110833333Y-16870057D01*
X111785714Y-17774819D02*
X111214286Y-17774819D01*
X111500000Y-17774819D02*
X111500000Y-16774819D01*
X111500000Y-16774819D02*
X111404762Y-16917676D01*
X111404762Y-16917676D02*
X111309524Y-17012914D01*
X111309524Y-17012914D02*
X111214286Y-17060533D01*
X60357142Y-15699580D02*
X60309523Y-15747200D01*
X60309523Y-15747200D02*
X60166666Y-15794819D01*
X60166666Y-15794819D02*
X60071428Y-15794819D01*
X60071428Y-15794819D02*
X59928571Y-15747200D01*
X59928571Y-15747200D02*
X59833333Y-15651961D01*
X59833333Y-15651961D02*
X59785714Y-15556723D01*
X59785714Y-15556723D02*
X59738095Y-15366247D01*
X59738095Y-15366247D02*
X59738095Y-15223390D01*
X59738095Y-15223390D02*
X59785714Y-15032914D01*
X59785714Y-15032914D02*
X59833333Y-14937676D01*
X59833333Y-14937676D02*
X59928571Y-14842438D01*
X59928571Y-14842438D02*
X60071428Y-14794819D01*
X60071428Y-14794819D02*
X60166666Y-14794819D01*
X60166666Y-14794819D02*
X60309523Y-14842438D01*
X60309523Y-14842438D02*
X60357142Y-14890057D01*
X61214285Y-15128152D02*
X61214285Y-15794819D01*
X60976190Y-14747200D02*
X60738095Y-15461485D01*
X60738095Y-15461485D02*
X61357142Y-15461485D01*
X62214285Y-14794819D02*
X61738095Y-14794819D01*
X61738095Y-14794819D02*
X61690476Y-15271009D01*
X61690476Y-15271009D02*
X61738095Y-15223390D01*
X61738095Y-15223390D02*
X61833333Y-15175771D01*
X61833333Y-15175771D02*
X62071428Y-15175771D01*
X62071428Y-15175771D02*
X62166666Y-15223390D01*
X62166666Y-15223390D02*
X62214285Y-15271009D01*
X62214285Y-15271009D02*
X62261904Y-15366247D01*
X62261904Y-15366247D02*
X62261904Y-15604342D01*
X62261904Y-15604342D02*
X62214285Y-15699580D01*
X62214285Y-15699580D02*
X62166666Y-15747200D01*
X62166666Y-15747200D02*
X62071428Y-15794819D01*
X62071428Y-15794819D02*
X61833333Y-15794819D01*
X61833333Y-15794819D02*
X61738095Y-15747200D01*
X61738095Y-15747200D02*
X61690476Y-15699580D01*
X89238095Y-62054819D02*
X89238095Y-62864342D01*
X89238095Y-62864342D02*
X89285714Y-62959580D01*
X89285714Y-62959580D02*
X89333333Y-63007200D01*
X89333333Y-63007200D02*
X89428571Y-63054819D01*
X89428571Y-63054819D02*
X89619047Y-63054819D01*
X89619047Y-63054819D02*
X89714285Y-63007200D01*
X89714285Y-63007200D02*
X89761904Y-62959580D01*
X89761904Y-62959580D02*
X89809523Y-62864342D01*
X89809523Y-62864342D02*
X89809523Y-62054819D01*
X90333333Y-63054819D02*
X90523809Y-63054819D01*
X90523809Y-63054819D02*
X90619047Y-63007200D01*
X90619047Y-63007200D02*
X90666666Y-62959580D01*
X90666666Y-62959580D02*
X90761904Y-62816723D01*
X90761904Y-62816723D02*
X90809523Y-62626247D01*
X90809523Y-62626247D02*
X90809523Y-62245295D01*
X90809523Y-62245295D02*
X90761904Y-62150057D01*
X90761904Y-62150057D02*
X90714285Y-62102438D01*
X90714285Y-62102438D02*
X90619047Y-62054819D01*
X90619047Y-62054819D02*
X90428571Y-62054819D01*
X90428571Y-62054819D02*
X90333333Y-62102438D01*
X90333333Y-62102438D02*
X90285714Y-62150057D01*
X90285714Y-62150057D02*
X90238095Y-62245295D01*
X90238095Y-62245295D02*
X90238095Y-62483390D01*
X90238095Y-62483390D02*
X90285714Y-62578628D01*
X90285714Y-62578628D02*
X90333333Y-62626247D01*
X90333333Y-62626247D02*
X90428571Y-62673866D01*
X90428571Y-62673866D02*
X90619047Y-62673866D01*
X90619047Y-62673866D02*
X90714285Y-62626247D01*
X90714285Y-62626247D02*
X90761904Y-62578628D01*
X90761904Y-62578628D02*
X90809523Y-62483390D01*
X95357142Y-54929580D02*
X95309523Y-54977200D01*
X95309523Y-54977200D02*
X95166666Y-55024819D01*
X95166666Y-55024819D02*
X95071428Y-55024819D01*
X95071428Y-55024819D02*
X94928571Y-54977200D01*
X94928571Y-54977200D02*
X94833333Y-54881961D01*
X94833333Y-54881961D02*
X94785714Y-54786723D01*
X94785714Y-54786723D02*
X94738095Y-54596247D01*
X94738095Y-54596247D02*
X94738095Y-54453390D01*
X94738095Y-54453390D02*
X94785714Y-54262914D01*
X94785714Y-54262914D02*
X94833333Y-54167676D01*
X94833333Y-54167676D02*
X94928571Y-54072438D01*
X94928571Y-54072438D02*
X95071428Y-54024819D01*
X95071428Y-54024819D02*
X95166666Y-54024819D01*
X95166666Y-54024819D02*
X95309523Y-54072438D01*
X95309523Y-54072438D02*
X95357142Y-54120057D01*
X96214285Y-54358152D02*
X96214285Y-55024819D01*
X95976190Y-53977200D02*
X95738095Y-54691485D01*
X95738095Y-54691485D02*
X96357142Y-54691485D01*
X96880952Y-54453390D02*
X96785714Y-54405771D01*
X96785714Y-54405771D02*
X96738095Y-54358152D01*
X96738095Y-54358152D02*
X96690476Y-54262914D01*
X96690476Y-54262914D02*
X96690476Y-54215295D01*
X96690476Y-54215295D02*
X96738095Y-54120057D01*
X96738095Y-54120057D02*
X96785714Y-54072438D01*
X96785714Y-54072438D02*
X96880952Y-54024819D01*
X96880952Y-54024819D02*
X97071428Y-54024819D01*
X97071428Y-54024819D02*
X97166666Y-54072438D01*
X97166666Y-54072438D02*
X97214285Y-54120057D01*
X97214285Y-54120057D02*
X97261904Y-54215295D01*
X97261904Y-54215295D02*
X97261904Y-54262914D01*
X97261904Y-54262914D02*
X97214285Y-54358152D01*
X97214285Y-54358152D02*
X97166666Y-54405771D01*
X97166666Y-54405771D02*
X97071428Y-54453390D01*
X97071428Y-54453390D02*
X96880952Y-54453390D01*
X96880952Y-54453390D02*
X96785714Y-54501009D01*
X96785714Y-54501009D02*
X96738095Y-54548628D01*
X96738095Y-54548628D02*
X96690476Y-54643866D01*
X96690476Y-54643866D02*
X96690476Y-54834342D01*
X96690476Y-54834342D02*
X96738095Y-54929580D01*
X96738095Y-54929580D02*
X96785714Y-54977200D01*
X96785714Y-54977200D02*
X96880952Y-55024819D01*
X96880952Y-55024819D02*
X97071428Y-55024819D01*
X97071428Y-55024819D02*
X97166666Y-54977200D01*
X97166666Y-54977200D02*
X97214285Y-54929580D01*
X97214285Y-54929580D02*
X97261904Y-54834342D01*
X97261904Y-54834342D02*
X97261904Y-54643866D01*
X97261904Y-54643866D02*
X97214285Y-54548628D01*
X97214285Y-54548628D02*
X97166666Y-54501009D01*
X97166666Y-54501009D02*
X97071428Y-54453390D01*
X159357142Y-22284819D02*
X159023809Y-21808628D01*
X158785714Y-22284819D02*
X158785714Y-21284819D01*
X158785714Y-21284819D02*
X159166666Y-21284819D01*
X159166666Y-21284819D02*
X159261904Y-21332438D01*
X159261904Y-21332438D02*
X159309523Y-21380057D01*
X159309523Y-21380057D02*
X159357142Y-21475295D01*
X159357142Y-21475295D02*
X159357142Y-21618152D01*
X159357142Y-21618152D02*
X159309523Y-21713390D01*
X159309523Y-21713390D02*
X159261904Y-21761009D01*
X159261904Y-21761009D02*
X159166666Y-21808628D01*
X159166666Y-21808628D02*
X158785714Y-21808628D01*
X160309523Y-22284819D02*
X159738095Y-22284819D01*
X160023809Y-22284819D02*
X160023809Y-21284819D01*
X160023809Y-21284819D02*
X159928571Y-21427676D01*
X159928571Y-21427676D02*
X159833333Y-21522914D01*
X159833333Y-21522914D02*
X159738095Y-21570533D01*
X161166666Y-21618152D02*
X161166666Y-22284819D01*
X160928571Y-21237200D02*
X160690476Y-21951485D01*
X160690476Y-21951485D02*
X161309523Y-21951485D01*
X65333333Y-15179580D02*
X65285714Y-15227200D01*
X65285714Y-15227200D02*
X65142857Y-15274819D01*
X65142857Y-15274819D02*
X65047619Y-15274819D01*
X65047619Y-15274819D02*
X64904762Y-15227200D01*
X64904762Y-15227200D02*
X64809524Y-15131961D01*
X64809524Y-15131961D02*
X64761905Y-15036723D01*
X64761905Y-15036723D02*
X64714286Y-14846247D01*
X64714286Y-14846247D02*
X64714286Y-14703390D01*
X64714286Y-14703390D02*
X64761905Y-14512914D01*
X64761905Y-14512914D02*
X64809524Y-14417676D01*
X64809524Y-14417676D02*
X64904762Y-14322438D01*
X64904762Y-14322438D02*
X65047619Y-14274819D01*
X65047619Y-14274819D02*
X65142857Y-14274819D01*
X65142857Y-14274819D02*
X65285714Y-14322438D01*
X65285714Y-14322438D02*
X65333333Y-14370057D01*
X66238095Y-14274819D02*
X65761905Y-14274819D01*
X65761905Y-14274819D02*
X65714286Y-14751009D01*
X65714286Y-14751009D02*
X65761905Y-14703390D01*
X65761905Y-14703390D02*
X65857143Y-14655771D01*
X65857143Y-14655771D02*
X66095238Y-14655771D01*
X66095238Y-14655771D02*
X66190476Y-14703390D01*
X66190476Y-14703390D02*
X66238095Y-14751009D01*
X66238095Y-14751009D02*
X66285714Y-14846247D01*
X66285714Y-14846247D02*
X66285714Y-15084342D01*
X66285714Y-15084342D02*
X66238095Y-15179580D01*
X66238095Y-15179580D02*
X66190476Y-15227200D01*
X66190476Y-15227200D02*
X66095238Y-15274819D01*
X66095238Y-15274819D02*
X65857143Y-15274819D01*
X65857143Y-15274819D02*
X65761905Y-15227200D01*
X65761905Y-15227200D02*
X65714286Y-15179580D01*
X163124819Y-25063333D02*
X163839104Y-25063333D01*
X163839104Y-25063333D02*
X163981961Y-25110952D01*
X163981961Y-25110952D02*
X164077200Y-25206190D01*
X164077200Y-25206190D02*
X164124819Y-25349047D01*
X164124819Y-25349047D02*
X164124819Y-25444285D01*
X163124819Y-24682380D02*
X163124819Y-24063333D01*
X163124819Y-24063333D02*
X163505771Y-24396666D01*
X163505771Y-24396666D02*
X163505771Y-24253809D01*
X163505771Y-24253809D02*
X163553390Y-24158571D01*
X163553390Y-24158571D02*
X163601009Y-24110952D01*
X163601009Y-24110952D02*
X163696247Y-24063333D01*
X163696247Y-24063333D02*
X163934342Y-24063333D01*
X163934342Y-24063333D02*
X164029580Y-24110952D01*
X164029580Y-24110952D02*
X164077200Y-24158571D01*
X164077200Y-24158571D02*
X164124819Y-24253809D01*
X164124819Y-24253809D02*
X164124819Y-24539523D01*
X164124819Y-24539523D02*
X164077200Y-24634761D01*
X164077200Y-24634761D02*
X164029580Y-24682380D01*
X95357142Y-51179580D02*
X95309523Y-51227200D01*
X95309523Y-51227200D02*
X95166666Y-51274819D01*
X95166666Y-51274819D02*
X95071428Y-51274819D01*
X95071428Y-51274819D02*
X94928571Y-51227200D01*
X94928571Y-51227200D02*
X94833333Y-51131961D01*
X94833333Y-51131961D02*
X94785714Y-51036723D01*
X94785714Y-51036723D02*
X94738095Y-50846247D01*
X94738095Y-50846247D02*
X94738095Y-50703390D01*
X94738095Y-50703390D02*
X94785714Y-50512914D01*
X94785714Y-50512914D02*
X94833333Y-50417676D01*
X94833333Y-50417676D02*
X94928571Y-50322438D01*
X94928571Y-50322438D02*
X95071428Y-50274819D01*
X95071428Y-50274819D02*
X95166666Y-50274819D01*
X95166666Y-50274819D02*
X95309523Y-50322438D01*
X95309523Y-50322438D02*
X95357142Y-50370057D01*
X95738095Y-50370057D02*
X95785714Y-50322438D01*
X95785714Y-50322438D02*
X95880952Y-50274819D01*
X95880952Y-50274819D02*
X96119047Y-50274819D01*
X96119047Y-50274819D02*
X96214285Y-50322438D01*
X96214285Y-50322438D02*
X96261904Y-50370057D01*
X96261904Y-50370057D02*
X96309523Y-50465295D01*
X96309523Y-50465295D02*
X96309523Y-50560533D01*
X96309523Y-50560533D02*
X96261904Y-50703390D01*
X96261904Y-50703390D02*
X95690476Y-51274819D01*
X95690476Y-51274819D02*
X96309523Y-51274819D01*
X97214285Y-50274819D02*
X96738095Y-50274819D01*
X96738095Y-50274819D02*
X96690476Y-50751009D01*
X96690476Y-50751009D02*
X96738095Y-50703390D01*
X96738095Y-50703390D02*
X96833333Y-50655771D01*
X96833333Y-50655771D02*
X97071428Y-50655771D01*
X97071428Y-50655771D02*
X97166666Y-50703390D01*
X97166666Y-50703390D02*
X97214285Y-50751009D01*
X97214285Y-50751009D02*
X97261904Y-50846247D01*
X97261904Y-50846247D02*
X97261904Y-51084342D01*
X97261904Y-51084342D02*
X97214285Y-51179580D01*
X97214285Y-51179580D02*
X97166666Y-51227200D01*
X97166666Y-51227200D02*
X97071428Y-51274819D01*
X97071428Y-51274819D02*
X96833333Y-51274819D01*
X96833333Y-51274819D02*
X96738095Y-51227200D01*
X96738095Y-51227200D02*
X96690476Y-51179580D01*
X104833333Y-77784819D02*
X104500000Y-77308628D01*
X104261905Y-77784819D02*
X104261905Y-76784819D01*
X104261905Y-76784819D02*
X104642857Y-76784819D01*
X104642857Y-76784819D02*
X104738095Y-76832438D01*
X104738095Y-76832438D02*
X104785714Y-76880057D01*
X104785714Y-76880057D02*
X104833333Y-76975295D01*
X104833333Y-76975295D02*
X104833333Y-77118152D01*
X104833333Y-77118152D02*
X104785714Y-77213390D01*
X104785714Y-77213390D02*
X104738095Y-77261009D01*
X104738095Y-77261009D02*
X104642857Y-77308628D01*
X104642857Y-77308628D02*
X104261905Y-77308628D01*
X105166667Y-76784819D02*
X105833333Y-76784819D01*
X105833333Y-76784819D02*
X105404762Y-77784819D01*
X39357142Y-23699580D02*
X39309523Y-23747200D01*
X39309523Y-23747200D02*
X39166666Y-23794819D01*
X39166666Y-23794819D02*
X39071428Y-23794819D01*
X39071428Y-23794819D02*
X38928571Y-23747200D01*
X38928571Y-23747200D02*
X38833333Y-23651961D01*
X38833333Y-23651961D02*
X38785714Y-23556723D01*
X38785714Y-23556723D02*
X38738095Y-23366247D01*
X38738095Y-23366247D02*
X38738095Y-23223390D01*
X38738095Y-23223390D02*
X38785714Y-23032914D01*
X38785714Y-23032914D02*
X38833333Y-22937676D01*
X38833333Y-22937676D02*
X38928571Y-22842438D01*
X38928571Y-22842438D02*
X39071428Y-22794819D01*
X39071428Y-22794819D02*
X39166666Y-22794819D01*
X39166666Y-22794819D02*
X39309523Y-22842438D01*
X39309523Y-22842438D02*
X39357142Y-22890057D01*
X39690476Y-22794819D02*
X40309523Y-22794819D01*
X40309523Y-22794819D02*
X39976190Y-23175771D01*
X39976190Y-23175771D02*
X40119047Y-23175771D01*
X40119047Y-23175771D02*
X40214285Y-23223390D01*
X40214285Y-23223390D02*
X40261904Y-23271009D01*
X40261904Y-23271009D02*
X40309523Y-23366247D01*
X40309523Y-23366247D02*
X40309523Y-23604342D01*
X40309523Y-23604342D02*
X40261904Y-23699580D01*
X40261904Y-23699580D02*
X40214285Y-23747200D01*
X40214285Y-23747200D02*
X40119047Y-23794819D01*
X40119047Y-23794819D02*
X39833333Y-23794819D01*
X39833333Y-23794819D02*
X39738095Y-23747200D01*
X39738095Y-23747200D02*
X39690476Y-23699580D01*
X41214285Y-22794819D02*
X40738095Y-22794819D01*
X40738095Y-22794819D02*
X40690476Y-23271009D01*
X40690476Y-23271009D02*
X40738095Y-23223390D01*
X40738095Y-23223390D02*
X40833333Y-23175771D01*
X40833333Y-23175771D02*
X41071428Y-23175771D01*
X41071428Y-23175771D02*
X41166666Y-23223390D01*
X41166666Y-23223390D02*
X41214285Y-23271009D01*
X41214285Y-23271009D02*
X41261904Y-23366247D01*
X41261904Y-23366247D02*
X41261904Y-23604342D01*
X41261904Y-23604342D02*
X41214285Y-23699580D01*
X41214285Y-23699580D02*
X41166666Y-23747200D01*
X41166666Y-23747200D02*
X41071428Y-23794819D01*
X41071428Y-23794819D02*
X40833333Y-23794819D01*
X40833333Y-23794819D02*
X40738095Y-23747200D01*
X40738095Y-23747200D02*
X40690476Y-23699580D01*
X77357142Y-73284819D02*
X77023809Y-72808628D01*
X76785714Y-73284819D02*
X76785714Y-72284819D01*
X76785714Y-72284819D02*
X77166666Y-72284819D01*
X77166666Y-72284819D02*
X77261904Y-72332438D01*
X77261904Y-72332438D02*
X77309523Y-72380057D01*
X77309523Y-72380057D02*
X77357142Y-72475295D01*
X77357142Y-72475295D02*
X77357142Y-72618152D01*
X77357142Y-72618152D02*
X77309523Y-72713390D01*
X77309523Y-72713390D02*
X77261904Y-72761009D01*
X77261904Y-72761009D02*
X77166666Y-72808628D01*
X77166666Y-72808628D02*
X76785714Y-72808628D01*
X77738095Y-72380057D02*
X77785714Y-72332438D01*
X77785714Y-72332438D02*
X77880952Y-72284819D01*
X77880952Y-72284819D02*
X78119047Y-72284819D01*
X78119047Y-72284819D02*
X78214285Y-72332438D01*
X78214285Y-72332438D02*
X78261904Y-72380057D01*
X78261904Y-72380057D02*
X78309523Y-72475295D01*
X78309523Y-72475295D02*
X78309523Y-72570533D01*
X78309523Y-72570533D02*
X78261904Y-72713390D01*
X78261904Y-72713390D02*
X77690476Y-73284819D01*
X77690476Y-73284819D02*
X78309523Y-73284819D01*
X78690476Y-72380057D02*
X78738095Y-72332438D01*
X78738095Y-72332438D02*
X78833333Y-72284819D01*
X78833333Y-72284819D02*
X79071428Y-72284819D01*
X79071428Y-72284819D02*
X79166666Y-72332438D01*
X79166666Y-72332438D02*
X79214285Y-72380057D01*
X79214285Y-72380057D02*
X79261904Y-72475295D01*
X79261904Y-72475295D02*
X79261904Y-72570533D01*
X79261904Y-72570533D02*
X79214285Y-72713390D01*
X79214285Y-72713390D02*
X78642857Y-73284819D01*
X78642857Y-73284819D02*
X79261904Y-73284819D01*
X104357142Y-51429580D02*
X104309523Y-51477200D01*
X104309523Y-51477200D02*
X104166666Y-51524819D01*
X104166666Y-51524819D02*
X104071428Y-51524819D01*
X104071428Y-51524819D02*
X103928571Y-51477200D01*
X103928571Y-51477200D02*
X103833333Y-51381961D01*
X103833333Y-51381961D02*
X103785714Y-51286723D01*
X103785714Y-51286723D02*
X103738095Y-51096247D01*
X103738095Y-51096247D02*
X103738095Y-50953390D01*
X103738095Y-50953390D02*
X103785714Y-50762914D01*
X103785714Y-50762914D02*
X103833333Y-50667676D01*
X103833333Y-50667676D02*
X103928571Y-50572438D01*
X103928571Y-50572438D02*
X104071428Y-50524819D01*
X104071428Y-50524819D02*
X104166666Y-50524819D01*
X104166666Y-50524819D02*
X104309523Y-50572438D01*
X104309523Y-50572438D02*
X104357142Y-50620057D01*
X104690476Y-50524819D02*
X105309523Y-50524819D01*
X105309523Y-50524819D02*
X104976190Y-50905771D01*
X104976190Y-50905771D02*
X105119047Y-50905771D01*
X105119047Y-50905771D02*
X105214285Y-50953390D01*
X105214285Y-50953390D02*
X105261904Y-51001009D01*
X105261904Y-51001009D02*
X105309523Y-51096247D01*
X105309523Y-51096247D02*
X105309523Y-51334342D01*
X105309523Y-51334342D02*
X105261904Y-51429580D01*
X105261904Y-51429580D02*
X105214285Y-51477200D01*
X105214285Y-51477200D02*
X105119047Y-51524819D01*
X105119047Y-51524819D02*
X104833333Y-51524819D01*
X104833333Y-51524819D02*
X104738095Y-51477200D01*
X104738095Y-51477200D02*
X104690476Y-51429580D01*
X105928571Y-50524819D02*
X106023809Y-50524819D01*
X106023809Y-50524819D02*
X106119047Y-50572438D01*
X106119047Y-50572438D02*
X106166666Y-50620057D01*
X106166666Y-50620057D02*
X106214285Y-50715295D01*
X106214285Y-50715295D02*
X106261904Y-50905771D01*
X106261904Y-50905771D02*
X106261904Y-51143866D01*
X106261904Y-51143866D02*
X106214285Y-51334342D01*
X106214285Y-51334342D02*
X106166666Y-51429580D01*
X106166666Y-51429580D02*
X106119047Y-51477200D01*
X106119047Y-51477200D02*
X106023809Y-51524819D01*
X106023809Y-51524819D02*
X105928571Y-51524819D01*
X105928571Y-51524819D02*
X105833333Y-51477200D01*
X105833333Y-51477200D02*
X105785714Y-51429580D01*
X105785714Y-51429580D02*
X105738095Y-51334342D01*
X105738095Y-51334342D02*
X105690476Y-51143866D01*
X105690476Y-51143866D02*
X105690476Y-50905771D01*
X105690476Y-50905771D02*
X105738095Y-50715295D01*
X105738095Y-50715295D02*
X105785714Y-50620057D01*
X105785714Y-50620057D02*
X105833333Y-50572438D01*
X105833333Y-50572438D02*
X105928571Y-50524819D01*
X39833333Y-27199580D02*
X39785714Y-27247200D01*
X39785714Y-27247200D02*
X39642857Y-27294819D01*
X39642857Y-27294819D02*
X39547619Y-27294819D01*
X39547619Y-27294819D02*
X39404762Y-27247200D01*
X39404762Y-27247200D02*
X39309524Y-27151961D01*
X39309524Y-27151961D02*
X39261905Y-27056723D01*
X39261905Y-27056723D02*
X39214286Y-26866247D01*
X39214286Y-26866247D02*
X39214286Y-26723390D01*
X39214286Y-26723390D02*
X39261905Y-26532914D01*
X39261905Y-26532914D02*
X39309524Y-26437676D01*
X39309524Y-26437676D02*
X39404762Y-26342438D01*
X39404762Y-26342438D02*
X39547619Y-26294819D01*
X39547619Y-26294819D02*
X39642857Y-26294819D01*
X39642857Y-26294819D02*
X39785714Y-26342438D01*
X39785714Y-26342438D02*
X39833333Y-26390057D01*
X40166667Y-26294819D02*
X40833333Y-26294819D01*
X40833333Y-26294819D02*
X40404762Y-27294819D01*
X114857142Y-17679580D02*
X114809523Y-17727200D01*
X114809523Y-17727200D02*
X114666666Y-17774819D01*
X114666666Y-17774819D02*
X114571428Y-17774819D01*
X114571428Y-17774819D02*
X114428571Y-17727200D01*
X114428571Y-17727200D02*
X114333333Y-17631961D01*
X114333333Y-17631961D02*
X114285714Y-17536723D01*
X114285714Y-17536723D02*
X114238095Y-17346247D01*
X114238095Y-17346247D02*
X114238095Y-17203390D01*
X114238095Y-17203390D02*
X114285714Y-17012914D01*
X114285714Y-17012914D02*
X114333333Y-16917676D01*
X114333333Y-16917676D02*
X114428571Y-16822438D01*
X114428571Y-16822438D02*
X114571428Y-16774819D01*
X114571428Y-16774819D02*
X114666666Y-16774819D01*
X114666666Y-16774819D02*
X114809523Y-16822438D01*
X114809523Y-16822438D02*
X114857142Y-16870057D01*
X115809523Y-17774819D02*
X115238095Y-17774819D01*
X115523809Y-17774819D02*
X115523809Y-16774819D01*
X115523809Y-16774819D02*
X115428571Y-16917676D01*
X115428571Y-16917676D02*
X115333333Y-17012914D01*
X115333333Y-17012914D02*
X115238095Y-17060533D01*
X116428571Y-16774819D02*
X116523809Y-16774819D01*
X116523809Y-16774819D02*
X116619047Y-16822438D01*
X116619047Y-16822438D02*
X116666666Y-16870057D01*
X116666666Y-16870057D02*
X116714285Y-16965295D01*
X116714285Y-16965295D02*
X116761904Y-17155771D01*
X116761904Y-17155771D02*
X116761904Y-17393866D01*
X116761904Y-17393866D02*
X116714285Y-17584342D01*
X116714285Y-17584342D02*
X116666666Y-17679580D01*
X116666666Y-17679580D02*
X116619047Y-17727200D01*
X116619047Y-17727200D02*
X116523809Y-17774819D01*
X116523809Y-17774819D02*
X116428571Y-17774819D01*
X116428571Y-17774819D02*
X116333333Y-17727200D01*
X116333333Y-17727200D02*
X116285714Y-17679580D01*
X116285714Y-17679580D02*
X116238095Y-17584342D01*
X116238095Y-17584342D02*
X116190476Y-17393866D01*
X116190476Y-17393866D02*
X116190476Y-17155771D01*
X116190476Y-17155771D02*
X116238095Y-16965295D01*
X116238095Y-16965295D02*
X116285714Y-16870057D01*
X116285714Y-16870057D02*
X116333333Y-16822438D01*
X116333333Y-16822438D02*
X116428571Y-16774819D01*
X158357142Y-81284819D02*
X158023809Y-80808628D01*
X157785714Y-81284819D02*
X157785714Y-80284819D01*
X157785714Y-80284819D02*
X158166666Y-80284819D01*
X158166666Y-80284819D02*
X158261904Y-80332438D01*
X158261904Y-80332438D02*
X158309523Y-80380057D01*
X158309523Y-80380057D02*
X158357142Y-80475295D01*
X158357142Y-80475295D02*
X158357142Y-80618152D01*
X158357142Y-80618152D02*
X158309523Y-80713390D01*
X158309523Y-80713390D02*
X158261904Y-80761009D01*
X158261904Y-80761009D02*
X158166666Y-80808628D01*
X158166666Y-80808628D02*
X157785714Y-80808628D01*
X159309523Y-81284819D02*
X158738095Y-81284819D01*
X159023809Y-81284819D02*
X159023809Y-80284819D01*
X159023809Y-80284819D02*
X158928571Y-80427676D01*
X158928571Y-80427676D02*
X158833333Y-80522914D01*
X158833333Y-80522914D02*
X158738095Y-80570533D01*
X159928571Y-80284819D02*
X160023809Y-80284819D01*
X160023809Y-80284819D02*
X160119047Y-80332438D01*
X160119047Y-80332438D02*
X160166666Y-80380057D01*
X160166666Y-80380057D02*
X160214285Y-80475295D01*
X160214285Y-80475295D02*
X160261904Y-80665771D01*
X160261904Y-80665771D02*
X160261904Y-80903866D01*
X160261904Y-80903866D02*
X160214285Y-81094342D01*
X160214285Y-81094342D02*
X160166666Y-81189580D01*
X160166666Y-81189580D02*
X160119047Y-81237200D01*
X160119047Y-81237200D02*
X160023809Y-81284819D01*
X160023809Y-81284819D02*
X159928571Y-81284819D01*
X159928571Y-81284819D02*
X159833333Y-81237200D01*
X159833333Y-81237200D02*
X159785714Y-81189580D01*
X159785714Y-81189580D02*
X159738095Y-81094342D01*
X159738095Y-81094342D02*
X159690476Y-80903866D01*
X159690476Y-80903866D02*
X159690476Y-80665771D01*
X159690476Y-80665771D02*
X159738095Y-80475295D01*
X159738095Y-80475295D02*
X159785714Y-80380057D01*
X159785714Y-80380057D02*
X159833333Y-80332438D01*
X159833333Y-80332438D02*
X159928571Y-80284819D01*
X85357142Y-39284819D02*
X85023809Y-38808628D01*
X84785714Y-39284819D02*
X84785714Y-38284819D01*
X84785714Y-38284819D02*
X85166666Y-38284819D01*
X85166666Y-38284819D02*
X85261904Y-38332438D01*
X85261904Y-38332438D02*
X85309523Y-38380057D01*
X85309523Y-38380057D02*
X85357142Y-38475295D01*
X85357142Y-38475295D02*
X85357142Y-38618152D01*
X85357142Y-38618152D02*
X85309523Y-38713390D01*
X85309523Y-38713390D02*
X85261904Y-38761009D01*
X85261904Y-38761009D02*
X85166666Y-38808628D01*
X85166666Y-38808628D02*
X84785714Y-38808628D01*
X85738095Y-38380057D02*
X85785714Y-38332438D01*
X85785714Y-38332438D02*
X85880952Y-38284819D01*
X85880952Y-38284819D02*
X86119047Y-38284819D01*
X86119047Y-38284819D02*
X86214285Y-38332438D01*
X86214285Y-38332438D02*
X86261904Y-38380057D01*
X86261904Y-38380057D02*
X86309523Y-38475295D01*
X86309523Y-38475295D02*
X86309523Y-38570533D01*
X86309523Y-38570533D02*
X86261904Y-38713390D01*
X86261904Y-38713390D02*
X85690476Y-39284819D01*
X85690476Y-39284819D02*
X86309523Y-39284819D01*
X87166666Y-38618152D02*
X87166666Y-39284819D01*
X86928571Y-38237200D02*
X86690476Y-38951485D01*
X86690476Y-38951485D02*
X87309523Y-38951485D01*
X38966666Y-34684819D02*
X38966666Y-35399104D01*
X38966666Y-35399104D02*
X38919047Y-35541961D01*
X38919047Y-35541961D02*
X38823809Y-35637200D01*
X38823809Y-35637200D02*
X38680952Y-35684819D01*
X38680952Y-35684819D02*
X38585714Y-35684819D01*
X39966666Y-35684819D02*
X39395238Y-35684819D01*
X39680952Y-35684819D02*
X39680952Y-34684819D01*
X39680952Y-34684819D02*
X39585714Y-34827676D01*
X39585714Y-34827676D02*
X39490476Y-34922914D01*
X39490476Y-34922914D02*
X39395238Y-34970533D01*
X12190476Y-71124819D02*
X12190476Y-71839104D01*
X12190476Y-71839104D02*
X12142857Y-71981961D01*
X12142857Y-71981961D02*
X12047619Y-72077200D01*
X12047619Y-72077200D02*
X11904762Y-72124819D01*
X11904762Y-72124819D02*
X11809524Y-72124819D01*
X13190476Y-72124819D02*
X12619048Y-72124819D01*
X12904762Y-72124819D02*
X12904762Y-71124819D01*
X12904762Y-71124819D02*
X12809524Y-71267676D01*
X12809524Y-71267676D02*
X12714286Y-71362914D01*
X12714286Y-71362914D02*
X12619048Y-71410533D01*
X13809524Y-71124819D02*
X13904762Y-71124819D01*
X13904762Y-71124819D02*
X14000000Y-71172438D01*
X14000000Y-71172438D02*
X14047619Y-71220057D01*
X14047619Y-71220057D02*
X14095238Y-71315295D01*
X14095238Y-71315295D02*
X14142857Y-71505771D01*
X14142857Y-71505771D02*
X14142857Y-71743866D01*
X14142857Y-71743866D02*
X14095238Y-71934342D01*
X14095238Y-71934342D02*
X14047619Y-72029580D01*
X14047619Y-72029580D02*
X14000000Y-72077200D01*
X14000000Y-72077200D02*
X13904762Y-72124819D01*
X13904762Y-72124819D02*
X13809524Y-72124819D01*
X13809524Y-72124819D02*
X13714286Y-72077200D01*
X13714286Y-72077200D02*
X13666667Y-72029580D01*
X13666667Y-72029580D02*
X13619048Y-71934342D01*
X13619048Y-71934342D02*
X13571429Y-71743866D01*
X13571429Y-71743866D02*
X13571429Y-71505771D01*
X13571429Y-71505771D02*
X13619048Y-71315295D01*
X13619048Y-71315295D02*
X13666667Y-71220057D01*
X13666667Y-71220057D02*
X13714286Y-71172438D01*
X13714286Y-71172438D02*
X13809524Y-71124819D01*
X135357142Y-17679580D02*
X135309523Y-17727200D01*
X135309523Y-17727200D02*
X135166666Y-17774819D01*
X135166666Y-17774819D02*
X135071428Y-17774819D01*
X135071428Y-17774819D02*
X134928571Y-17727200D01*
X134928571Y-17727200D02*
X134833333Y-17631961D01*
X134833333Y-17631961D02*
X134785714Y-17536723D01*
X134785714Y-17536723D02*
X134738095Y-17346247D01*
X134738095Y-17346247D02*
X134738095Y-17203390D01*
X134738095Y-17203390D02*
X134785714Y-17012914D01*
X134785714Y-17012914D02*
X134833333Y-16917676D01*
X134833333Y-16917676D02*
X134928571Y-16822438D01*
X134928571Y-16822438D02*
X135071428Y-16774819D01*
X135071428Y-16774819D02*
X135166666Y-16774819D01*
X135166666Y-16774819D02*
X135309523Y-16822438D01*
X135309523Y-16822438D02*
X135357142Y-16870057D01*
X136309523Y-17774819D02*
X135738095Y-17774819D01*
X136023809Y-17774819D02*
X136023809Y-16774819D01*
X136023809Y-16774819D02*
X135928571Y-16917676D01*
X135928571Y-16917676D02*
X135833333Y-17012914D01*
X135833333Y-17012914D02*
X135738095Y-17060533D01*
X136690476Y-16870057D02*
X136738095Y-16822438D01*
X136738095Y-16822438D02*
X136833333Y-16774819D01*
X136833333Y-16774819D02*
X137071428Y-16774819D01*
X137071428Y-16774819D02*
X137166666Y-16822438D01*
X137166666Y-16822438D02*
X137214285Y-16870057D01*
X137214285Y-16870057D02*
X137261904Y-16965295D01*
X137261904Y-16965295D02*
X137261904Y-17060533D01*
X137261904Y-17060533D02*
X137214285Y-17203390D01*
X137214285Y-17203390D02*
X136642857Y-17774819D01*
X136642857Y-17774819D02*
X137261904Y-17774819D01*
X49190476Y-71124819D02*
X49190476Y-71839104D01*
X49190476Y-71839104D02*
X49142857Y-71981961D01*
X49142857Y-71981961D02*
X49047619Y-72077200D01*
X49047619Y-72077200D02*
X48904762Y-72124819D01*
X48904762Y-72124819D02*
X48809524Y-72124819D01*
X50190476Y-72124819D02*
X49619048Y-72124819D01*
X49904762Y-72124819D02*
X49904762Y-71124819D01*
X49904762Y-71124819D02*
X49809524Y-71267676D01*
X49809524Y-71267676D02*
X49714286Y-71362914D01*
X49714286Y-71362914D02*
X49619048Y-71410533D01*
X51142857Y-72124819D02*
X50571429Y-72124819D01*
X50857143Y-72124819D02*
X50857143Y-71124819D01*
X50857143Y-71124819D02*
X50761905Y-71267676D01*
X50761905Y-71267676D02*
X50666667Y-71362914D01*
X50666667Y-71362914D02*
X50571429Y-71410533D01*
X100333333Y-77784819D02*
X100000000Y-77308628D01*
X99761905Y-77784819D02*
X99761905Y-76784819D01*
X99761905Y-76784819D02*
X100142857Y-76784819D01*
X100142857Y-76784819D02*
X100238095Y-76832438D01*
X100238095Y-76832438D02*
X100285714Y-76880057D01*
X100285714Y-76880057D02*
X100333333Y-76975295D01*
X100333333Y-76975295D02*
X100333333Y-77118152D01*
X100333333Y-77118152D02*
X100285714Y-77213390D01*
X100285714Y-77213390D02*
X100238095Y-77261009D01*
X100238095Y-77261009D02*
X100142857Y-77308628D01*
X100142857Y-77308628D02*
X99761905Y-77308628D01*
X101190476Y-76784819D02*
X101000000Y-76784819D01*
X101000000Y-76784819D02*
X100904762Y-76832438D01*
X100904762Y-76832438D02*
X100857143Y-76880057D01*
X100857143Y-76880057D02*
X100761905Y-77022914D01*
X100761905Y-77022914D02*
X100714286Y-77213390D01*
X100714286Y-77213390D02*
X100714286Y-77594342D01*
X100714286Y-77594342D02*
X100761905Y-77689580D01*
X100761905Y-77689580D02*
X100809524Y-77737200D01*
X100809524Y-77737200D02*
X100904762Y-77784819D01*
X100904762Y-77784819D02*
X101095238Y-77784819D01*
X101095238Y-77784819D02*
X101190476Y-77737200D01*
X101190476Y-77737200D02*
X101238095Y-77689580D01*
X101238095Y-77689580D02*
X101285714Y-77594342D01*
X101285714Y-77594342D02*
X101285714Y-77356247D01*
X101285714Y-77356247D02*
X101238095Y-77261009D01*
X101238095Y-77261009D02*
X101190476Y-77213390D01*
X101190476Y-77213390D02*
X101095238Y-77165771D01*
X101095238Y-77165771D02*
X100904762Y-77165771D01*
X100904762Y-77165771D02*
X100809524Y-77213390D01*
X100809524Y-77213390D02*
X100761905Y-77261009D01*
X100761905Y-77261009D02*
X100714286Y-77356247D01*
X29238095Y-12054819D02*
X29238095Y-12864342D01*
X29238095Y-12864342D02*
X29285714Y-12959580D01*
X29285714Y-12959580D02*
X29333333Y-13007200D01*
X29333333Y-13007200D02*
X29428571Y-13054819D01*
X29428571Y-13054819D02*
X29619047Y-13054819D01*
X29619047Y-13054819D02*
X29714285Y-13007200D01*
X29714285Y-13007200D02*
X29761904Y-12959580D01*
X29761904Y-12959580D02*
X29809523Y-12864342D01*
X29809523Y-12864342D02*
X29809523Y-12054819D01*
X30714285Y-12388152D02*
X30714285Y-13054819D01*
X30476190Y-12007200D02*
X30238095Y-12721485D01*
X30238095Y-12721485D02*
X30857142Y-12721485D01*
X139857142Y-17679580D02*
X139809523Y-17727200D01*
X139809523Y-17727200D02*
X139666666Y-17774819D01*
X139666666Y-17774819D02*
X139571428Y-17774819D01*
X139571428Y-17774819D02*
X139428571Y-17727200D01*
X139428571Y-17727200D02*
X139333333Y-17631961D01*
X139333333Y-17631961D02*
X139285714Y-17536723D01*
X139285714Y-17536723D02*
X139238095Y-17346247D01*
X139238095Y-17346247D02*
X139238095Y-17203390D01*
X139238095Y-17203390D02*
X139285714Y-17012914D01*
X139285714Y-17012914D02*
X139333333Y-16917676D01*
X139333333Y-16917676D02*
X139428571Y-16822438D01*
X139428571Y-16822438D02*
X139571428Y-16774819D01*
X139571428Y-16774819D02*
X139666666Y-16774819D01*
X139666666Y-16774819D02*
X139809523Y-16822438D01*
X139809523Y-16822438D02*
X139857142Y-16870057D01*
X140809523Y-17774819D02*
X140238095Y-17774819D01*
X140523809Y-17774819D02*
X140523809Y-16774819D01*
X140523809Y-16774819D02*
X140428571Y-16917676D01*
X140428571Y-16917676D02*
X140333333Y-17012914D01*
X140333333Y-17012914D02*
X140238095Y-17060533D01*
X141666666Y-17108152D02*
X141666666Y-17774819D01*
X141428571Y-16727200D02*
X141190476Y-17441485D01*
X141190476Y-17441485D02*
X141809523Y-17441485D01*
X119238095Y-63554819D02*
X119238095Y-64364342D01*
X119238095Y-64364342D02*
X119285714Y-64459580D01*
X119285714Y-64459580D02*
X119333333Y-64507200D01*
X119333333Y-64507200D02*
X119428571Y-64554819D01*
X119428571Y-64554819D02*
X119619047Y-64554819D01*
X119619047Y-64554819D02*
X119714285Y-64507200D01*
X119714285Y-64507200D02*
X119761904Y-64459580D01*
X119761904Y-64459580D02*
X119809523Y-64364342D01*
X119809523Y-64364342D02*
X119809523Y-63554819D01*
X120428571Y-63983390D02*
X120333333Y-63935771D01*
X120333333Y-63935771D02*
X120285714Y-63888152D01*
X120285714Y-63888152D02*
X120238095Y-63792914D01*
X120238095Y-63792914D02*
X120238095Y-63745295D01*
X120238095Y-63745295D02*
X120285714Y-63650057D01*
X120285714Y-63650057D02*
X120333333Y-63602438D01*
X120333333Y-63602438D02*
X120428571Y-63554819D01*
X120428571Y-63554819D02*
X120619047Y-63554819D01*
X120619047Y-63554819D02*
X120714285Y-63602438D01*
X120714285Y-63602438D02*
X120761904Y-63650057D01*
X120761904Y-63650057D02*
X120809523Y-63745295D01*
X120809523Y-63745295D02*
X120809523Y-63792914D01*
X120809523Y-63792914D02*
X120761904Y-63888152D01*
X120761904Y-63888152D02*
X120714285Y-63935771D01*
X120714285Y-63935771D02*
X120619047Y-63983390D01*
X120619047Y-63983390D02*
X120428571Y-63983390D01*
X120428571Y-63983390D02*
X120333333Y-64031009D01*
X120333333Y-64031009D02*
X120285714Y-64078628D01*
X120285714Y-64078628D02*
X120238095Y-64173866D01*
X120238095Y-64173866D02*
X120238095Y-64364342D01*
X120238095Y-64364342D02*
X120285714Y-64459580D01*
X120285714Y-64459580D02*
X120333333Y-64507200D01*
X120333333Y-64507200D02*
X120428571Y-64554819D01*
X120428571Y-64554819D02*
X120619047Y-64554819D01*
X120619047Y-64554819D02*
X120714285Y-64507200D01*
X120714285Y-64507200D02*
X120761904Y-64459580D01*
X120761904Y-64459580D02*
X120809523Y-64364342D01*
X120809523Y-64364342D02*
X120809523Y-64173866D01*
X120809523Y-64173866D02*
X120761904Y-64078628D01*
X120761904Y-64078628D02*
X120714285Y-64031009D01*
X120714285Y-64031009D02*
X120619047Y-63983390D01*
X153454761Y-57304819D02*
X153121428Y-56828628D01*
X152883333Y-57304819D02*
X152883333Y-56304819D01*
X152883333Y-56304819D02*
X153264285Y-56304819D01*
X153264285Y-56304819D02*
X153359523Y-56352438D01*
X153359523Y-56352438D02*
X153407142Y-56400057D01*
X153407142Y-56400057D02*
X153454761Y-56495295D01*
X153454761Y-56495295D02*
X153454761Y-56638152D01*
X153454761Y-56638152D02*
X153407142Y-56733390D01*
X153407142Y-56733390D02*
X153359523Y-56781009D01*
X153359523Y-56781009D02*
X153264285Y-56828628D01*
X153264285Y-56828628D02*
X152883333Y-56828628D01*
X153740476Y-56304819D02*
X154073809Y-57304819D01*
X154073809Y-57304819D02*
X154407142Y-56304819D01*
X154692857Y-56400057D02*
X154740476Y-56352438D01*
X154740476Y-56352438D02*
X154835714Y-56304819D01*
X154835714Y-56304819D02*
X155073809Y-56304819D01*
X155073809Y-56304819D02*
X155169047Y-56352438D01*
X155169047Y-56352438D02*
X155216666Y-56400057D01*
X155216666Y-56400057D02*
X155264285Y-56495295D01*
X155264285Y-56495295D02*
X155264285Y-56590533D01*
X155264285Y-56590533D02*
X155216666Y-56733390D01*
X155216666Y-56733390D02*
X154645238Y-57304819D01*
X154645238Y-57304819D02*
X155264285Y-57304819D01*
X34190476Y-71124819D02*
X34190476Y-71839104D01*
X34190476Y-71839104D02*
X34142857Y-71981961D01*
X34142857Y-71981961D02*
X34047619Y-72077200D01*
X34047619Y-72077200D02*
X33904762Y-72124819D01*
X33904762Y-72124819D02*
X33809524Y-72124819D01*
X35190476Y-72124819D02*
X34619048Y-72124819D01*
X34904762Y-72124819D02*
X34904762Y-71124819D01*
X34904762Y-71124819D02*
X34809524Y-71267676D01*
X34809524Y-71267676D02*
X34714286Y-71362914D01*
X34714286Y-71362914D02*
X34619048Y-71410533D01*
X35523810Y-71124819D02*
X36190476Y-71124819D01*
X36190476Y-71124819D02*
X35761905Y-72124819D01*
X111666666Y-83124819D02*
X111666666Y-83839104D01*
X111666666Y-83839104D02*
X111619047Y-83981961D01*
X111619047Y-83981961D02*
X111523809Y-84077200D01*
X111523809Y-84077200D02*
X111380952Y-84124819D01*
X111380952Y-84124819D02*
X111285714Y-84124819D01*
X112571428Y-83124819D02*
X112380952Y-83124819D01*
X112380952Y-83124819D02*
X112285714Y-83172438D01*
X112285714Y-83172438D02*
X112238095Y-83220057D01*
X112238095Y-83220057D02*
X112142857Y-83362914D01*
X112142857Y-83362914D02*
X112095238Y-83553390D01*
X112095238Y-83553390D02*
X112095238Y-83934342D01*
X112095238Y-83934342D02*
X112142857Y-84029580D01*
X112142857Y-84029580D02*
X112190476Y-84077200D01*
X112190476Y-84077200D02*
X112285714Y-84124819D01*
X112285714Y-84124819D02*
X112476190Y-84124819D01*
X112476190Y-84124819D02*
X112571428Y-84077200D01*
X112571428Y-84077200D02*
X112619047Y-84029580D01*
X112619047Y-84029580D02*
X112666666Y-83934342D01*
X112666666Y-83934342D02*
X112666666Y-83696247D01*
X112666666Y-83696247D02*
X112619047Y-83601009D01*
X112619047Y-83601009D02*
X112571428Y-83553390D01*
X112571428Y-83553390D02*
X112476190Y-83505771D01*
X112476190Y-83505771D02*
X112285714Y-83505771D01*
X112285714Y-83505771D02*
X112190476Y-83553390D01*
X112190476Y-83553390D02*
X112142857Y-83601009D01*
X112142857Y-83601009D02*
X112095238Y-83696247D01*
X97666666Y-83124819D02*
X97666666Y-83839104D01*
X97666666Y-83839104D02*
X97619047Y-83981961D01*
X97619047Y-83981961D02*
X97523809Y-84077200D01*
X97523809Y-84077200D02*
X97380952Y-84124819D01*
X97380952Y-84124819D02*
X97285714Y-84124819D01*
X98619047Y-83124819D02*
X98142857Y-83124819D01*
X98142857Y-83124819D02*
X98095238Y-83601009D01*
X98095238Y-83601009D02*
X98142857Y-83553390D01*
X98142857Y-83553390D02*
X98238095Y-83505771D01*
X98238095Y-83505771D02*
X98476190Y-83505771D01*
X98476190Y-83505771D02*
X98571428Y-83553390D01*
X98571428Y-83553390D02*
X98619047Y-83601009D01*
X98619047Y-83601009D02*
X98666666Y-83696247D01*
X98666666Y-83696247D02*
X98666666Y-83934342D01*
X98666666Y-83934342D02*
X98619047Y-84029580D01*
X98619047Y-84029580D02*
X98571428Y-84077200D01*
X98571428Y-84077200D02*
X98476190Y-84124819D01*
X98476190Y-84124819D02*
X98238095Y-84124819D01*
X98238095Y-84124819D02*
X98142857Y-84077200D01*
X98142857Y-84077200D02*
X98095238Y-84029580D01*
X108857142Y-47929580D02*
X108809523Y-47977200D01*
X108809523Y-47977200D02*
X108666666Y-48024819D01*
X108666666Y-48024819D02*
X108571428Y-48024819D01*
X108571428Y-48024819D02*
X108428571Y-47977200D01*
X108428571Y-47977200D02*
X108333333Y-47881961D01*
X108333333Y-47881961D02*
X108285714Y-47786723D01*
X108285714Y-47786723D02*
X108238095Y-47596247D01*
X108238095Y-47596247D02*
X108238095Y-47453390D01*
X108238095Y-47453390D02*
X108285714Y-47262914D01*
X108285714Y-47262914D02*
X108333333Y-47167676D01*
X108333333Y-47167676D02*
X108428571Y-47072438D01*
X108428571Y-47072438D02*
X108571428Y-47024819D01*
X108571428Y-47024819D02*
X108666666Y-47024819D01*
X108666666Y-47024819D02*
X108809523Y-47072438D01*
X108809523Y-47072438D02*
X108857142Y-47120057D01*
X109809523Y-48024819D02*
X109238095Y-48024819D01*
X109523809Y-48024819D02*
X109523809Y-47024819D01*
X109523809Y-47024819D02*
X109428571Y-47167676D01*
X109428571Y-47167676D02*
X109333333Y-47262914D01*
X109333333Y-47262914D02*
X109238095Y-47310533D01*
X110380952Y-47453390D02*
X110285714Y-47405771D01*
X110285714Y-47405771D02*
X110238095Y-47358152D01*
X110238095Y-47358152D02*
X110190476Y-47262914D01*
X110190476Y-47262914D02*
X110190476Y-47215295D01*
X110190476Y-47215295D02*
X110238095Y-47120057D01*
X110238095Y-47120057D02*
X110285714Y-47072438D01*
X110285714Y-47072438D02*
X110380952Y-47024819D01*
X110380952Y-47024819D02*
X110571428Y-47024819D01*
X110571428Y-47024819D02*
X110666666Y-47072438D01*
X110666666Y-47072438D02*
X110714285Y-47120057D01*
X110714285Y-47120057D02*
X110761904Y-47215295D01*
X110761904Y-47215295D02*
X110761904Y-47262914D01*
X110761904Y-47262914D02*
X110714285Y-47358152D01*
X110714285Y-47358152D02*
X110666666Y-47405771D01*
X110666666Y-47405771D02*
X110571428Y-47453390D01*
X110571428Y-47453390D02*
X110380952Y-47453390D01*
X110380952Y-47453390D02*
X110285714Y-47501009D01*
X110285714Y-47501009D02*
X110238095Y-47548628D01*
X110238095Y-47548628D02*
X110190476Y-47643866D01*
X110190476Y-47643866D02*
X110190476Y-47834342D01*
X110190476Y-47834342D02*
X110238095Y-47929580D01*
X110238095Y-47929580D02*
X110285714Y-47977200D01*
X110285714Y-47977200D02*
X110380952Y-48024819D01*
X110380952Y-48024819D02*
X110571428Y-48024819D01*
X110571428Y-48024819D02*
X110666666Y-47977200D01*
X110666666Y-47977200D02*
X110714285Y-47929580D01*
X110714285Y-47929580D02*
X110761904Y-47834342D01*
X110761904Y-47834342D02*
X110761904Y-47643866D01*
X110761904Y-47643866D02*
X110714285Y-47548628D01*
X110714285Y-47548628D02*
X110666666Y-47501009D01*
X110666666Y-47501009D02*
X110571428Y-47453390D01*
X32833333Y-11284819D02*
X32500000Y-10808628D01*
X32261905Y-11284819D02*
X32261905Y-10284819D01*
X32261905Y-10284819D02*
X32642857Y-10284819D01*
X32642857Y-10284819D02*
X32738095Y-10332438D01*
X32738095Y-10332438D02*
X32785714Y-10380057D01*
X32785714Y-10380057D02*
X32833333Y-10475295D01*
X32833333Y-10475295D02*
X32833333Y-10618152D01*
X32833333Y-10618152D02*
X32785714Y-10713390D01*
X32785714Y-10713390D02*
X32738095Y-10761009D01*
X32738095Y-10761009D02*
X32642857Y-10808628D01*
X32642857Y-10808628D02*
X32261905Y-10808628D01*
X33404762Y-10713390D02*
X33309524Y-10665771D01*
X33309524Y-10665771D02*
X33261905Y-10618152D01*
X33261905Y-10618152D02*
X33214286Y-10522914D01*
X33214286Y-10522914D02*
X33214286Y-10475295D01*
X33214286Y-10475295D02*
X33261905Y-10380057D01*
X33261905Y-10380057D02*
X33309524Y-10332438D01*
X33309524Y-10332438D02*
X33404762Y-10284819D01*
X33404762Y-10284819D02*
X33595238Y-10284819D01*
X33595238Y-10284819D02*
X33690476Y-10332438D01*
X33690476Y-10332438D02*
X33738095Y-10380057D01*
X33738095Y-10380057D02*
X33785714Y-10475295D01*
X33785714Y-10475295D02*
X33785714Y-10522914D01*
X33785714Y-10522914D02*
X33738095Y-10618152D01*
X33738095Y-10618152D02*
X33690476Y-10665771D01*
X33690476Y-10665771D02*
X33595238Y-10713390D01*
X33595238Y-10713390D02*
X33404762Y-10713390D01*
X33404762Y-10713390D02*
X33309524Y-10761009D01*
X33309524Y-10761009D02*
X33261905Y-10808628D01*
X33261905Y-10808628D02*
X33214286Y-10903866D01*
X33214286Y-10903866D02*
X33214286Y-11094342D01*
X33214286Y-11094342D02*
X33261905Y-11189580D01*
X33261905Y-11189580D02*
X33309524Y-11237200D01*
X33309524Y-11237200D02*
X33404762Y-11284819D01*
X33404762Y-11284819D02*
X33595238Y-11284819D01*
X33595238Y-11284819D02*
X33690476Y-11237200D01*
X33690476Y-11237200D02*
X33738095Y-11189580D01*
X33738095Y-11189580D02*
X33785714Y-11094342D01*
X33785714Y-11094342D02*
X33785714Y-10903866D01*
X33785714Y-10903866D02*
X33738095Y-10808628D01*
X33738095Y-10808628D02*
X33690476Y-10761009D01*
X33690476Y-10761009D02*
X33595238Y-10713390D01*
X165190476Y-55654819D02*
X165190476Y-56369104D01*
X165190476Y-56369104D02*
X165142857Y-56511961D01*
X165142857Y-56511961D02*
X165047619Y-56607200D01*
X165047619Y-56607200D02*
X164904762Y-56654819D01*
X164904762Y-56654819D02*
X164809524Y-56654819D01*
X166190476Y-56654819D02*
X165619048Y-56654819D01*
X165904762Y-56654819D02*
X165904762Y-55654819D01*
X165904762Y-55654819D02*
X165809524Y-55797676D01*
X165809524Y-55797676D02*
X165714286Y-55892914D01*
X165714286Y-55892914D02*
X165619048Y-55940533D01*
X166571429Y-55750057D02*
X166619048Y-55702438D01*
X166619048Y-55702438D02*
X166714286Y-55654819D01*
X166714286Y-55654819D02*
X166952381Y-55654819D01*
X166952381Y-55654819D02*
X167047619Y-55702438D01*
X167047619Y-55702438D02*
X167095238Y-55750057D01*
X167095238Y-55750057D02*
X167142857Y-55845295D01*
X167142857Y-55845295D02*
X167142857Y-55940533D01*
X167142857Y-55940533D02*
X167095238Y-56083390D01*
X167095238Y-56083390D02*
X166523810Y-56654819D01*
X166523810Y-56654819D02*
X167142857Y-56654819D01*
X64857142Y-11929580D02*
X64809523Y-11977200D01*
X64809523Y-11977200D02*
X64666666Y-12024819D01*
X64666666Y-12024819D02*
X64571428Y-12024819D01*
X64571428Y-12024819D02*
X64428571Y-11977200D01*
X64428571Y-11977200D02*
X64333333Y-11881961D01*
X64333333Y-11881961D02*
X64285714Y-11786723D01*
X64285714Y-11786723D02*
X64238095Y-11596247D01*
X64238095Y-11596247D02*
X64238095Y-11453390D01*
X64238095Y-11453390D02*
X64285714Y-11262914D01*
X64285714Y-11262914D02*
X64333333Y-11167676D01*
X64333333Y-11167676D02*
X64428571Y-11072438D01*
X64428571Y-11072438D02*
X64571428Y-11024819D01*
X64571428Y-11024819D02*
X64666666Y-11024819D01*
X64666666Y-11024819D02*
X64809523Y-11072438D01*
X64809523Y-11072438D02*
X64857142Y-11120057D01*
X65714285Y-11358152D02*
X65714285Y-12024819D01*
X65476190Y-10977200D02*
X65238095Y-11691485D01*
X65238095Y-11691485D02*
X65857142Y-11691485D01*
X66428571Y-11024819D02*
X66523809Y-11024819D01*
X66523809Y-11024819D02*
X66619047Y-11072438D01*
X66619047Y-11072438D02*
X66666666Y-11120057D01*
X66666666Y-11120057D02*
X66714285Y-11215295D01*
X66714285Y-11215295D02*
X66761904Y-11405771D01*
X66761904Y-11405771D02*
X66761904Y-11643866D01*
X66761904Y-11643866D02*
X66714285Y-11834342D01*
X66714285Y-11834342D02*
X66666666Y-11929580D01*
X66666666Y-11929580D02*
X66619047Y-11977200D01*
X66619047Y-11977200D02*
X66523809Y-12024819D01*
X66523809Y-12024819D02*
X66428571Y-12024819D01*
X66428571Y-12024819D02*
X66333333Y-11977200D01*
X66333333Y-11977200D02*
X66285714Y-11929580D01*
X66285714Y-11929580D02*
X66238095Y-11834342D01*
X66238095Y-11834342D02*
X66190476Y-11643866D01*
X66190476Y-11643866D02*
X66190476Y-11405771D01*
X66190476Y-11405771D02*
X66238095Y-11215295D01*
X66238095Y-11215295D02*
X66285714Y-11120057D01*
X66285714Y-11120057D02*
X66333333Y-11072438D01*
X66333333Y-11072438D02*
X66428571Y-11024819D01*
X12666666Y-51124819D02*
X12666666Y-51839104D01*
X12666666Y-51839104D02*
X12619047Y-51981961D01*
X12619047Y-51981961D02*
X12523809Y-52077200D01*
X12523809Y-52077200D02*
X12380952Y-52124819D01*
X12380952Y-52124819D02*
X12285714Y-52124819D01*
X13285714Y-51553390D02*
X13190476Y-51505771D01*
X13190476Y-51505771D02*
X13142857Y-51458152D01*
X13142857Y-51458152D02*
X13095238Y-51362914D01*
X13095238Y-51362914D02*
X13095238Y-51315295D01*
X13095238Y-51315295D02*
X13142857Y-51220057D01*
X13142857Y-51220057D02*
X13190476Y-51172438D01*
X13190476Y-51172438D02*
X13285714Y-51124819D01*
X13285714Y-51124819D02*
X13476190Y-51124819D01*
X13476190Y-51124819D02*
X13571428Y-51172438D01*
X13571428Y-51172438D02*
X13619047Y-51220057D01*
X13619047Y-51220057D02*
X13666666Y-51315295D01*
X13666666Y-51315295D02*
X13666666Y-51362914D01*
X13666666Y-51362914D02*
X13619047Y-51458152D01*
X13619047Y-51458152D02*
X13571428Y-51505771D01*
X13571428Y-51505771D02*
X13476190Y-51553390D01*
X13476190Y-51553390D02*
X13285714Y-51553390D01*
X13285714Y-51553390D02*
X13190476Y-51601009D01*
X13190476Y-51601009D02*
X13142857Y-51648628D01*
X13142857Y-51648628D02*
X13095238Y-51743866D01*
X13095238Y-51743866D02*
X13095238Y-51934342D01*
X13095238Y-51934342D02*
X13142857Y-52029580D01*
X13142857Y-52029580D02*
X13190476Y-52077200D01*
X13190476Y-52077200D02*
X13285714Y-52124819D01*
X13285714Y-52124819D02*
X13476190Y-52124819D01*
X13476190Y-52124819D02*
X13571428Y-52077200D01*
X13571428Y-52077200D02*
X13619047Y-52029580D01*
X13619047Y-52029580D02*
X13666666Y-51934342D01*
X13666666Y-51934342D02*
X13666666Y-51743866D01*
X13666666Y-51743866D02*
X13619047Y-51648628D01*
X13619047Y-51648628D02*
X13571428Y-51601009D01*
X13571428Y-51601009D02*
X13476190Y-51553390D01*
X35357142Y-10929580D02*
X35309523Y-10977200D01*
X35309523Y-10977200D02*
X35166666Y-11024819D01*
X35166666Y-11024819D02*
X35071428Y-11024819D01*
X35071428Y-11024819D02*
X34928571Y-10977200D01*
X34928571Y-10977200D02*
X34833333Y-10881961D01*
X34833333Y-10881961D02*
X34785714Y-10786723D01*
X34785714Y-10786723D02*
X34738095Y-10596247D01*
X34738095Y-10596247D02*
X34738095Y-10453390D01*
X34738095Y-10453390D02*
X34785714Y-10262914D01*
X34785714Y-10262914D02*
X34833333Y-10167676D01*
X34833333Y-10167676D02*
X34928571Y-10072438D01*
X34928571Y-10072438D02*
X35071428Y-10024819D01*
X35071428Y-10024819D02*
X35166666Y-10024819D01*
X35166666Y-10024819D02*
X35309523Y-10072438D01*
X35309523Y-10072438D02*
X35357142Y-10120057D01*
X35690476Y-10024819D02*
X36309523Y-10024819D01*
X36309523Y-10024819D02*
X35976190Y-10405771D01*
X35976190Y-10405771D02*
X36119047Y-10405771D01*
X36119047Y-10405771D02*
X36214285Y-10453390D01*
X36214285Y-10453390D02*
X36261904Y-10501009D01*
X36261904Y-10501009D02*
X36309523Y-10596247D01*
X36309523Y-10596247D02*
X36309523Y-10834342D01*
X36309523Y-10834342D02*
X36261904Y-10929580D01*
X36261904Y-10929580D02*
X36214285Y-10977200D01*
X36214285Y-10977200D02*
X36119047Y-11024819D01*
X36119047Y-11024819D02*
X35833333Y-11024819D01*
X35833333Y-11024819D02*
X35738095Y-10977200D01*
X35738095Y-10977200D02*
X35690476Y-10929580D01*
X37166666Y-10024819D02*
X36976190Y-10024819D01*
X36976190Y-10024819D02*
X36880952Y-10072438D01*
X36880952Y-10072438D02*
X36833333Y-10120057D01*
X36833333Y-10120057D02*
X36738095Y-10262914D01*
X36738095Y-10262914D02*
X36690476Y-10453390D01*
X36690476Y-10453390D02*
X36690476Y-10834342D01*
X36690476Y-10834342D02*
X36738095Y-10929580D01*
X36738095Y-10929580D02*
X36785714Y-10977200D01*
X36785714Y-10977200D02*
X36880952Y-11024819D01*
X36880952Y-11024819D02*
X37071428Y-11024819D01*
X37071428Y-11024819D02*
X37166666Y-10977200D01*
X37166666Y-10977200D02*
X37214285Y-10929580D01*
X37214285Y-10929580D02*
X37261904Y-10834342D01*
X37261904Y-10834342D02*
X37261904Y-10596247D01*
X37261904Y-10596247D02*
X37214285Y-10501009D01*
X37214285Y-10501009D02*
X37166666Y-10453390D01*
X37166666Y-10453390D02*
X37071428Y-10405771D01*
X37071428Y-10405771D02*
X36880952Y-10405771D01*
X36880952Y-10405771D02*
X36785714Y-10453390D01*
X36785714Y-10453390D02*
X36738095Y-10501009D01*
X36738095Y-10501009D02*
X36690476Y-10596247D01*
X104357142Y-47679580D02*
X104309523Y-47727200D01*
X104309523Y-47727200D02*
X104166666Y-47774819D01*
X104166666Y-47774819D02*
X104071428Y-47774819D01*
X104071428Y-47774819D02*
X103928571Y-47727200D01*
X103928571Y-47727200D02*
X103833333Y-47631961D01*
X103833333Y-47631961D02*
X103785714Y-47536723D01*
X103785714Y-47536723D02*
X103738095Y-47346247D01*
X103738095Y-47346247D02*
X103738095Y-47203390D01*
X103738095Y-47203390D02*
X103785714Y-47012914D01*
X103785714Y-47012914D02*
X103833333Y-46917676D01*
X103833333Y-46917676D02*
X103928571Y-46822438D01*
X103928571Y-46822438D02*
X104071428Y-46774819D01*
X104071428Y-46774819D02*
X104166666Y-46774819D01*
X104166666Y-46774819D02*
X104309523Y-46822438D01*
X104309523Y-46822438D02*
X104357142Y-46870057D01*
X105309523Y-47774819D02*
X104738095Y-47774819D01*
X105023809Y-47774819D02*
X105023809Y-46774819D01*
X105023809Y-46774819D02*
X104928571Y-46917676D01*
X104928571Y-46917676D02*
X104833333Y-47012914D01*
X104833333Y-47012914D02*
X104738095Y-47060533D01*
X105642857Y-46774819D02*
X106309523Y-46774819D01*
X106309523Y-46774819D02*
X105880952Y-47774819D01*
X129857142Y-53699580D02*
X129809523Y-53747200D01*
X129809523Y-53747200D02*
X129666666Y-53794819D01*
X129666666Y-53794819D02*
X129571428Y-53794819D01*
X129571428Y-53794819D02*
X129428571Y-53747200D01*
X129428571Y-53747200D02*
X129333333Y-53651961D01*
X129333333Y-53651961D02*
X129285714Y-53556723D01*
X129285714Y-53556723D02*
X129238095Y-53366247D01*
X129238095Y-53366247D02*
X129238095Y-53223390D01*
X129238095Y-53223390D02*
X129285714Y-53032914D01*
X129285714Y-53032914D02*
X129333333Y-52937676D01*
X129333333Y-52937676D02*
X129428571Y-52842438D01*
X129428571Y-52842438D02*
X129571428Y-52794819D01*
X129571428Y-52794819D02*
X129666666Y-52794819D01*
X129666666Y-52794819D02*
X129809523Y-52842438D01*
X129809523Y-52842438D02*
X129857142Y-52890057D01*
X130761904Y-52794819D02*
X130285714Y-52794819D01*
X130285714Y-52794819D02*
X130238095Y-53271009D01*
X130238095Y-53271009D02*
X130285714Y-53223390D01*
X130285714Y-53223390D02*
X130380952Y-53175771D01*
X130380952Y-53175771D02*
X130619047Y-53175771D01*
X130619047Y-53175771D02*
X130714285Y-53223390D01*
X130714285Y-53223390D02*
X130761904Y-53271009D01*
X130761904Y-53271009D02*
X130809523Y-53366247D01*
X130809523Y-53366247D02*
X130809523Y-53604342D01*
X130809523Y-53604342D02*
X130761904Y-53699580D01*
X130761904Y-53699580D02*
X130714285Y-53747200D01*
X130714285Y-53747200D02*
X130619047Y-53794819D01*
X130619047Y-53794819D02*
X130380952Y-53794819D01*
X130380952Y-53794819D02*
X130285714Y-53747200D01*
X130285714Y-53747200D02*
X130238095Y-53699580D01*
X131761904Y-53794819D02*
X131190476Y-53794819D01*
X131476190Y-53794819D02*
X131476190Y-52794819D01*
X131476190Y-52794819D02*
X131380952Y-52937676D01*
X131380952Y-52937676D02*
X131285714Y-53032914D01*
X131285714Y-53032914D02*
X131190476Y-53080533D01*
X154857142Y-22284819D02*
X154523809Y-21808628D01*
X154285714Y-22284819D02*
X154285714Y-21284819D01*
X154285714Y-21284819D02*
X154666666Y-21284819D01*
X154666666Y-21284819D02*
X154761904Y-21332438D01*
X154761904Y-21332438D02*
X154809523Y-21380057D01*
X154809523Y-21380057D02*
X154857142Y-21475295D01*
X154857142Y-21475295D02*
X154857142Y-21618152D01*
X154857142Y-21618152D02*
X154809523Y-21713390D01*
X154809523Y-21713390D02*
X154761904Y-21761009D01*
X154761904Y-21761009D02*
X154666666Y-21808628D01*
X154666666Y-21808628D02*
X154285714Y-21808628D01*
X155809523Y-22284819D02*
X155238095Y-22284819D01*
X155523809Y-22284819D02*
X155523809Y-21284819D01*
X155523809Y-21284819D02*
X155428571Y-21427676D01*
X155428571Y-21427676D02*
X155333333Y-21522914D01*
X155333333Y-21522914D02*
X155238095Y-21570533D01*
X156714285Y-21284819D02*
X156238095Y-21284819D01*
X156238095Y-21284819D02*
X156190476Y-21761009D01*
X156190476Y-21761009D02*
X156238095Y-21713390D01*
X156238095Y-21713390D02*
X156333333Y-21665771D01*
X156333333Y-21665771D02*
X156571428Y-21665771D01*
X156571428Y-21665771D02*
X156666666Y-21713390D01*
X156666666Y-21713390D02*
X156714285Y-21761009D01*
X156714285Y-21761009D02*
X156761904Y-21856247D01*
X156761904Y-21856247D02*
X156761904Y-22094342D01*
X156761904Y-22094342D02*
X156714285Y-22189580D01*
X156714285Y-22189580D02*
X156666666Y-22237200D01*
X156666666Y-22237200D02*
X156571428Y-22284819D01*
X156571428Y-22284819D02*
X156333333Y-22284819D01*
X156333333Y-22284819D02*
X156238095Y-22237200D01*
X156238095Y-22237200D02*
X156190476Y-22189580D01*
X119238095Y-47554819D02*
X119238095Y-48364342D01*
X119238095Y-48364342D02*
X119285714Y-48459580D01*
X119285714Y-48459580D02*
X119333333Y-48507200D01*
X119333333Y-48507200D02*
X119428571Y-48554819D01*
X119428571Y-48554819D02*
X119619047Y-48554819D01*
X119619047Y-48554819D02*
X119714285Y-48507200D01*
X119714285Y-48507200D02*
X119761904Y-48459580D01*
X119761904Y-48459580D02*
X119809523Y-48364342D01*
X119809523Y-48364342D02*
X119809523Y-47554819D01*
X120190476Y-47554819D02*
X120857142Y-47554819D01*
X120857142Y-47554819D02*
X120428571Y-48554819D01*
X88761905Y-74054819D02*
X88761905Y-74864342D01*
X88761905Y-74864342D02*
X88809524Y-74959580D01*
X88809524Y-74959580D02*
X88857143Y-75007200D01*
X88857143Y-75007200D02*
X88952381Y-75054819D01*
X88952381Y-75054819D02*
X89142857Y-75054819D01*
X89142857Y-75054819D02*
X89238095Y-75007200D01*
X89238095Y-75007200D02*
X89285714Y-74959580D01*
X89285714Y-74959580D02*
X89333333Y-74864342D01*
X89333333Y-74864342D02*
X89333333Y-74054819D01*
X90333333Y-75054819D02*
X89761905Y-75054819D01*
X90047619Y-75054819D02*
X90047619Y-74054819D01*
X90047619Y-74054819D02*
X89952381Y-74197676D01*
X89952381Y-74197676D02*
X89857143Y-74292914D01*
X89857143Y-74292914D02*
X89761905Y-74340533D01*
X90952381Y-74054819D02*
X91047619Y-74054819D01*
X91047619Y-74054819D02*
X91142857Y-74102438D01*
X91142857Y-74102438D02*
X91190476Y-74150057D01*
X91190476Y-74150057D02*
X91238095Y-74245295D01*
X91238095Y-74245295D02*
X91285714Y-74435771D01*
X91285714Y-74435771D02*
X91285714Y-74673866D01*
X91285714Y-74673866D02*
X91238095Y-74864342D01*
X91238095Y-74864342D02*
X91190476Y-74959580D01*
X91190476Y-74959580D02*
X91142857Y-75007200D01*
X91142857Y-75007200D02*
X91047619Y-75054819D01*
X91047619Y-75054819D02*
X90952381Y-75054819D01*
X90952381Y-75054819D02*
X90857143Y-75007200D01*
X90857143Y-75007200D02*
X90809524Y-74959580D01*
X90809524Y-74959580D02*
X90761905Y-74864342D01*
X90761905Y-74864342D02*
X90714286Y-74673866D01*
X90714286Y-74673866D02*
X90714286Y-74435771D01*
X90714286Y-74435771D02*
X90761905Y-74245295D01*
X90761905Y-74245295D02*
X90809524Y-74150057D01*
X90809524Y-74150057D02*
X90857143Y-74102438D01*
X90857143Y-74102438D02*
X90952381Y-74054819D01*
X125357142Y-53699580D02*
X125309523Y-53747200D01*
X125309523Y-53747200D02*
X125166666Y-53794819D01*
X125166666Y-53794819D02*
X125071428Y-53794819D01*
X125071428Y-53794819D02*
X124928571Y-53747200D01*
X124928571Y-53747200D02*
X124833333Y-53651961D01*
X124833333Y-53651961D02*
X124785714Y-53556723D01*
X124785714Y-53556723D02*
X124738095Y-53366247D01*
X124738095Y-53366247D02*
X124738095Y-53223390D01*
X124738095Y-53223390D02*
X124785714Y-53032914D01*
X124785714Y-53032914D02*
X124833333Y-52937676D01*
X124833333Y-52937676D02*
X124928571Y-52842438D01*
X124928571Y-52842438D02*
X125071428Y-52794819D01*
X125071428Y-52794819D02*
X125166666Y-52794819D01*
X125166666Y-52794819D02*
X125309523Y-52842438D01*
X125309523Y-52842438D02*
X125357142Y-52890057D01*
X125690476Y-52794819D02*
X126309523Y-52794819D01*
X126309523Y-52794819D02*
X125976190Y-53175771D01*
X125976190Y-53175771D02*
X126119047Y-53175771D01*
X126119047Y-53175771D02*
X126214285Y-53223390D01*
X126214285Y-53223390D02*
X126261904Y-53271009D01*
X126261904Y-53271009D02*
X126309523Y-53366247D01*
X126309523Y-53366247D02*
X126309523Y-53604342D01*
X126309523Y-53604342D02*
X126261904Y-53699580D01*
X126261904Y-53699580D02*
X126214285Y-53747200D01*
X126214285Y-53747200D02*
X126119047Y-53794819D01*
X126119047Y-53794819D02*
X125833333Y-53794819D01*
X125833333Y-53794819D02*
X125738095Y-53747200D01*
X125738095Y-53747200D02*
X125690476Y-53699580D01*
X126642857Y-52794819D02*
X127261904Y-52794819D01*
X127261904Y-52794819D02*
X126928571Y-53175771D01*
X126928571Y-53175771D02*
X127071428Y-53175771D01*
X127071428Y-53175771D02*
X127166666Y-53223390D01*
X127166666Y-53223390D02*
X127214285Y-53271009D01*
X127214285Y-53271009D02*
X127261904Y-53366247D01*
X127261904Y-53366247D02*
X127261904Y-53604342D01*
X127261904Y-53604342D02*
X127214285Y-53699580D01*
X127214285Y-53699580D02*
X127166666Y-53747200D01*
X127166666Y-53747200D02*
X127071428Y-53794819D01*
X127071428Y-53794819D02*
X126785714Y-53794819D01*
X126785714Y-53794819D02*
X126690476Y-53747200D01*
X126690476Y-53747200D02*
X126642857Y-53699580D01*
X134357142Y-53784819D02*
X134023809Y-53308628D01*
X133785714Y-53784819D02*
X133785714Y-52784819D01*
X133785714Y-52784819D02*
X134166666Y-52784819D01*
X134166666Y-52784819D02*
X134261904Y-52832438D01*
X134261904Y-52832438D02*
X134309523Y-52880057D01*
X134309523Y-52880057D02*
X134357142Y-52975295D01*
X134357142Y-52975295D02*
X134357142Y-53118152D01*
X134357142Y-53118152D02*
X134309523Y-53213390D01*
X134309523Y-53213390D02*
X134261904Y-53261009D01*
X134261904Y-53261009D02*
X134166666Y-53308628D01*
X134166666Y-53308628D02*
X133785714Y-53308628D01*
X135309523Y-53784819D02*
X134738095Y-53784819D01*
X135023809Y-53784819D02*
X135023809Y-52784819D01*
X135023809Y-52784819D02*
X134928571Y-52927676D01*
X134928571Y-52927676D02*
X134833333Y-53022914D01*
X134833333Y-53022914D02*
X134738095Y-53070533D01*
X135690476Y-52880057D02*
X135738095Y-52832438D01*
X135738095Y-52832438D02*
X135833333Y-52784819D01*
X135833333Y-52784819D02*
X136071428Y-52784819D01*
X136071428Y-52784819D02*
X136166666Y-52832438D01*
X136166666Y-52832438D02*
X136214285Y-52880057D01*
X136214285Y-52880057D02*
X136261904Y-52975295D01*
X136261904Y-52975295D02*
X136261904Y-53070533D01*
X136261904Y-53070533D02*
X136214285Y-53213390D01*
X136214285Y-53213390D02*
X135642857Y-53784819D01*
X135642857Y-53784819D02*
X136261904Y-53784819D01*
X134357142Y-50199580D02*
X134309523Y-50247200D01*
X134309523Y-50247200D02*
X134166666Y-50294819D01*
X134166666Y-50294819D02*
X134071428Y-50294819D01*
X134071428Y-50294819D02*
X133928571Y-50247200D01*
X133928571Y-50247200D02*
X133833333Y-50151961D01*
X133833333Y-50151961D02*
X133785714Y-50056723D01*
X133785714Y-50056723D02*
X133738095Y-49866247D01*
X133738095Y-49866247D02*
X133738095Y-49723390D01*
X133738095Y-49723390D02*
X133785714Y-49532914D01*
X133785714Y-49532914D02*
X133833333Y-49437676D01*
X133833333Y-49437676D02*
X133928571Y-49342438D01*
X133928571Y-49342438D02*
X134071428Y-49294819D01*
X134071428Y-49294819D02*
X134166666Y-49294819D01*
X134166666Y-49294819D02*
X134309523Y-49342438D01*
X134309523Y-49342438D02*
X134357142Y-49390057D01*
X134738095Y-49390057D02*
X134785714Y-49342438D01*
X134785714Y-49342438D02*
X134880952Y-49294819D01*
X134880952Y-49294819D02*
X135119047Y-49294819D01*
X135119047Y-49294819D02*
X135214285Y-49342438D01*
X135214285Y-49342438D02*
X135261904Y-49390057D01*
X135261904Y-49390057D02*
X135309523Y-49485295D01*
X135309523Y-49485295D02*
X135309523Y-49580533D01*
X135309523Y-49580533D02*
X135261904Y-49723390D01*
X135261904Y-49723390D02*
X134690476Y-50294819D01*
X134690476Y-50294819D02*
X135309523Y-50294819D01*
X136261904Y-50294819D02*
X135690476Y-50294819D01*
X135976190Y-50294819D02*
X135976190Y-49294819D01*
X135976190Y-49294819D02*
X135880952Y-49437676D01*
X135880952Y-49437676D02*
X135785714Y-49532914D01*
X135785714Y-49532914D02*
X135690476Y-49580533D01*
X165666666Y-40654819D02*
X165666666Y-41369104D01*
X165666666Y-41369104D02*
X165619047Y-41511961D01*
X165619047Y-41511961D02*
X165523809Y-41607200D01*
X165523809Y-41607200D02*
X165380952Y-41654819D01*
X165380952Y-41654819D02*
X165285714Y-41654819D01*
X166047619Y-40654819D02*
X166714285Y-40654819D01*
X166714285Y-40654819D02*
X166285714Y-41654819D01*
X41261905Y-13054819D02*
X41261905Y-12054819D01*
X41261905Y-12054819D02*
X41500000Y-12054819D01*
X41500000Y-12054819D02*
X41642857Y-12102438D01*
X41642857Y-12102438D02*
X41738095Y-12197676D01*
X41738095Y-12197676D02*
X41785714Y-12292914D01*
X41785714Y-12292914D02*
X41833333Y-12483390D01*
X41833333Y-12483390D02*
X41833333Y-12626247D01*
X41833333Y-12626247D02*
X41785714Y-12816723D01*
X41785714Y-12816723D02*
X41738095Y-12911961D01*
X41738095Y-12911961D02*
X41642857Y-13007200D01*
X41642857Y-13007200D02*
X41500000Y-13054819D01*
X41500000Y-13054819D02*
X41261905Y-13054819D01*
X42785714Y-13054819D02*
X42214286Y-13054819D01*
X42500000Y-13054819D02*
X42500000Y-12054819D01*
X42500000Y-12054819D02*
X42404762Y-12197676D01*
X42404762Y-12197676D02*
X42309524Y-12292914D01*
X42309524Y-12292914D02*
X42214286Y-12340533D01*
X125357142Y-67429580D02*
X125309523Y-67477200D01*
X125309523Y-67477200D02*
X125166666Y-67524819D01*
X125166666Y-67524819D02*
X125071428Y-67524819D01*
X125071428Y-67524819D02*
X124928571Y-67477200D01*
X124928571Y-67477200D02*
X124833333Y-67381961D01*
X124833333Y-67381961D02*
X124785714Y-67286723D01*
X124785714Y-67286723D02*
X124738095Y-67096247D01*
X124738095Y-67096247D02*
X124738095Y-66953390D01*
X124738095Y-66953390D02*
X124785714Y-66762914D01*
X124785714Y-66762914D02*
X124833333Y-66667676D01*
X124833333Y-66667676D02*
X124928571Y-66572438D01*
X124928571Y-66572438D02*
X125071428Y-66524819D01*
X125071428Y-66524819D02*
X125166666Y-66524819D01*
X125166666Y-66524819D02*
X125309523Y-66572438D01*
X125309523Y-66572438D02*
X125357142Y-66620057D01*
X125690476Y-66524819D02*
X126309523Y-66524819D01*
X126309523Y-66524819D02*
X125976190Y-66905771D01*
X125976190Y-66905771D02*
X126119047Y-66905771D01*
X126119047Y-66905771D02*
X126214285Y-66953390D01*
X126214285Y-66953390D02*
X126261904Y-67001009D01*
X126261904Y-67001009D02*
X126309523Y-67096247D01*
X126309523Y-67096247D02*
X126309523Y-67334342D01*
X126309523Y-67334342D02*
X126261904Y-67429580D01*
X126261904Y-67429580D02*
X126214285Y-67477200D01*
X126214285Y-67477200D02*
X126119047Y-67524819D01*
X126119047Y-67524819D02*
X125833333Y-67524819D01*
X125833333Y-67524819D02*
X125738095Y-67477200D01*
X125738095Y-67477200D02*
X125690476Y-67429580D01*
X127166666Y-66858152D02*
X127166666Y-67524819D01*
X126928571Y-66477200D02*
X126690476Y-67191485D01*
X126690476Y-67191485D02*
X127309523Y-67191485D01*
X140333333Y-21179580D02*
X140285714Y-21227200D01*
X140285714Y-21227200D02*
X140142857Y-21274819D01*
X140142857Y-21274819D02*
X140047619Y-21274819D01*
X140047619Y-21274819D02*
X139904762Y-21227200D01*
X139904762Y-21227200D02*
X139809524Y-21131961D01*
X139809524Y-21131961D02*
X139761905Y-21036723D01*
X139761905Y-21036723D02*
X139714286Y-20846247D01*
X139714286Y-20846247D02*
X139714286Y-20703390D01*
X139714286Y-20703390D02*
X139761905Y-20512914D01*
X139761905Y-20512914D02*
X139809524Y-20417676D01*
X139809524Y-20417676D02*
X139904762Y-20322438D01*
X139904762Y-20322438D02*
X140047619Y-20274819D01*
X140047619Y-20274819D02*
X140142857Y-20274819D01*
X140142857Y-20274819D02*
X140285714Y-20322438D01*
X140285714Y-20322438D02*
X140333333Y-20370057D01*
X141190476Y-20608152D02*
X141190476Y-21274819D01*
X140952381Y-20227200D02*
X140714286Y-20941485D01*
X140714286Y-20941485D02*
X141333333Y-20941485D01*
X166238095Y-83654819D02*
X166238095Y-82654819D01*
X166238095Y-83131009D02*
X166809523Y-83131009D01*
X166809523Y-83654819D02*
X166809523Y-82654819D01*
X167238095Y-82750057D02*
X167285714Y-82702438D01*
X167285714Y-82702438D02*
X167380952Y-82654819D01*
X167380952Y-82654819D02*
X167619047Y-82654819D01*
X167619047Y-82654819D02*
X167714285Y-82702438D01*
X167714285Y-82702438D02*
X167761904Y-82750057D01*
X167761904Y-82750057D02*
X167809523Y-82845295D01*
X167809523Y-82845295D02*
X167809523Y-82940533D01*
X167809523Y-82940533D02*
X167761904Y-83083390D01*
X167761904Y-83083390D02*
X167190476Y-83654819D01*
X167190476Y-83654819D02*
X167809523Y-83654819D01*
X99857142Y-63699580D02*
X99809523Y-63747200D01*
X99809523Y-63747200D02*
X99666666Y-63794819D01*
X99666666Y-63794819D02*
X99571428Y-63794819D01*
X99571428Y-63794819D02*
X99428571Y-63747200D01*
X99428571Y-63747200D02*
X99333333Y-63651961D01*
X99333333Y-63651961D02*
X99285714Y-63556723D01*
X99285714Y-63556723D02*
X99238095Y-63366247D01*
X99238095Y-63366247D02*
X99238095Y-63223390D01*
X99238095Y-63223390D02*
X99285714Y-63032914D01*
X99285714Y-63032914D02*
X99333333Y-62937676D01*
X99333333Y-62937676D02*
X99428571Y-62842438D01*
X99428571Y-62842438D02*
X99571428Y-62794819D01*
X99571428Y-62794819D02*
X99666666Y-62794819D01*
X99666666Y-62794819D02*
X99809523Y-62842438D01*
X99809523Y-62842438D02*
X99857142Y-62890057D01*
X100714285Y-63128152D02*
X100714285Y-63794819D01*
X100476190Y-62747200D02*
X100238095Y-63461485D01*
X100238095Y-63461485D02*
X100857142Y-63461485D01*
X101285714Y-63794819D02*
X101476190Y-63794819D01*
X101476190Y-63794819D02*
X101571428Y-63747200D01*
X101571428Y-63747200D02*
X101619047Y-63699580D01*
X101619047Y-63699580D02*
X101714285Y-63556723D01*
X101714285Y-63556723D02*
X101761904Y-63366247D01*
X101761904Y-63366247D02*
X101761904Y-62985295D01*
X101761904Y-62985295D02*
X101714285Y-62890057D01*
X101714285Y-62890057D02*
X101666666Y-62842438D01*
X101666666Y-62842438D02*
X101571428Y-62794819D01*
X101571428Y-62794819D02*
X101380952Y-62794819D01*
X101380952Y-62794819D02*
X101285714Y-62842438D01*
X101285714Y-62842438D02*
X101238095Y-62890057D01*
X101238095Y-62890057D02*
X101190476Y-62985295D01*
X101190476Y-62985295D02*
X101190476Y-63223390D01*
X101190476Y-63223390D02*
X101238095Y-63318628D01*
X101238095Y-63318628D02*
X101285714Y-63366247D01*
X101285714Y-63366247D02*
X101380952Y-63413866D01*
X101380952Y-63413866D02*
X101571428Y-63413866D01*
X101571428Y-63413866D02*
X101666666Y-63366247D01*
X101666666Y-63366247D02*
X101714285Y-63318628D01*
X101714285Y-63318628D02*
X101761904Y-63223390D01*
X123857142Y-17679580D02*
X123809523Y-17727200D01*
X123809523Y-17727200D02*
X123666666Y-17774819D01*
X123666666Y-17774819D02*
X123571428Y-17774819D01*
X123571428Y-17774819D02*
X123428571Y-17727200D01*
X123428571Y-17727200D02*
X123333333Y-17631961D01*
X123333333Y-17631961D02*
X123285714Y-17536723D01*
X123285714Y-17536723D02*
X123238095Y-17346247D01*
X123238095Y-17346247D02*
X123238095Y-17203390D01*
X123238095Y-17203390D02*
X123285714Y-17012914D01*
X123285714Y-17012914D02*
X123333333Y-16917676D01*
X123333333Y-16917676D02*
X123428571Y-16822438D01*
X123428571Y-16822438D02*
X123571428Y-16774819D01*
X123571428Y-16774819D02*
X123666666Y-16774819D01*
X123666666Y-16774819D02*
X123809523Y-16822438D01*
X123809523Y-16822438D02*
X123857142Y-16870057D01*
X124809523Y-17774819D02*
X124238095Y-17774819D01*
X124523809Y-17774819D02*
X124523809Y-16774819D01*
X124523809Y-16774819D02*
X124428571Y-16917676D01*
X124428571Y-16917676D02*
X124333333Y-17012914D01*
X124333333Y-17012914D02*
X124238095Y-17060533D01*
X125142857Y-16774819D02*
X125761904Y-16774819D01*
X125761904Y-16774819D02*
X125428571Y-17155771D01*
X125428571Y-17155771D02*
X125571428Y-17155771D01*
X125571428Y-17155771D02*
X125666666Y-17203390D01*
X125666666Y-17203390D02*
X125714285Y-17251009D01*
X125714285Y-17251009D02*
X125761904Y-17346247D01*
X125761904Y-17346247D02*
X125761904Y-17584342D01*
X125761904Y-17584342D02*
X125714285Y-17679580D01*
X125714285Y-17679580D02*
X125666666Y-17727200D01*
X125666666Y-17727200D02*
X125571428Y-17774819D01*
X125571428Y-17774819D02*
X125285714Y-17774819D01*
X125285714Y-17774819D02*
X125190476Y-17727200D01*
X125190476Y-17727200D02*
X125142857Y-17679580D01*
X153454761Y-43304819D02*
X153121428Y-42828628D01*
X152883333Y-43304819D02*
X152883333Y-42304819D01*
X152883333Y-42304819D02*
X153264285Y-42304819D01*
X153264285Y-42304819D02*
X153359523Y-42352438D01*
X153359523Y-42352438D02*
X153407142Y-42400057D01*
X153407142Y-42400057D02*
X153454761Y-42495295D01*
X153454761Y-42495295D02*
X153454761Y-42638152D01*
X153454761Y-42638152D02*
X153407142Y-42733390D01*
X153407142Y-42733390D02*
X153359523Y-42781009D01*
X153359523Y-42781009D02*
X153264285Y-42828628D01*
X153264285Y-42828628D02*
X152883333Y-42828628D01*
X153740476Y-42304819D02*
X154073809Y-43304819D01*
X154073809Y-43304819D02*
X154407142Y-42304819D01*
X155264285Y-43304819D02*
X154692857Y-43304819D01*
X154978571Y-43304819D02*
X154978571Y-42304819D01*
X154978571Y-42304819D02*
X154883333Y-42447676D01*
X154883333Y-42447676D02*
X154788095Y-42542914D01*
X154788095Y-42542914D02*
X154692857Y-42590533D01*
X35357142Y-18284819D02*
X35023809Y-17808628D01*
X34785714Y-18284819D02*
X34785714Y-17284819D01*
X34785714Y-17284819D02*
X35166666Y-17284819D01*
X35166666Y-17284819D02*
X35261904Y-17332438D01*
X35261904Y-17332438D02*
X35309523Y-17380057D01*
X35309523Y-17380057D02*
X35357142Y-17475295D01*
X35357142Y-17475295D02*
X35357142Y-17618152D01*
X35357142Y-17618152D02*
X35309523Y-17713390D01*
X35309523Y-17713390D02*
X35261904Y-17761009D01*
X35261904Y-17761009D02*
X35166666Y-17808628D01*
X35166666Y-17808628D02*
X34785714Y-17808628D01*
X35738095Y-17380057D02*
X35785714Y-17332438D01*
X35785714Y-17332438D02*
X35880952Y-17284819D01*
X35880952Y-17284819D02*
X36119047Y-17284819D01*
X36119047Y-17284819D02*
X36214285Y-17332438D01*
X36214285Y-17332438D02*
X36261904Y-17380057D01*
X36261904Y-17380057D02*
X36309523Y-17475295D01*
X36309523Y-17475295D02*
X36309523Y-17570533D01*
X36309523Y-17570533D02*
X36261904Y-17713390D01*
X36261904Y-17713390D02*
X35690476Y-18284819D01*
X35690476Y-18284819D02*
X36309523Y-18284819D01*
X36642857Y-17284819D02*
X37261904Y-17284819D01*
X37261904Y-17284819D02*
X36928571Y-17665771D01*
X36928571Y-17665771D02*
X37071428Y-17665771D01*
X37071428Y-17665771D02*
X37166666Y-17713390D01*
X37166666Y-17713390D02*
X37214285Y-17761009D01*
X37214285Y-17761009D02*
X37261904Y-17856247D01*
X37261904Y-17856247D02*
X37261904Y-18094342D01*
X37261904Y-18094342D02*
X37214285Y-18189580D01*
X37214285Y-18189580D02*
X37166666Y-18237200D01*
X37166666Y-18237200D02*
X37071428Y-18284819D01*
X37071428Y-18284819D02*
X36785714Y-18284819D01*
X36785714Y-18284819D02*
X36690476Y-18237200D01*
X36690476Y-18237200D02*
X36642857Y-18189580D01*
X110357142Y-24929580D02*
X110309523Y-24977200D01*
X110309523Y-24977200D02*
X110166666Y-25024819D01*
X110166666Y-25024819D02*
X110071428Y-25024819D01*
X110071428Y-25024819D02*
X109928571Y-24977200D01*
X109928571Y-24977200D02*
X109833333Y-24881961D01*
X109833333Y-24881961D02*
X109785714Y-24786723D01*
X109785714Y-24786723D02*
X109738095Y-24596247D01*
X109738095Y-24596247D02*
X109738095Y-24453390D01*
X109738095Y-24453390D02*
X109785714Y-24262914D01*
X109785714Y-24262914D02*
X109833333Y-24167676D01*
X109833333Y-24167676D02*
X109928571Y-24072438D01*
X109928571Y-24072438D02*
X110071428Y-24024819D01*
X110071428Y-24024819D02*
X110166666Y-24024819D01*
X110166666Y-24024819D02*
X110309523Y-24072438D01*
X110309523Y-24072438D02*
X110357142Y-24120057D01*
X111214285Y-24358152D02*
X111214285Y-25024819D01*
X110976190Y-23977200D02*
X110738095Y-24691485D01*
X110738095Y-24691485D02*
X111357142Y-24691485D01*
X112166666Y-24024819D02*
X111976190Y-24024819D01*
X111976190Y-24024819D02*
X111880952Y-24072438D01*
X111880952Y-24072438D02*
X111833333Y-24120057D01*
X111833333Y-24120057D02*
X111738095Y-24262914D01*
X111738095Y-24262914D02*
X111690476Y-24453390D01*
X111690476Y-24453390D02*
X111690476Y-24834342D01*
X111690476Y-24834342D02*
X111738095Y-24929580D01*
X111738095Y-24929580D02*
X111785714Y-24977200D01*
X111785714Y-24977200D02*
X111880952Y-25024819D01*
X111880952Y-25024819D02*
X112071428Y-25024819D01*
X112071428Y-25024819D02*
X112166666Y-24977200D01*
X112166666Y-24977200D02*
X112214285Y-24929580D01*
X112214285Y-24929580D02*
X112261904Y-24834342D01*
X112261904Y-24834342D02*
X112261904Y-24596247D01*
X112261904Y-24596247D02*
X112214285Y-24501009D01*
X112214285Y-24501009D02*
X112166666Y-24453390D01*
X112166666Y-24453390D02*
X112071428Y-24405771D01*
X112071428Y-24405771D02*
X111880952Y-24405771D01*
X111880952Y-24405771D02*
X111785714Y-24453390D01*
X111785714Y-24453390D02*
X111738095Y-24501009D01*
X111738095Y-24501009D02*
X111690476Y-24596247D01*
X71190476Y-51124819D02*
X71190476Y-51839104D01*
X71190476Y-51839104D02*
X71142857Y-51981961D01*
X71142857Y-51981961D02*
X71047619Y-52077200D01*
X71047619Y-52077200D02*
X70904762Y-52124819D01*
X70904762Y-52124819D02*
X70809524Y-52124819D01*
X72190476Y-52124819D02*
X71619048Y-52124819D01*
X71904762Y-52124819D02*
X71904762Y-51124819D01*
X71904762Y-51124819D02*
X71809524Y-51267676D01*
X71809524Y-51267676D02*
X71714286Y-51362914D01*
X71714286Y-51362914D02*
X71619048Y-51410533D01*
X73047619Y-51124819D02*
X72857143Y-51124819D01*
X72857143Y-51124819D02*
X72761905Y-51172438D01*
X72761905Y-51172438D02*
X72714286Y-51220057D01*
X72714286Y-51220057D02*
X72619048Y-51362914D01*
X72619048Y-51362914D02*
X72571429Y-51553390D01*
X72571429Y-51553390D02*
X72571429Y-51934342D01*
X72571429Y-51934342D02*
X72619048Y-52029580D01*
X72619048Y-52029580D02*
X72666667Y-52077200D01*
X72666667Y-52077200D02*
X72761905Y-52124819D01*
X72761905Y-52124819D02*
X72952381Y-52124819D01*
X72952381Y-52124819D02*
X73047619Y-52077200D01*
X73047619Y-52077200D02*
X73095238Y-52029580D01*
X73095238Y-52029580D02*
X73142857Y-51934342D01*
X73142857Y-51934342D02*
X73142857Y-51696247D01*
X73142857Y-51696247D02*
X73095238Y-51601009D01*
X73095238Y-51601009D02*
X73047619Y-51553390D01*
X73047619Y-51553390D02*
X72952381Y-51505771D01*
X72952381Y-51505771D02*
X72761905Y-51505771D01*
X72761905Y-51505771D02*
X72666667Y-51553390D01*
X72666667Y-51553390D02*
X72619048Y-51601009D01*
X72619048Y-51601009D02*
X72571429Y-51696247D01*
X49666666Y-51124819D02*
X49666666Y-51839104D01*
X49666666Y-51839104D02*
X49619047Y-51981961D01*
X49619047Y-51981961D02*
X49523809Y-52077200D01*
X49523809Y-52077200D02*
X49380952Y-52124819D01*
X49380952Y-52124819D02*
X49285714Y-52124819D01*
X50190476Y-52124819D02*
X50380952Y-52124819D01*
X50380952Y-52124819D02*
X50476190Y-52077200D01*
X50476190Y-52077200D02*
X50523809Y-52029580D01*
X50523809Y-52029580D02*
X50619047Y-51886723D01*
X50619047Y-51886723D02*
X50666666Y-51696247D01*
X50666666Y-51696247D02*
X50666666Y-51315295D01*
X50666666Y-51315295D02*
X50619047Y-51220057D01*
X50619047Y-51220057D02*
X50571428Y-51172438D01*
X50571428Y-51172438D02*
X50476190Y-51124819D01*
X50476190Y-51124819D02*
X50285714Y-51124819D01*
X50285714Y-51124819D02*
X50190476Y-51172438D01*
X50190476Y-51172438D02*
X50142857Y-51220057D01*
X50142857Y-51220057D02*
X50095238Y-51315295D01*
X50095238Y-51315295D02*
X50095238Y-51553390D01*
X50095238Y-51553390D02*
X50142857Y-51648628D01*
X50142857Y-51648628D02*
X50190476Y-51696247D01*
X50190476Y-51696247D02*
X50285714Y-51743866D01*
X50285714Y-51743866D02*
X50476190Y-51743866D01*
X50476190Y-51743866D02*
X50571428Y-51696247D01*
X50571428Y-51696247D02*
X50619047Y-51648628D01*
X50619047Y-51648628D02*
X50666666Y-51553390D01*
X33238095Y-23054819D02*
X33238095Y-23864342D01*
X33238095Y-23864342D02*
X33285714Y-23959580D01*
X33285714Y-23959580D02*
X33333333Y-24007200D01*
X33333333Y-24007200D02*
X33428571Y-24054819D01*
X33428571Y-24054819D02*
X33619047Y-24054819D01*
X33619047Y-24054819D02*
X33714285Y-24007200D01*
X33714285Y-24007200D02*
X33761904Y-23959580D01*
X33761904Y-23959580D02*
X33809523Y-23864342D01*
X33809523Y-23864342D02*
X33809523Y-23054819D01*
X34190476Y-23054819D02*
X34809523Y-23054819D01*
X34809523Y-23054819D02*
X34476190Y-23435771D01*
X34476190Y-23435771D02*
X34619047Y-23435771D01*
X34619047Y-23435771D02*
X34714285Y-23483390D01*
X34714285Y-23483390D02*
X34761904Y-23531009D01*
X34761904Y-23531009D02*
X34809523Y-23626247D01*
X34809523Y-23626247D02*
X34809523Y-23864342D01*
X34809523Y-23864342D02*
X34761904Y-23959580D01*
X34761904Y-23959580D02*
X34714285Y-24007200D01*
X34714285Y-24007200D02*
X34619047Y-24054819D01*
X34619047Y-24054819D02*
X34333333Y-24054819D01*
X34333333Y-24054819D02*
X34238095Y-24007200D01*
X34238095Y-24007200D02*
X34190476Y-23959580D01*
X21833333Y-12784819D02*
X21500000Y-12308628D01*
X21261905Y-12784819D02*
X21261905Y-11784819D01*
X21261905Y-11784819D02*
X21642857Y-11784819D01*
X21642857Y-11784819D02*
X21738095Y-11832438D01*
X21738095Y-11832438D02*
X21785714Y-11880057D01*
X21785714Y-11880057D02*
X21833333Y-11975295D01*
X21833333Y-11975295D02*
X21833333Y-12118152D01*
X21833333Y-12118152D02*
X21785714Y-12213390D01*
X21785714Y-12213390D02*
X21738095Y-12261009D01*
X21738095Y-12261009D02*
X21642857Y-12308628D01*
X21642857Y-12308628D02*
X21261905Y-12308628D01*
X22690476Y-12118152D02*
X22690476Y-12784819D01*
X22452381Y-11737200D02*
X22214286Y-12451485D01*
X22214286Y-12451485D02*
X22833333Y-12451485D01*
X109333333Y-55024819D02*
X109000000Y-54548628D01*
X108761905Y-55024819D02*
X108761905Y-54024819D01*
X108761905Y-54024819D02*
X109142857Y-54024819D01*
X109142857Y-54024819D02*
X109238095Y-54072438D01*
X109238095Y-54072438D02*
X109285714Y-54120057D01*
X109285714Y-54120057D02*
X109333333Y-54215295D01*
X109333333Y-54215295D02*
X109333333Y-54358152D01*
X109333333Y-54358152D02*
X109285714Y-54453390D01*
X109285714Y-54453390D02*
X109238095Y-54501009D01*
X109238095Y-54501009D02*
X109142857Y-54548628D01*
X109142857Y-54548628D02*
X108761905Y-54548628D01*
X109714286Y-54120057D02*
X109761905Y-54072438D01*
X109761905Y-54072438D02*
X109857143Y-54024819D01*
X109857143Y-54024819D02*
X110095238Y-54024819D01*
X110095238Y-54024819D02*
X110190476Y-54072438D01*
X110190476Y-54072438D02*
X110238095Y-54120057D01*
X110238095Y-54120057D02*
X110285714Y-54215295D01*
X110285714Y-54215295D02*
X110285714Y-54310533D01*
X110285714Y-54310533D02*
X110238095Y-54453390D01*
X110238095Y-54453390D02*
X109666667Y-55024819D01*
X109666667Y-55024819D02*
X110285714Y-55024819D01*
X35833333Y-14699580D02*
X35785714Y-14747200D01*
X35785714Y-14747200D02*
X35642857Y-14794819D01*
X35642857Y-14794819D02*
X35547619Y-14794819D01*
X35547619Y-14794819D02*
X35404762Y-14747200D01*
X35404762Y-14747200D02*
X35309524Y-14651961D01*
X35309524Y-14651961D02*
X35261905Y-14556723D01*
X35261905Y-14556723D02*
X35214286Y-14366247D01*
X35214286Y-14366247D02*
X35214286Y-14223390D01*
X35214286Y-14223390D02*
X35261905Y-14032914D01*
X35261905Y-14032914D02*
X35309524Y-13937676D01*
X35309524Y-13937676D02*
X35404762Y-13842438D01*
X35404762Y-13842438D02*
X35547619Y-13794819D01*
X35547619Y-13794819D02*
X35642857Y-13794819D01*
X35642857Y-13794819D02*
X35785714Y-13842438D01*
X35785714Y-13842438D02*
X35833333Y-13890057D01*
X36690476Y-13794819D02*
X36500000Y-13794819D01*
X36500000Y-13794819D02*
X36404762Y-13842438D01*
X36404762Y-13842438D02*
X36357143Y-13890057D01*
X36357143Y-13890057D02*
X36261905Y-14032914D01*
X36261905Y-14032914D02*
X36214286Y-14223390D01*
X36214286Y-14223390D02*
X36214286Y-14604342D01*
X36214286Y-14604342D02*
X36261905Y-14699580D01*
X36261905Y-14699580D02*
X36309524Y-14747200D01*
X36309524Y-14747200D02*
X36404762Y-14794819D01*
X36404762Y-14794819D02*
X36595238Y-14794819D01*
X36595238Y-14794819D02*
X36690476Y-14747200D01*
X36690476Y-14747200D02*
X36738095Y-14699580D01*
X36738095Y-14699580D02*
X36785714Y-14604342D01*
X36785714Y-14604342D02*
X36785714Y-14366247D01*
X36785714Y-14366247D02*
X36738095Y-14271009D01*
X36738095Y-14271009D02*
X36690476Y-14223390D01*
X36690476Y-14223390D02*
X36595238Y-14175771D01*
X36595238Y-14175771D02*
X36404762Y-14175771D01*
X36404762Y-14175771D02*
X36309524Y-14223390D01*
X36309524Y-14223390D02*
X36261905Y-14271009D01*
X36261905Y-14271009D02*
X36214286Y-14366247D01*
X71190476Y-71124819D02*
X71190476Y-71839104D01*
X71190476Y-71839104D02*
X71142857Y-71981961D01*
X71142857Y-71981961D02*
X71047619Y-72077200D01*
X71047619Y-72077200D02*
X70904762Y-72124819D01*
X70904762Y-72124819D02*
X70809524Y-72124819D01*
X72190476Y-72124819D02*
X71619048Y-72124819D01*
X71904762Y-72124819D02*
X71904762Y-71124819D01*
X71904762Y-71124819D02*
X71809524Y-71267676D01*
X71809524Y-71267676D02*
X71714286Y-71362914D01*
X71714286Y-71362914D02*
X71619048Y-71410533D01*
X72761905Y-71553390D02*
X72666667Y-71505771D01*
X72666667Y-71505771D02*
X72619048Y-71458152D01*
X72619048Y-71458152D02*
X72571429Y-71362914D01*
X72571429Y-71362914D02*
X72571429Y-71315295D01*
X72571429Y-71315295D02*
X72619048Y-71220057D01*
X72619048Y-71220057D02*
X72666667Y-71172438D01*
X72666667Y-71172438D02*
X72761905Y-71124819D01*
X72761905Y-71124819D02*
X72952381Y-71124819D01*
X72952381Y-71124819D02*
X73047619Y-71172438D01*
X73047619Y-71172438D02*
X73095238Y-71220057D01*
X73095238Y-71220057D02*
X73142857Y-71315295D01*
X73142857Y-71315295D02*
X73142857Y-71362914D01*
X73142857Y-71362914D02*
X73095238Y-71458152D01*
X73095238Y-71458152D02*
X73047619Y-71505771D01*
X73047619Y-71505771D02*
X72952381Y-71553390D01*
X72952381Y-71553390D02*
X72761905Y-71553390D01*
X72761905Y-71553390D02*
X72666667Y-71601009D01*
X72666667Y-71601009D02*
X72619048Y-71648628D01*
X72619048Y-71648628D02*
X72571429Y-71743866D01*
X72571429Y-71743866D02*
X72571429Y-71934342D01*
X72571429Y-71934342D02*
X72619048Y-72029580D01*
X72619048Y-72029580D02*
X72666667Y-72077200D01*
X72666667Y-72077200D02*
X72761905Y-72124819D01*
X72761905Y-72124819D02*
X72952381Y-72124819D01*
X72952381Y-72124819D02*
X73047619Y-72077200D01*
X73047619Y-72077200D02*
X73095238Y-72029580D01*
X73095238Y-72029580D02*
X73142857Y-71934342D01*
X73142857Y-71934342D02*
X73142857Y-71743866D01*
X73142857Y-71743866D02*
X73095238Y-71648628D01*
X73095238Y-71648628D02*
X73047619Y-71601009D01*
X73047619Y-71601009D02*
X72952381Y-71553390D01*
X26333333Y-12784819D02*
X26000000Y-12308628D01*
X25761905Y-12784819D02*
X25761905Y-11784819D01*
X25761905Y-11784819D02*
X26142857Y-11784819D01*
X26142857Y-11784819D02*
X26238095Y-11832438D01*
X26238095Y-11832438D02*
X26285714Y-11880057D01*
X26285714Y-11880057D02*
X26333333Y-11975295D01*
X26333333Y-11975295D02*
X26333333Y-12118152D01*
X26333333Y-12118152D02*
X26285714Y-12213390D01*
X26285714Y-12213390D02*
X26238095Y-12261009D01*
X26238095Y-12261009D02*
X26142857Y-12308628D01*
X26142857Y-12308628D02*
X25761905Y-12308628D01*
X27238095Y-11784819D02*
X26761905Y-11784819D01*
X26761905Y-11784819D02*
X26714286Y-12261009D01*
X26714286Y-12261009D02*
X26761905Y-12213390D01*
X26761905Y-12213390D02*
X26857143Y-12165771D01*
X26857143Y-12165771D02*
X27095238Y-12165771D01*
X27095238Y-12165771D02*
X27190476Y-12213390D01*
X27190476Y-12213390D02*
X27238095Y-12261009D01*
X27238095Y-12261009D02*
X27285714Y-12356247D01*
X27285714Y-12356247D02*
X27285714Y-12594342D01*
X27285714Y-12594342D02*
X27238095Y-12689580D01*
X27238095Y-12689580D02*
X27190476Y-12737200D01*
X27190476Y-12737200D02*
X27095238Y-12784819D01*
X27095238Y-12784819D02*
X26857143Y-12784819D01*
X26857143Y-12784819D02*
X26761905Y-12737200D01*
X26761905Y-12737200D02*
X26714286Y-12689580D01*
X64366666Y-34684819D02*
X64366666Y-35399104D01*
X64366666Y-35399104D02*
X64319047Y-35541961D01*
X64319047Y-35541961D02*
X64223809Y-35637200D01*
X64223809Y-35637200D02*
X64080952Y-35684819D01*
X64080952Y-35684819D02*
X63985714Y-35684819D01*
X64795238Y-34780057D02*
X64842857Y-34732438D01*
X64842857Y-34732438D02*
X64938095Y-34684819D01*
X64938095Y-34684819D02*
X65176190Y-34684819D01*
X65176190Y-34684819D02*
X65271428Y-34732438D01*
X65271428Y-34732438D02*
X65319047Y-34780057D01*
X65319047Y-34780057D02*
X65366666Y-34875295D01*
X65366666Y-34875295D02*
X65366666Y-34970533D01*
X65366666Y-34970533D02*
X65319047Y-35113390D01*
X65319047Y-35113390D02*
X64747619Y-35684819D01*
X64747619Y-35684819D02*
X65366666Y-35684819D01*
X144357142Y-21699580D02*
X144309523Y-21747200D01*
X144309523Y-21747200D02*
X144166666Y-21794819D01*
X144166666Y-21794819D02*
X144071428Y-21794819D01*
X144071428Y-21794819D02*
X143928571Y-21747200D01*
X143928571Y-21747200D02*
X143833333Y-21651961D01*
X143833333Y-21651961D02*
X143785714Y-21556723D01*
X143785714Y-21556723D02*
X143738095Y-21366247D01*
X143738095Y-21366247D02*
X143738095Y-21223390D01*
X143738095Y-21223390D02*
X143785714Y-21032914D01*
X143785714Y-21032914D02*
X143833333Y-20937676D01*
X143833333Y-20937676D02*
X143928571Y-20842438D01*
X143928571Y-20842438D02*
X144071428Y-20794819D01*
X144071428Y-20794819D02*
X144166666Y-20794819D01*
X144166666Y-20794819D02*
X144309523Y-20842438D01*
X144309523Y-20842438D02*
X144357142Y-20890057D01*
X145214285Y-21128152D02*
X145214285Y-21794819D01*
X144976190Y-20747200D02*
X144738095Y-21461485D01*
X144738095Y-21461485D02*
X145357142Y-21461485D01*
X145642857Y-20794819D02*
X146261904Y-20794819D01*
X146261904Y-20794819D02*
X145928571Y-21175771D01*
X145928571Y-21175771D02*
X146071428Y-21175771D01*
X146071428Y-21175771D02*
X146166666Y-21223390D01*
X146166666Y-21223390D02*
X146214285Y-21271009D01*
X146214285Y-21271009D02*
X146261904Y-21366247D01*
X146261904Y-21366247D02*
X146261904Y-21604342D01*
X146261904Y-21604342D02*
X146214285Y-21699580D01*
X146214285Y-21699580D02*
X146166666Y-21747200D01*
X146166666Y-21747200D02*
X146071428Y-21794819D01*
X146071428Y-21794819D02*
X145785714Y-21794819D01*
X145785714Y-21794819D02*
X145690476Y-21747200D01*
X145690476Y-21747200D02*
X145642857Y-21699580D01*
X159357142Y-25784819D02*
X159023809Y-25308628D01*
X158785714Y-25784819D02*
X158785714Y-24784819D01*
X158785714Y-24784819D02*
X159166666Y-24784819D01*
X159166666Y-24784819D02*
X159261904Y-24832438D01*
X159261904Y-24832438D02*
X159309523Y-24880057D01*
X159309523Y-24880057D02*
X159357142Y-24975295D01*
X159357142Y-24975295D02*
X159357142Y-25118152D01*
X159357142Y-25118152D02*
X159309523Y-25213390D01*
X159309523Y-25213390D02*
X159261904Y-25261009D01*
X159261904Y-25261009D02*
X159166666Y-25308628D01*
X159166666Y-25308628D02*
X158785714Y-25308628D01*
X160309523Y-25784819D02*
X159738095Y-25784819D01*
X160023809Y-25784819D02*
X160023809Y-24784819D01*
X160023809Y-24784819D02*
X159928571Y-24927676D01*
X159928571Y-24927676D02*
X159833333Y-25022914D01*
X159833333Y-25022914D02*
X159738095Y-25070533D01*
X160642857Y-24784819D02*
X161309523Y-24784819D01*
X161309523Y-24784819D02*
X160880952Y-25784819D01*
X104357142Y-74284819D02*
X104023809Y-73808628D01*
X103785714Y-74284819D02*
X103785714Y-73284819D01*
X103785714Y-73284819D02*
X104166666Y-73284819D01*
X104166666Y-73284819D02*
X104261904Y-73332438D01*
X104261904Y-73332438D02*
X104309523Y-73380057D01*
X104309523Y-73380057D02*
X104357142Y-73475295D01*
X104357142Y-73475295D02*
X104357142Y-73618152D01*
X104357142Y-73618152D02*
X104309523Y-73713390D01*
X104309523Y-73713390D02*
X104261904Y-73761009D01*
X104261904Y-73761009D02*
X104166666Y-73808628D01*
X104166666Y-73808628D02*
X103785714Y-73808628D01*
X105309523Y-74284819D02*
X104738095Y-74284819D01*
X105023809Y-74284819D02*
X105023809Y-73284819D01*
X105023809Y-73284819D02*
X104928571Y-73427676D01*
X104928571Y-73427676D02*
X104833333Y-73522914D01*
X104833333Y-73522914D02*
X104738095Y-73570533D01*
X105785714Y-74284819D02*
X105976190Y-74284819D01*
X105976190Y-74284819D02*
X106071428Y-74237200D01*
X106071428Y-74237200D02*
X106119047Y-74189580D01*
X106119047Y-74189580D02*
X106214285Y-74046723D01*
X106214285Y-74046723D02*
X106261904Y-73856247D01*
X106261904Y-73856247D02*
X106261904Y-73475295D01*
X106261904Y-73475295D02*
X106214285Y-73380057D01*
X106214285Y-73380057D02*
X106166666Y-73332438D01*
X106166666Y-73332438D02*
X106071428Y-73284819D01*
X106071428Y-73284819D02*
X105880952Y-73284819D01*
X105880952Y-73284819D02*
X105785714Y-73332438D01*
X105785714Y-73332438D02*
X105738095Y-73380057D01*
X105738095Y-73380057D02*
X105690476Y-73475295D01*
X105690476Y-73475295D02*
X105690476Y-73713390D01*
X105690476Y-73713390D02*
X105738095Y-73808628D01*
X105738095Y-73808628D02*
X105785714Y-73856247D01*
X105785714Y-73856247D02*
X105880952Y-73903866D01*
X105880952Y-73903866D02*
X106071428Y-73903866D01*
X106071428Y-73903866D02*
X106166666Y-73856247D01*
X106166666Y-73856247D02*
X106214285Y-73808628D01*
X106214285Y-73808628D02*
X106261904Y-73713390D01*
X150357142Y-22284819D02*
X150023809Y-21808628D01*
X149785714Y-22284819D02*
X149785714Y-21284819D01*
X149785714Y-21284819D02*
X150166666Y-21284819D01*
X150166666Y-21284819D02*
X150261904Y-21332438D01*
X150261904Y-21332438D02*
X150309523Y-21380057D01*
X150309523Y-21380057D02*
X150357142Y-21475295D01*
X150357142Y-21475295D02*
X150357142Y-21618152D01*
X150357142Y-21618152D02*
X150309523Y-21713390D01*
X150309523Y-21713390D02*
X150261904Y-21761009D01*
X150261904Y-21761009D02*
X150166666Y-21808628D01*
X150166666Y-21808628D02*
X149785714Y-21808628D01*
X151309523Y-22284819D02*
X150738095Y-22284819D01*
X151023809Y-22284819D02*
X151023809Y-21284819D01*
X151023809Y-21284819D02*
X150928571Y-21427676D01*
X150928571Y-21427676D02*
X150833333Y-21522914D01*
X150833333Y-21522914D02*
X150738095Y-21570533D01*
X152166666Y-21284819D02*
X151976190Y-21284819D01*
X151976190Y-21284819D02*
X151880952Y-21332438D01*
X151880952Y-21332438D02*
X151833333Y-21380057D01*
X151833333Y-21380057D02*
X151738095Y-21522914D01*
X151738095Y-21522914D02*
X151690476Y-21713390D01*
X151690476Y-21713390D02*
X151690476Y-22094342D01*
X151690476Y-22094342D02*
X151738095Y-22189580D01*
X151738095Y-22189580D02*
X151785714Y-22237200D01*
X151785714Y-22237200D02*
X151880952Y-22284819D01*
X151880952Y-22284819D02*
X152071428Y-22284819D01*
X152071428Y-22284819D02*
X152166666Y-22237200D01*
X152166666Y-22237200D02*
X152214285Y-22189580D01*
X152214285Y-22189580D02*
X152261904Y-22094342D01*
X152261904Y-22094342D02*
X152261904Y-21856247D01*
X152261904Y-21856247D02*
X152214285Y-21761009D01*
X152214285Y-21761009D02*
X152166666Y-21713390D01*
X152166666Y-21713390D02*
X152071428Y-21665771D01*
X152071428Y-21665771D02*
X151880952Y-21665771D01*
X151880952Y-21665771D02*
X151785714Y-21713390D01*
X151785714Y-21713390D02*
X151738095Y-21761009D01*
X151738095Y-21761009D02*
X151690476Y-21856247D01*
X123857142Y-21429580D02*
X123809523Y-21477200D01*
X123809523Y-21477200D02*
X123666666Y-21524819D01*
X123666666Y-21524819D02*
X123571428Y-21524819D01*
X123571428Y-21524819D02*
X123428571Y-21477200D01*
X123428571Y-21477200D02*
X123333333Y-21381961D01*
X123333333Y-21381961D02*
X123285714Y-21286723D01*
X123285714Y-21286723D02*
X123238095Y-21096247D01*
X123238095Y-21096247D02*
X123238095Y-20953390D01*
X123238095Y-20953390D02*
X123285714Y-20762914D01*
X123285714Y-20762914D02*
X123333333Y-20667676D01*
X123333333Y-20667676D02*
X123428571Y-20572438D01*
X123428571Y-20572438D02*
X123571428Y-20524819D01*
X123571428Y-20524819D02*
X123666666Y-20524819D01*
X123666666Y-20524819D02*
X123809523Y-20572438D01*
X123809523Y-20572438D02*
X123857142Y-20620057D01*
X124714285Y-20858152D02*
X124714285Y-21524819D01*
X124476190Y-20477200D02*
X124238095Y-21191485D01*
X124238095Y-21191485D02*
X124857142Y-21191485D01*
X125190476Y-20620057D02*
X125238095Y-20572438D01*
X125238095Y-20572438D02*
X125333333Y-20524819D01*
X125333333Y-20524819D02*
X125571428Y-20524819D01*
X125571428Y-20524819D02*
X125666666Y-20572438D01*
X125666666Y-20572438D02*
X125714285Y-20620057D01*
X125714285Y-20620057D02*
X125761904Y-20715295D01*
X125761904Y-20715295D02*
X125761904Y-20810533D01*
X125761904Y-20810533D02*
X125714285Y-20953390D01*
X125714285Y-20953390D02*
X125142857Y-21524819D01*
X125142857Y-21524819D02*
X125761904Y-21524819D01*
X108857142Y-51699580D02*
X108809523Y-51747200D01*
X108809523Y-51747200D02*
X108666666Y-51794819D01*
X108666666Y-51794819D02*
X108571428Y-51794819D01*
X108571428Y-51794819D02*
X108428571Y-51747200D01*
X108428571Y-51747200D02*
X108333333Y-51651961D01*
X108333333Y-51651961D02*
X108285714Y-51556723D01*
X108285714Y-51556723D02*
X108238095Y-51366247D01*
X108238095Y-51366247D02*
X108238095Y-51223390D01*
X108238095Y-51223390D02*
X108285714Y-51032914D01*
X108285714Y-51032914D02*
X108333333Y-50937676D01*
X108333333Y-50937676D02*
X108428571Y-50842438D01*
X108428571Y-50842438D02*
X108571428Y-50794819D01*
X108571428Y-50794819D02*
X108666666Y-50794819D01*
X108666666Y-50794819D02*
X108809523Y-50842438D01*
X108809523Y-50842438D02*
X108857142Y-50890057D01*
X109190476Y-50794819D02*
X109809523Y-50794819D01*
X109809523Y-50794819D02*
X109476190Y-51175771D01*
X109476190Y-51175771D02*
X109619047Y-51175771D01*
X109619047Y-51175771D02*
X109714285Y-51223390D01*
X109714285Y-51223390D02*
X109761904Y-51271009D01*
X109761904Y-51271009D02*
X109809523Y-51366247D01*
X109809523Y-51366247D02*
X109809523Y-51604342D01*
X109809523Y-51604342D02*
X109761904Y-51699580D01*
X109761904Y-51699580D02*
X109714285Y-51747200D01*
X109714285Y-51747200D02*
X109619047Y-51794819D01*
X109619047Y-51794819D02*
X109333333Y-51794819D01*
X109333333Y-51794819D02*
X109238095Y-51747200D01*
X109238095Y-51747200D02*
X109190476Y-51699580D01*
X110285714Y-51794819D02*
X110476190Y-51794819D01*
X110476190Y-51794819D02*
X110571428Y-51747200D01*
X110571428Y-51747200D02*
X110619047Y-51699580D01*
X110619047Y-51699580D02*
X110714285Y-51556723D01*
X110714285Y-51556723D02*
X110761904Y-51366247D01*
X110761904Y-51366247D02*
X110761904Y-50985295D01*
X110761904Y-50985295D02*
X110714285Y-50890057D01*
X110714285Y-50890057D02*
X110666666Y-50842438D01*
X110666666Y-50842438D02*
X110571428Y-50794819D01*
X110571428Y-50794819D02*
X110380952Y-50794819D01*
X110380952Y-50794819D02*
X110285714Y-50842438D01*
X110285714Y-50842438D02*
X110238095Y-50890057D01*
X110238095Y-50890057D02*
X110190476Y-50985295D01*
X110190476Y-50985295D02*
X110190476Y-51223390D01*
X110190476Y-51223390D02*
X110238095Y-51318628D01*
X110238095Y-51318628D02*
X110285714Y-51366247D01*
X110285714Y-51366247D02*
X110380952Y-51413866D01*
X110380952Y-51413866D02*
X110571428Y-51413866D01*
X110571428Y-51413866D02*
X110666666Y-51366247D01*
X110666666Y-51366247D02*
X110714285Y-51318628D01*
X110714285Y-51318628D02*
X110761904Y-51223390D01*
X148857142Y-21699580D02*
X148809523Y-21747200D01*
X148809523Y-21747200D02*
X148666666Y-21794819D01*
X148666666Y-21794819D02*
X148571428Y-21794819D01*
X148571428Y-21794819D02*
X148428571Y-21747200D01*
X148428571Y-21747200D02*
X148333333Y-21651961D01*
X148333333Y-21651961D02*
X148285714Y-21556723D01*
X148285714Y-21556723D02*
X148238095Y-21366247D01*
X148238095Y-21366247D02*
X148238095Y-21223390D01*
X148238095Y-21223390D02*
X148285714Y-21032914D01*
X148285714Y-21032914D02*
X148333333Y-20937676D01*
X148333333Y-20937676D02*
X148428571Y-20842438D01*
X148428571Y-20842438D02*
X148571428Y-20794819D01*
X148571428Y-20794819D02*
X148666666Y-20794819D01*
X148666666Y-20794819D02*
X148809523Y-20842438D01*
X148809523Y-20842438D02*
X148857142Y-20890057D01*
X149714285Y-21128152D02*
X149714285Y-21794819D01*
X149476190Y-20747200D02*
X149238095Y-21461485D01*
X149238095Y-21461485D02*
X149857142Y-21461485D01*
X150142857Y-20794819D02*
X150809523Y-20794819D01*
X150809523Y-20794819D02*
X150380952Y-21794819D01*
X100333333Y-54679580D02*
X100285714Y-54727200D01*
X100285714Y-54727200D02*
X100142857Y-54774819D01*
X100142857Y-54774819D02*
X100047619Y-54774819D01*
X100047619Y-54774819D02*
X99904762Y-54727200D01*
X99904762Y-54727200D02*
X99809524Y-54631961D01*
X99809524Y-54631961D02*
X99761905Y-54536723D01*
X99761905Y-54536723D02*
X99714286Y-54346247D01*
X99714286Y-54346247D02*
X99714286Y-54203390D01*
X99714286Y-54203390D02*
X99761905Y-54012914D01*
X99761905Y-54012914D02*
X99809524Y-53917676D01*
X99809524Y-53917676D02*
X99904762Y-53822438D01*
X99904762Y-53822438D02*
X100047619Y-53774819D01*
X100047619Y-53774819D02*
X100142857Y-53774819D01*
X100142857Y-53774819D02*
X100285714Y-53822438D01*
X100285714Y-53822438D02*
X100333333Y-53870057D01*
X100809524Y-54774819D02*
X101000000Y-54774819D01*
X101000000Y-54774819D02*
X101095238Y-54727200D01*
X101095238Y-54727200D02*
X101142857Y-54679580D01*
X101142857Y-54679580D02*
X101238095Y-54536723D01*
X101238095Y-54536723D02*
X101285714Y-54346247D01*
X101285714Y-54346247D02*
X101285714Y-53965295D01*
X101285714Y-53965295D02*
X101238095Y-53870057D01*
X101238095Y-53870057D02*
X101190476Y-53822438D01*
X101190476Y-53822438D02*
X101095238Y-53774819D01*
X101095238Y-53774819D02*
X100904762Y-53774819D01*
X100904762Y-53774819D02*
X100809524Y-53822438D01*
X100809524Y-53822438D02*
X100761905Y-53870057D01*
X100761905Y-53870057D02*
X100714286Y-53965295D01*
X100714286Y-53965295D02*
X100714286Y-54203390D01*
X100714286Y-54203390D02*
X100761905Y-54298628D01*
X100761905Y-54298628D02*
X100809524Y-54346247D01*
X100809524Y-54346247D02*
X100904762Y-54393866D01*
X100904762Y-54393866D02*
X101095238Y-54393866D01*
X101095238Y-54393866D02*
X101190476Y-54346247D01*
X101190476Y-54346247D02*
X101238095Y-54298628D01*
X101238095Y-54298628D02*
X101285714Y-54203390D01*
X164190476Y-79124819D02*
X164190476Y-79839104D01*
X164190476Y-79839104D02*
X164142857Y-79981961D01*
X164142857Y-79981961D02*
X164047619Y-80077200D01*
X164047619Y-80077200D02*
X163904762Y-80124819D01*
X163904762Y-80124819D02*
X163809524Y-80124819D01*
X165190476Y-80124819D02*
X164619048Y-80124819D01*
X164904762Y-80124819D02*
X164904762Y-79124819D01*
X164904762Y-79124819D02*
X164809524Y-79267676D01*
X164809524Y-79267676D02*
X164714286Y-79362914D01*
X164714286Y-79362914D02*
X164619048Y-79410533D01*
X166047619Y-79458152D02*
X166047619Y-80124819D01*
X165809524Y-79077200D02*
X165571429Y-79791485D01*
X165571429Y-79791485D02*
X166190476Y-79791485D01*
X115333333Y-21179580D02*
X115285714Y-21227200D01*
X115285714Y-21227200D02*
X115142857Y-21274819D01*
X115142857Y-21274819D02*
X115047619Y-21274819D01*
X115047619Y-21274819D02*
X114904762Y-21227200D01*
X114904762Y-21227200D02*
X114809524Y-21131961D01*
X114809524Y-21131961D02*
X114761905Y-21036723D01*
X114761905Y-21036723D02*
X114714286Y-20846247D01*
X114714286Y-20846247D02*
X114714286Y-20703390D01*
X114714286Y-20703390D02*
X114761905Y-20512914D01*
X114761905Y-20512914D02*
X114809524Y-20417676D01*
X114809524Y-20417676D02*
X114904762Y-20322438D01*
X114904762Y-20322438D02*
X115047619Y-20274819D01*
X115047619Y-20274819D02*
X115142857Y-20274819D01*
X115142857Y-20274819D02*
X115285714Y-20322438D01*
X115285714Y-20322438D02*
X115333333Y-20370057D01*
X115666667Y-20274819D02*
X116285714Y-20274819D01*
X116285714Y-20274819D02*
X115952381Y-20655771D01*
X115952381Y-20655771D02*
X116095238Y-20655771D01*
X116095238Y-20655771D02*
X116190476Y-20703390D01*
X116190476Y-20703390D02*
X116238095Y-20751009D01*
X116238095Y-20751009D02*
X116285714Y-20846247D01*
X116285714Y-20846247D02*
X116285714Y-21084342D01*
X116285714Y-21084342D02*
X116238095Y-21179580D01*
X116238095Y-21179580D02*
X116190476Y-21227200D01*
X116190476Y-21227200D02*
X116095238Y-21274819D01*
X116095238Y-21274819D02*
X115809524Y-21274819D01*
X115809524Y-21274819D02*
X115714286Y-21227200D01*
X115714286Y-21227200D02*
X115666667Y-21179580D01*
X138857142Y-50199580D02*
X138809523Y-50247200D01*
X138809523Y-50247200D02*
X138666666Y-50294819D01*
X138666666Y-50294819D02*
X138571428Y-50294819D01*
X138571428Y-50294819D02*
X138428571Y-50247200D01*
X138428571Y-50247200D02*
X138333333Y-50151961D01*
X138333333Y-50151961D02*
X138285714Y-50056723D01*
X138285714Y-50056723D02*
X138238095Y-49866247D01*
X138238095Y-49866247D02*
X138238095Y-49723390D01*
X138238095Y-49723390D02*
X138285714Y-49532914D01*
X138285714Y-49532914D02*
X138333333Y-49437676D01*
X138333333Y-49437676D02*
X138428571Y-49342438D01*
X138428571Y-49342438D02*
X138571428Y-49294819D01*
X138571428Y-49294819D02*
X138666666Y-49294819D01*
X138666666Y-49294819D02*
X138809523Y-49342438D01*
X138809523Y-49342438D02*
X138857142Y-49390057D01*
X139238095Y-49390057D02*
X139285714Y-49342438D01*
X139285714Y-49342438D02*
X139380952Y-49294819D01*
X139380952Y-49294819D02*
X139619047Y-49294819D01*
X139619047Y-49294819D02*
X139714285Y-49342438D01*
X139714285Y-49342438D02*
X139761904Y-49390057D01*
X139761904Y-49390057D02*
X139809523Y-49485295D01*
X139809523Y-49485295D02*
X139809523Y-49580533D01*
X139809523Y-49580533D02*
X139761904Y-49723390D01*
X139761904Y-49723390D02*
X139190476Y-50294819D01*
X139190476Y-50294819D02*
X139809523Y-50294819D01*
X140190476Y-49390057D02*
X140238095Y-49342438D01*
X140238095Y-49342438D02*
X140333333Y-49294819D01*
X140333333Y-49294819D02*
X140571428Y-49294819D01*
X140571428Y-49294819D02*
X140666666Y-49342438D01*
X140666666Y-49342438D02*
X140714285Y-49390057D01*
X140714285Y-49390057D02*
X140761904Y-49485295D01*
X140761904Y-49485295D02*
X140761904Y-49580533D01*
X140761904Y-49580533D02*
X140714285Y-49723390D01*
X140714285Y-49723390D02*
X140142857Y-50294819D01*
X140142857Y-50294819D02*
X140761904Y-50294819D01*
X153833333Y-21784819D02*
X153500000Y-21308628D01*
X153261905Y-21784819D02*
X153261905Y-20784819D01*
X153261905Y-20784819D02*
X153642857Y-20784819D01*
X153642857Y-20784819D02*
X153738095Y-20832438D01*
X153738095Y-20832438D02*
X153785714Y-20880057D01*
X153785714Y-20880057D02*
X153833333Y-20975295D01*
X153833333Y-20975295D02*
X153833333Y-21118152D01*
X153833333Y-21118152D02*
X153785714Y-21213390D01*
X153785714Y-21213390D02*
X153738095Y-21261009D01*
X153738095Y-21261009D02*
X153642857Y-21308628D01*
X153642857Y-21308628D02*
X153261905Y-21308628D01*
X154166667Y-20784819D02*
X154785714Y-20784819D01*
X154785714Y-20784819D02*
X154452381Y-21165771D01*
X154452381Y-21165771D02*
X154595238Y-21165771D01*
X154595238Y-21165771D02*
X154690476Y-21213390D01*
X154690476Y-21213390D02*
X154738095Y-21261009D01*
X154738095Y-21261009D02*
X154785714Y-21356247D01*
X154785714Y-21356247D02*
X154785714Y-21594342D01*
X154785714Y-21594342D02*
X154738095Y-21689580D01*
X154738095Y-21689580D02*
X154690476Y-21737200D01*
X154690476Y-21737200D02*
X154595238Y-21784819D01*
X154595238Y-21784819D02*
X154309524Y-21784819D01*
X154309524Y-21784819D02*
X154214286Y-21737200D01*
X154214286Y-21737200D02*
X154166667Y-21689580D01*
X43857142Y-23699580D02*
X43809523Y-23747200D01*
X43809523Y-23747200D02*
X43666666Y-23794819D01*
X43666666Y-23794819D02*
X43571428Y-23794819D01*
X43571428Y-23794819D02*
X43428571Y-23747200D01*
X43428571Y-23747200D02*
X43333333Y-23651961D01*
X43333333Y-23651961D02*
X43285714Y-23556723D01*
X43285714Y-23556723D02*
X43238095Y-23366247D01*
X43238095Y-23366247D02*
X43238095Y-23223390D01*
X43238095Y-23223390D02*
X43285714Y-23032914D01*
X43285714Y-23032914D02*
X43333333Y-22937676D01*
X43333333Y-22937676D02*
X43428571Y-22842438D01*
X43428571Y-22842438D02*
X43571428Y-22794819D01*
X43571428Y-22794819D02*
X43666666Y-22794819D01*
X43666666Y-22794819D02*
X43809523Y-22842438D01*
X43809523Y-22842438D02*
X43857142Y-22890057D01*
X44761904Y-22794819D02*
X44285714Y-22794819D01*
X44285714Y-22794819D02*
X44238095Y-23271009D01*
X44238095Y-23271009D02*
X44285714Y-23223390D01*
X44285714Y-23223390D02*
X44380952Y-23175771D01*
X44380952Y-23175771D02*
X44619047Y-23175771D01*
X44619047Y-23175771D02*
X44714285Y-23223390D01*
X44714285Y-23223390D02*
X44761904Y-23271009D01*
X44761904Y-23271009D02*
X44809523Y-23366247D01*
X44809523Y-23366247D02*
X44809523Y-23604342D01*
X44809523Y-23604342D02*
X44761904Y-23699580D01*
X44761904Y-23699580D02*
X44714285Y-23747200D01*
X44714285Y-23747200D02*
X44619047Y-23794819D01*
X44619047Y-23794819D02*
X44380952Y-23794819D01*
X44380952Y-23794819D02*
X44285714Y-23747200D01*
X44285714Y-23747200D02*
X44238095Y-23699580D01*
X45142857Y-22794819D02*
X45761904Y-22794819D01*
X45761904Y-22794819D02*
X45428571Y-23175771D01*
X45428571Y-23175771D02*
X45571428Y-23175771D01*
X45571428Y-23175771D02*
X45666666Y-23223390D01*
X45666666Y-23223390D02*
X45714285Y-23271009D01*
X45714285Y-23271009D02*
X45761904Y-23366247D01*
X45761904Y-23366247D02*
X45761904Y-23604342D01*
X45761904Y-23604342D02*
X45714285Y-23699580D01*
X45714285Y-23699580D02*
X45666666Y-23747200D01*
X45666666Y-23747200D02*
X45571428Y-23794819D01*
X45571428Y-23794819D02*
X45285714Y-23794819D01*
X45285714Y-23794819D02*
X45190476Y-23747200D01*
X45190476Y-23747200D02*
X45142857Y-23699580D01*
X129857142Y-49679580D02*
X129809523Y-49727200D01*
X129809523Y-49727200D02*
X129666666Y-49774819D01*
X129666666Y-49774819D02*
X129571428Y-49774819D01*
X129571428Y-49774819D02*
X129428571Y-49727200D01*
X129428571Y-49727200D02*
X129333333Y-49631961D01*
X129333333Y-49631961D02*
X129285714Y-49536723D01*
X129285714Y-49536723D02*
X129238095Y-49346247D01*
X129238095Y-49346247D02*
X129238095Y-49203390D01*
X129238095Y-49203390D02*
X129285714Y-49012914D01*
X129285714Y-49012914D02*
X129333333Y-48917676D01*
X129333333Y-48917676D02*
X129428571Y-48822438D01*
X129428571Y-48822438D02*
X129571428Y-48774819D01*
X129571428Y-48774819D02*
X129666666Y-48774819D01*
X129666666Y-48774819D02*
X129809523Y-48822438D01*
X129809523Y-48822438D02*
X129857142Y-48870057D01*
X130238095Y-48870057D02*
X130285714Y-48822438D01*
X130285714Y-48822438D02*
X130380952Y-48774819D01*
X130380952Y-48774819D02*
X130619047Y-48774819D01*
X130619047Y-48774819D02*
X130714285Y-48822438D01*
X130714285Y-48822438D02*
X130761904Y-48870057D01*
X130761904Y-48870057D02*
X130809523Y-48965295D01*
X130809523Y-48965295D02*
X130809523Y-49060533D01*
X130809523Y-49060533D02*
X130761904Y-49203390D01*
X130761904Y-49203390D02*
X130190476Y-49774819D01*
X130190476Y-49774819D02*
X130809523Y-49774819D01*
X131428571Y-48774819D02*
X131523809Y-48774819D01*
X131523809Y-48774819D02*
X131619047Y-48822438D01*
X131619047Y-48822438D02*
X131666666Y-48870057D01*
X131666666Y-48870057D02*
X131714285Y-48965295D01*
X131714285Y-48965295D02*
X131761904Y-49155771D01*
X131761904Y-49155771D02*
X131761904Y-49393866D01*
X131761904Y-49393866D02*
X131714285Y-49584342D01*
X131714285Y-49584342D02*
X131666666Y-49679580D01*
X131666666Y-49679580D02*
X131619047Y-49727200D01*
X131619047Y-49727200D02*
X131523809Y-49774819D01*
X131523809Y-49774819D02*
X131428571Y-49774819D01*
X131428571Y-49774819D02*
X131333333Y-49727200D01*
X131333333Y-49727200D02*
X131285714Y-49679580D01*
X131285714Y-49679580D02*
X131238095Y-49584342D01*
X131238095Y-49584342D02*
X131190476Y-49393866D01*
X131190476Y-49393866D02*
X131190476Y-49155771D01*
X131190476Y-49155771D02*
X131238095Y-48965295D01*
X131238095Y-48965295D02*
X131285714Y-48870057D01*
X131285714Y-48870057D02*
X131333333Y-48822438D01*
X131333333Y-48822438D02*
X131428571Y-48774819D01*
X95357142Y-73929580D02*
X95309523Y-73977200D01*
X95309523Y-73977200D02*
X95166666Y-74024819D01*
X95166666Y-74024819D02*
X95071428Y-74024819D01*
X95071428Y-74024819D02*
X94928571Y-73977200D01*
X94928571Y-73977200D02*
X94833333Y-73881961D01*
X94833333Y-73881961D02*
X94785714Y-73786723D01*
X94785714Y-73786723D02*
X94738095Y-73596247D01*
X94738095Y-73596247D02*
X94738095Y-73453390D01*
X94738095Y-73453390D02*
X94785714Y-73262914D01*
X94785714Y-73262914D02*
X94833333Y-73167676D01*
X94833333Y-73167676D02*
X94928571Y-73072438D01*
X94928571Y-73072438D02*
X95071428Y-73024819D01*
X95071428Y-73024819D02*
X95166666Y-73024819D01*
X95166666Y-73024819D02*
X95309523Y-73072438D01*
X95309523Y-73072438D02*
X95357142Y-73120057D01*
X95690476Y-73024819D02*
X96309523Y-73024819D01*
X96309523Y-73024819D02*
X95976190Y-73405771D01*
X95976190Y-73405771D02*
X96119047Y-73405771D01*
X96119047Y-73405771D02*
X96214285Y-73453390D01*
X96214285Y-73453390D02*
X96261904Y-73501009D01*
X96261904Y-73501009D02*
X96309523Y-73596247D01*
X96309523Y-73596247D02*
X96309523Y-73834342D01*
X96309523Y-73834342D02*
X96261904Y-73929580D01*
X96261904Y-73929580D02*
X96214285Y-73977200D01*
X96214285Y-73977200D02*
X96119047Y-74024819D01*
X96119047Y-74024819D02*
X95833333Y-74024819D01*
X95833333Y-74024819D02*
X95738095Y-73977200D01*
X95738095Y-73977200D02*
X95690476Y-73929580D01*
X96690476Y-73120057D02*
X96738095Y-73072438D01*
X96738095Y-73072438D02*
X96833333Y-73024819D01*
X96833333Y-73024819D02*
X97071428Y-73024819D01*
X97071428Y-73024819D02*
X97166666Y-73072438D01*
X97166666Y-73072438D02*
X97214285Y-73120057D01*
X97214285Y-73120057D02*
X97261904Y-73215295D01*
X97261904Y-73215295D02*
X97261904Y-73310533D01*
X97261904Y-73310533D02*
X97214285Y-73453390D01*
X97214285Y-73453390D02*
X96642857Y-74024819D01*
X96642857Y-74024819D02*
X97261904Y-74024819D01*
X12238095Y-9654819D02*
X12238095Y-8654819D01*
X12238095Y-9131009D02*
X12809523Y-9131009D01*
X12809523Y-9654819D02*
X12809523Y-8654819D01*
X13809523Y-9654819D02*
X13238095Y-9654819D01*
X13523809Y-9654819D02*
X13523809Y-8654819D01*
X13523809Y-8654819D02*
X13428571Y-8797676D01*
X13428571Y-8797676D02*
X13333333Y-8892914D01*
X13333333Y-8892914D02*
X13238095Y-8940533D01*
X54238095Y-10954819D02*
X54238095Y-11764342D01*
X54238095Y-11764342D02*
X54285714Y-11859580D01*
X54285714Y-11859580D02*
X54333333Y-11907200D01*
X54333333Y-11907200D02*
X54428571Y-11954819D01*
X54428571Y-11954819D02*
X54619047Y-11954819D01*
X54619047Y-11954819D02*
X54714285Y-11907200D01*
X54714285Y-11907200D02*
X54761904Y-11859580D01*
X54761904Y-11859580D02*
X54809523Y-11764342D01*
X54809523Y-11764342D02*
X54809523Y-10954819D01*
X55714285Y-10954819D02*
X55523809Y-10954819D01*
X55523809Y-10954819D02*
X55428571Y-11002438D01*
X55428571Y-11002438D02*
X55380952Y-11050057D01*
X55380952Y-11050057D02*
X55285714Y-11192914D01*
X55285714Y-11192914D02*
X55238095Y-11383390D01*
X55238095Y-11383390D02*
X55238095Y-11764342D01*
X55238095Y-11764342D02*
X55285714Y-11859580D01*
X55285714Y-11859580D02*
X55333333Y-11907200D01*
X55333333Y-11907200D02*
X55428571Y-11954819D01*
X55428571Y-11954819D02*
X55619047Y-11954819D01*
X55619047Y-11954819D02*
X55714285Y-11907200D01*
X55714285Y-11907200D02*
X55761904Y-11859580D01*
X55761904Y-11859580D02*
X55809523Y-11764342D01*
X55809523Y-11764342D02*
X55809523Y-11526247D01*
X55809523Y-11526247D02*
X55761904Y-11431009D01*
X55761904Y-11431009D02*
X55714285Y-11383390D01*
X55714285Y-11383390D02*
X55619047Y-11335771D01*
X55619047Y-11335771D02*
X55428571Y-11335771D01*
X55428571Y-11335771D02*
X55333333Y-11383390D01*
X55333333Y-11383390D02*
X55285714Y-11431009D01*
X55285714Y-11431009D02*
X55238095Y-11526247D01*
X113357142Y-51429580D02*
X113309523Y-51477200D01*
X113309523Y-51477200D02*
X113166666Y-51524819D01*
X113166666Y-51524819D02*
X113071428Y-51524819D01*
X113071428Y-51524819D02*
X112928571Y-51477200D01*
X112928571Y-51477200D02*
X112833333Y-51381961D01*
X112833333Y-51381961D02*
X112785714Y-51286723D01*
X112785714Y-51286723D02*
X112738095Y-51096247D01*
X112738095Y-51096247D02*
X112738095Y-50953390D01*
X112738095Y-50953390D02*
X112785714Y-50762914D01*
X112785714Y-50762914D02*
X112833333Y-50667676D01*
X112833333Y-50667676D02*
X112928571Y-50572438D01*
X112928571Y-50572438D02*
X113071428Y-50524819D01*
X113071428Y-50524819D02*
X113166666Y-50524819D01*
X113166666Y-50524819D02*
X113309523Y-50572438D01*
X113309523Y-50572438D02*
X113357142Y-50620057D01*
X114214285Y-50858152D02*
X114214285Y-51524819D01*
X113976190Y-50477200D02*
X113738095Y-51191485D01*
X113738095Y-51191485D02*
X114357142Y-51191485D01*
X115166666Y-50858152D02*
X115166666Y-51524819D01*
X114928571Y-50477200D02*
X114690476Y-51191485D01*
X114690476Y-51191485D02*
X115309523Y-51191485D01*
D11*
%TO.C,C19*%
X125738748Y-50265000D02*
X126261252Y-50265000D01*
X125738748Y-51735000D02*
X126261252Y-51735000D01*
%TO.C,R1*%
X104762742Y-55477500D02*
X105237258Y-55477500D01*
X104762742Y-56522500D02*
X105237258Y-56522500D01*
%TO.C,D2*%
X25515000Y-11265000D02*
X25515000Y-12735000D01*
X25515000Y-12735000D02*
X27800000Y-12735000D01*
X27800000Y-11265000D02*
X25515000Y-11265000D01*
%TO.C,J4*%
X14940000Y-26940000D02*
X16000000Y-26940000D01*
X14940000Y-28000000D02*
X14940000Y-26940000D01*
X14940000Y-29000000D02*
X14940000Y-31060000D01*
X14940000Y-29000000D02*
X17060000Y-29000000D01*
X14940000Y-31060000D02*
X17060000Y-31060000D01*
X17060000Y-29000000D02*
X17060000Y-31060000D01*
%TO.C,J19*%
X7270000Y-13380000D02*
X7270000Y-22570000D01*
X10000000Y-13380000D02*
X7270000Y-13380000D01*
X10000000Y-22570000D02*
X7270000Y-22570000D01*
X13600000Y-13380000D02*
X12700000Y-13380000D01*
X13600000Y-22570000D02*
X12700000Y-22570000D01*
X16680000Y-13500000D02*
X16680000Y-22450000D01*
%TO.C,C52*%
X130359420Y-67990000D02*
X130640580Y-67990000D01*
X130359420Y-69010000D02*
X130640580Y-69010000D01*
%TO.C,C15*%
X95859420Y-48490000D02*
X96140580Y-48490000D01*
X95859420Y-49510000D02*
X96140580Y-49510000D01*
%TO.C,R9*%
X158846359Y-73620000D02*
X159153641Y-73620000D01*
X158846359Y-74380000D02*
X159153641Y-74380000D01*
%TO.C,U2*%
X127890000Y-20415000D02*
X127890000Y-20130000D01*
X127890000Y-24110000D02*
X127890000Y-23585000D01*
X128415000Y-19890000D02*
X128190000Y-19890000D01*
X128415000Y-24110000D02*
X127890000Y-24110000D01*
X131585000Y-19890000D02*
X132110000Y-19890000D01*
X131585000Y-24110000D02*
X132110000Y-24110000D01*
X132110000Y-19890000D02*
X132110000Y-20415000D01*
X132110000Y-24110000D02*
X132110000Y-23585000D01*
X127890000Y-19890000D02*
X127650000Y-19560000D01*
X128130000Y-19560000D01*
X127890000Y-19890000D01*
G36*
X127890000Y-19890000D02*
G01*
X127650000Y-19560000D01*
X128130000Y-19560000D01*
X127890000Y-19890000D01*
G37*
%TO.C,C38*%
X135859420Y-21990000D02*
X136140580Y-21990000D01*
X135859420Y-23010000D02*
X136140580Y-23010000D01*
%TO.C,C8*%
X125738748Y-71265000D02*
X126261252Y-71265000D01*
X125738748Y-72735000D02*
X126261252Y-72735000D01*
%TO.C,R11*%
X40346359Y-15120000D02*
X40653641Y-15120000D01*
X40346359Y-15880000D02*
X40653641Y-15880000D01*
%TO.C,C23*%
X149238748Y-18265000D02*
X149761252Y-18265000D01*
X149238748Y-19735000D02*
X149761252Y-19735000D01*
%TO.C,C16*%
X100238748Y-48265000D02*
X100761252Y-48265000D01*
X100238748Y-49735000D02*
X100761252Y-49735000D01*
%TO.C,U1*%
X102890000Y-20415000D02*
X102890000Y-20130000D01*
X102890000Y-24110000D02*
X102890000Y-23585000D01*
X103415000Y-19890000D02*
X103190000Y-19890000D01*
X103415000Y-24110000D02*
X102890000Y-24110000D01*
X106585000Y-19890000D02*
X107110000Y-19890000D01*
X106585000Y-24110000D02*
X107110000Y-24110000D01*
X107110000Y-19890000D02*
X107110000Y-20415000D01*
X107110000Y-24110000D02*
X107110000Y-23585000D01*
X102890000Y-19890000D02*
X102650000Y-19560000D01*
X103130000Y-19560000D01*
X102890000Y-19890000D01*
G36*
X102890000Y-19890000D02*
G01*
X102650000Y-19560000D01*
X103130000Y-19560000D01*
X102890000Y-19890000D01*
G37*
%TO.C,R13*%
X139346359Y-54120000D02*
X139653641Y-54120000D01*
X139346359Y-54880000D02*
X139653641Y-54880000D01*
%TO.C,C50*%
X100359420Y-74490000D02*
X100640580Y-74490000D01*
X100359420Y-75510000D02*
X100640580Y-75510000D01*
%TO.C,C26*%
X60892164Y-12640000D02*
X61107836Y-12640000D01*
X60892164Y-13360000D02*
X61107836Y-13360000D01*
%TO.C,J13*%
X163670000Y-72670000D02*
X165000000Y-72670000D01*
X163670000Y-74000000D02*
X163670000Y-72670000D01*
X163670000Y-75270000D02*
X163670000Y-80410000D01*
X163670000Y-75270000D02*
X166330000Y-75270000D01*
X163670000Y-80410000D02*
X166330000Y-80410000D01*
X166330000Y-75270000D02*
X166330000Y-80410000D01*
%TO.C,C27*%
X100238748Y-51765000D02*
X100761252Y-51765000D01*
X100238748Y-53235000D02*
X100761252Y-53235000D01*
%TO.C,C28*%
X110859420Y-21990000D02*
X111140580Y-21990000D01*
X110859420Y-23010000D02*
X111140580Y-23010000D01*
%TO.C,R18*%
X155346359Y-26120000D02*
X155653641Y-26120000D01*
X155346359Y-26880000D02*
X155653641Y-26880000D01*
%TO.C,J15*%
X33670000Y-52670000D02*
X35000000Y-52670000D01*
X33670000Y-54000000D02*
X33670000Y-52670000D01*
X33670000Y-55270000D02*
X33670000Y-73110000D01*
X33670000Y-55270000D02*
X36330000Y-55270000D01*
X33670000Y-73110000D02*
X36330000Y-73110000D01*
X36330000Y-55270000D02*
X36330000Y-73110000D01*
%TO.C,U5*%
X87890000Y-50415000D02*
X87890000Y-50130000D01*
X87890000Y-54110000D02*
X87890000Y-53585000D01*
X88415000Y-49890000D02*
X88190000Y-49890000D01*
X88415000Y-54110000D02*
X87890000Y-54110000D01*
X91585000Y-49890000D02*
X92110000Y-49890000D01*
X91585000Y-54110000D02*
X92110000Y-54110000D01*
X92110000Y-49890000D02*
X92110000Y-50415000D01*
X92110000Y-54110000D02*
X92110000Y-53585000D01*
X87890000Y-49890000D02*
X87650000Y-49560000D01*
X88130000Y-49560000D01*
X87890000Y-49890000D01*
G36*
X87890000Y-49890000D02*
G01*
X87650000Y-49560000D01*
X88130000Y-49560000D01*
X87890000Y-49890000D01*
G37*
%TO.C,C37*%
X119892164Y-22140000D02*
X120107836Y-22140000D01*
X119892164Y-22860000D02*
X120107836Y-22860000D01*
%TO.C,C11*%
X119738748Y-18265000D02*
X120261252Y-18265000D01*
X119738748Y-19735000D02*
X120261252Y-19735000D01*
%TO.C,C29*%
X153892164Y-18640000D02*
X154107836Y-18640000D01*
X153892164Y-19360000D02*
X154107836Y-19360000D01*
%TO.C,R21*%
X150846359Y-26120000D02*
X151153641Y-26120000D01*
X150846359Y-26880000D02*
X151153641Y-26880000D01*
%TO.C,C2*%
X144738748Y-18265000D02*
X145261252Y-18265000D01*
X144738748Y-19735000D02*
X145261252Y-19735000D01*
%TO.C,C41*%
X40392164Y-11640000D02*
X40607836Y-11640000D01*
X40392164Y-12360000D02*
X40607836Y-12360000D01*
%TO.C,C24*%
X113892164Y-48640000D02*
X114107836Y-48640000D01*
X113892164Y-49360000D02*
X114107836Y-49360000D01*
%TO.C,FB1*%
X83772936Y-41265000D02*
X84227064Y-41265000D01*
X83772936Y-42735000D02*
X84227064Y-42735000D01*
%TO.C,C31*%
X95892164Y-64140000D02*
X96107836Y-64140000D01*
X95892164Y-64860000D02*
X96107836Y-64860000D01*
%TO.C,R20*%
X95846359Y-78120000D02*
X96153641Y-78120000D01*
X95846359Y-78880000D02*
X96153641Y-78880000D01*
%TO.C,C1*%
X110738748Y-18265000D02*
X111261252Y-18265000D01*
X110738748Y-19735000D02*
X111261252Y-19735000D01*
%TO.C,C45*%
X60892164Y-16140000D02*
X61107836Y-16140000D01*
X60892164Y-16860000D02*
X61107836Y-16860000D01*
%TO.C,U9*%
X90000000Y-63440000D02*
X88050000Y-63440000D01*
X90000000Y-63440000D02*
X91950000Y-63440000D01*
X90000000Y-68560000D02*
X88050000Y-68560000D01*
X90000000Y-68560000D02*
X91950000Y-68560000D01*
X87300000Y-63535000D02*
X87060000Y-63205000D01*
X87540000Y-63205000D01*
X87300000Y-63535000D01*
G36*
X87300000Y-63535000D02*
G01*
X87060000Y-63205000D01*
X87540000Y-63205000D01*
X87300000Y-63535000D01*
G37*
%TO.C,C48*%
X95859420Y-55490000D02*
X96140580Y-55490000D01*
X95859420Y-56510000D02*
X96140580Y-56510000D01*
%TO.C,R14*%
X159846359Y-22620000D02*
X160153641Y-22620000D01*
X159846359Y-23380000D02*
X160153641Y-23380000D01*
%TO.C,C5*%
X65238748Y-15765000D02*
X65761252Y-15765000D01*
X65238748Y-17235000D02*
X65761252Y-17235000D01*
%TO.C,J3*%
X164670000Y-22130000D02*
X177490000Y-22130000D01*
X164670000Y-24730000D02*
X164670000Y-22130000D01*
X164670000Y-27330000D02*
X164670000Y-26000000D01*
X166000000Y-27330000D02*
X164670000Y-27330000D01*
X167270000Y-24730000D02*
X164670000Y-24730000D01*
X167270000Y-27330000D02*
X167270000Y-24730000D01*
X167270000Y-27330000D02*
X177490000Y-27330000D01*
X177490000Y-27330000D02*
X177490000Y-22130000D01*
%TO.C,C25*%
X95738748Y-51765000D02*
X96261252Y-51765000D01*
X95738748Y-53235000D02*
X96261252Y-53235000D01*
%TO.C,R7*%
X104846359Y-78120000D02*
X105153641Y-78120000D01*
X104846359Y-78880000D02*
X105153641Y-78880000D01*
%TO.C,C35*%
X39892164Y-24140000D02*
X40107836Y-24140000D01*
X39892164Y-24860000D02*
X40107836Y-24860000D01*
%TO.C,R22*%
X77846359Y-73620000D02*
X78153641Y-73620000D01*
X77846359Y-74380000D02*
X78153641Y-74380000D01*
%TO.C,C30*%
X104859420Y-51990000D02*
X105140580Y-51990000D01*
X104859420Y-53010000D02*
X105140580Y-53010000D01*
%TO.C,C7*%
X39892164Y-27640000D02*
X40107836Y-27640000D01*
X39892164Y-28360000D02*
X40107836Y-28360000D01*
%TO.C,C10*%
X115238748Y-18265000D02*
X115761252Y-18265000D01*
X115238748Y-19735000D02*
X115761252Y-19735000D01*
%TO.C,R10*%
X158846359Y-81620000D02*
X159153641Y-81620000D01*
X158846359Y-82380000D02*
X159153641Y-82380000D01*
%TO.C,R24*%
X85846359Y-39620000D02*
X86153641Y-39620000D01*
X85846359Y-40380000D02*
X86153641Y-40380000D01*
%TO.C,J1*%
X37970000Y-39270000D02*
X37970000Y-87590000D01*
X37970000Y-39270000D02*
X40630000Y-39270000D01*
X37970000Y-87590000D02*
X40630000Y-87590000D01*
X39300000Y-36670000D02*
X40630000Y-36670000D01*
X40630000Y-36670000D02*
X40630000Y-38000000D01*
X40630000Y-39270000D02*
X40630000Y-87590000D01*
%TO.C,J10*%
X11670000Y-72670000D02*
X13000000Y-72670000D01*
X11670000Y-74000000D02*
X11670000Y-72670000D01*
X11670000Y-75270000D02*
X11670000Y-93110000D01*
X11670000Y-75270000D02*
X14330000Y-75270000D01*
X11670000Y-93110000D02*
X14330000Y-93110000D01*
X14330000Y-75270000D02*
X14330000Y-93110000D01*
%TO.C,C12*%
X135738748Y-18265000D02*
X136261252Y-18265000D01*
X135738748Y-19735000D02*
X136261252Y-19735000D01*
%TO.C,J11*%
X48670000Y-72670000D02*
X50000000Y-72670000D01*
X48670000Y-74000000D02*
X48670000Y-72670000D01*
X48670000Y-75270000D02*
X48670000Y-93110000D01*
X48670000Y-75270000D02*
X51330000Y-75270000D01*
X48670000Y-93110000D02*
X51330000Y-93110000D01*
X51330000Y-75270000D02*
X51330000Y-93110000D01*
%TO.C,R6*%
X100346359Y-78120000D02*
X100653641Y-78120000D01*
X100346359Y-78880000D02*
X100653641Y-78880000D01*
%TO.C,U4*%
X30000000Y-13440000D02*
X29200000Y-13440000D01*
X30000000Y-13440000D02*
X30800000Y-13440000D01*
X30000000Y-16560000D02*
X29200000Y-16560000D01*
X30000000Y-16560000D02*
X30800000Y-16560000D01*
X28700000Y-13490000D02*
X28460000Y-13160000D01*
X28940000Y-13160000D01*
X28700000Y-13490000D01*
G36*
X28700000Y-13490000D02*
G01*
X28460000Y-13160000D01*
X28940000Y-13160000D01*
X28700000Y-13490000D01*
G37*
%TO.C,C14*%
X140238748Y-18265000D02*
X140761252Y-18265000D01*
X140238748Y-19735000D02*
X140761252Y-19735000D01*
%TO.C,U8*%
X120000000Y-64940000D02*
X118050000Y-64940000D01*
X120000000Y-64940000D02*
X121950000Y-64940000D01*
X120000000Y-75060000D02*
X118050000Y-75060000D01*
X120000000Y-75060000D02*
X121950000Y-75060000D01*
X117300000Y-64995000D02*
X117060000Y-64665000D01*
X117540000Y-64665000D01*
X117300000Y-64995000D01*
G36*
X117300000Y-64995000D02*
G01*
X117060000Y-64665000D01*
X117540000Y-64665000D01*
X117300000Y-64995000D01*
G37*
%TO.C,RV2*%
X148880000Y-59479000D02*
X148880000Y-60800000D01*
X148880000Y-59479000D02*
X152817000Y-59479000D01*
X148880000Y-63250000D02*
X148880000Y-63630000D01*
X148880000Y-65371000D02*
X148880000Y-66130000D01*
X148880000Y-67870000D02*
X148880000Y-69520000D01*
X148880000Y-69520000D02*
X152817000Y-69520000D01*
X157184000Y-59479000D02*
X161120000Y-59479000D01*
X157184000Y-69520000D02*
X161120000Y-69520000D01*
X161120000Y-59479000D02*
X161120000Y-69520000D01*
%TO.C,J17*%
X33670000Y-72670000D02*
X35000000Y-72670000D01*
X33670000Y-74000000D02*
X33670000Y-72670000D01*
X33670000Y-75270000D02*
X33670000Y-93110000D01*
X33670000Y-75270000D02*
X36330000Y-75270000D01*
X33670000Y-93110000D02*
X36330000Y-93110000D01*
X36330000Y-75270000D02*
X36330000Y-93110000D01*
%TO.C,J6*%
X110670000Y-84670000D02*
X112000000Y-84670000D01*
X110670000Y-86000000D02*
X110670000Y-84670000D01*
X110670000Y-87270000D02*
X110670000Y-89870000D01*
X110670000Y-87270000D02*
X113330000Y-87270000D01*
X110670000Y-89870000D02*
X113330000Y-89870000D01*
X113330000Y-87270000D02*
X113330000Y-89870000D01*
%TO.C,J5*%
X96670000Y-84670000D02*
X98000000Y-84670000D01*
X96670000Y-86000000D02*
X96670000Y-84670000D01*
X96670000Y-87270000D02*
X96670000Y-89870000D01*
X96670000Y-87270000D02*
X99330000Y-87270000D01*
X96670000Y-89870000D02*
X99330000Y-89870000D01*
X99330000Y-87270000D02*
X99330000Y-89870000D01*
%TO.C,C18*%
X109359420Y-48490000D02*
X109640580Y-48490000D01*
X109359420Y-49510000D02*
X109640580Y-49510000D01*
%TO.C,R8*%
X32846359Y-11620000D02*
X33153641Y-11620000D01*
X32846359Y-12380000D02*
X33153641Y-12380000D01*
%TO.C,J12*%
X160000000Y-57300000D02*
X172000000Y-57300000D01*
X160000000Y-68300000D02*
X160000000Y-57300000D01*
X161500000Y-68300000D02*
X160000000Y-68300000D01*
X161500000Y-69500000D02*
X161500000Y-68300000D01*
X163000000Y-69500000D02*
X161500000Y-69500000D01*
X163000000Y-71300000D02*
X163000000Y-69500000D01*
X164000000Y-68300000D02*
X164000000Y-71300000D01*
X168000000Y-68300000D02*
X164000000Y-68300000D01*
X168000000Y-71300000D02*
X168000000Y-68300000D01*
X169000000Y-69500000D02*
X169000000Y-71300000D01*
X169000000Y-71300000D02*
X163000000Y-71300000D01*
X170500000Y-68300000D02*
X170500000Y-69500000D01*
X170500000Y-69500000D02*
X169000000Y-69500000D01*
X172000000Y-57300000D02*
X172000000Y-68300000D01*
X172000000Y-68300000D02*
X170500000Y-68300000D01*
%TO.C,C40*%
X65359420Y-12490000D02*
X65640580Y-12490000D01*
X65359420Y-13510000D02*
X65640580Y-13510000D01*
%TO.C,J8*%
X11670000Y-52670000D02*
X13000000Y-52670000D01*
X11670000Y-54000000D02*
X11670000Y-52670000D01*
X11670000Y-55270000D02*
X11670000Y-73110000D01*
X11670000Y-55270000D02*
X14330000Y-55270000D01*
X11670000Y-73110000D02*
X14330000Y-73110000D01*
X14330000Y-55270000D02*
X14330000Y-73110000D01*
%TO.C,C36*%
X35859420Y-11490000D02*
X36140580Y-11490000D01*
X35859420Y-12510000D02*
X36140580Y-12510000D01*
%TO.C,C17*%
X104738748Y-48265000D02*
X105261252Y-48265000D01*
X104738748Y-49735000D02*
X105261252Y-49735000D01*
%TO.C,C51*%
X130392164Y-54140000D02*
X130607836Y-54140000D01*
X130392164Y-54860000D02*
X130607836Y-54860000D01*
%TO.C,R15*%
X155346359Y-22620000D02*
X155653641Y-22620000D01*
X155346359Y-23380000D02*
X155653641Y-23380000D01*
%TO.C,U7*%
X120000000Y-48940000D02*
X118050000Y-48940000D01*
X120000000Y-48940000D02*
X121950000Y-48940000D01*
X120000000Y-59060000D02*
X118050000Y-59060000D01*
X120000000Y-59060000D02*
X121950000Y-59060000D01*
X117300000Y-48995000D02*
X117060000Y-48665000D01*
X117540000Y-48665000D01*
X117300000Y-48995000D01*
G36*
X117300000Y-48995000D02*
G01*
X117060000Y-48665000D01*
X117540000Y-48665000D01*
X117300000Y-48995000D01*
G37*
%TO.C,U10*%
X90000000Y-75440000D02*
X88050000Y-75440000D01*
X90000000Y-75440000D02*
X91950000Y-75440000D01*
X90000000Y-80560000D02*
X88050000Y-80560000D01*
X90000000Y-80560000D02*
X91950000Y-80560000D01*
X87300000Y-75535000D02*
X87060000Y-75205000D01*
X87540000Y-75205000D01*
X87300000Y-75535000D01*
G36*
X87300000Y-75535000D02*
G01*
X87060000Y-75205000D01*
X87540000Y-75205000D01*
X87300000Y-75535000D01*
G37*
%TO.C,C33*%
X125892164Y-54140000D02*
X126107836Y-54140000D01*
X125892164Y-54860000D02*
X126107836Y-54860000D01*
%TO.C,R12*%
X134846359Y-54120000D02*
X135153641Y-54120000D01*
X134846359Y-54880000D02*
X135153641Y-54880000D01*
%TO.C,C21*%
X134892164Y-50640000D02*
X135107836Y-50640000D01*
X134892164Y-51360000D02*
X135107836Y-51360000D01*
%TO.C,J7*%
X160000000Y-42300000D02*
X172000000Y-42300000D01*
X160000000Y-53300000D02*
X160000000Y-42300000D01*
X161500000Y-53300000D02*
X160000000Y-53300000D01*
X161500000Y-54500000D02*
X161500000Y-53300000D01*
X163000000Y-54500000D02*
X161500000Y-54500000D01*
X163000000Y-56300000D02*
X163000000Y-54500000D01*
X164000000Y-53300000D02*
X164000000Y-56300000D01*
X168000000Y-53300000D02*
X164000000Y-53300000D01*
X168000000Y-56300000D02*
X168000000Y-53300000D01*
X169000000Y-54500000D02*
X169000000Y-56300000D01*
X169000000Y-56300000D02*
X163000000Y-56300000D01*
X170500000Y-53300000D02*
X170500000Y-54500000D01*
X170500000Y-54500000D02*
X169000000Y-54500000D01*
X172000000Y-42300000D02*
X172000000Y-53300000D01*
X172000000Y-53300000D02*
X170500000Y-53300000D01*
%TO.C,D1*%
X42000000Y-13440000D02*
X41350000Y-13440000D01*
X42000000Y-13440000D02*
X42650000Y-13440000D01*
X42000000Y-16560000D02*
X41350000Y-16560000D01*
X42000000Y-16560000D02*
X42650000Y-16560000D01*
X40837500Y-13490000D02*
X40597500Y-13160000D01*
X41077500Y-13160000D01*
X40837500Y-13490000D01*
G36*
X40837500Y-13490000D02*
G01*
X40597500Y-13160000D01*
X41077500Y-13160000D01*
X40837500Y-13490000D01*
G37*
%TO.C,C34*%
X125859420Y-67990000D02*
X126140580Y-67990000D01*
X125859420Y-69010000D02*
X126140580Y-69010000D01*
%TO.C,C4*%
X140238748Y-21765000D02*
X140761252Y-21765000D01*
X140238748Y-23235000D02*
X140761252Y-23235000D01*
%TO.C,C49*%
X100392164Y-64140000D02*
X100607836Y-64140000D01*
X100392164Y-64860000D02*
X100607836Y-64860000D01*
%TO.C,C13*%
X124238748Y-18265000D02*
X124761252Y-18265000D01*
X124238748Y-19735000D02*
X124761252Y-19735000D01*
%TO.C,RV1*%
X148880000Y-45479000D02*
X148880000Y-46800000D01*
X148880000Y-45479000D02*
X152817000Y-45479000D01*
X148880000Y-49250000D02*
X148880000Y-49630000D01*
X148880000Y-51371000D02*
X148880000Y-52130000D01*
X148880000Y-53870000D02*
X148880000Y-55520000D01*
X148880000Y-55520000D02*
X152817000Y-55520000D01*
X157184000Y-45479000D02*
X161120000Y-45479000D01*
X157184000Y-55520000D02*
X161120000Y-55520000D01*
X161120000Y-45479000D02*
X161120000Y-55520000D01*
%TO.C,R23*%
X35846359Y-18620000D02*
X36153641Y-18620000D01*
X35846359Y-19380000D02*
X36153641Y-19380000D01*
%TO.C,C46*%
X110859420Y-25490000D02*
X111140580Y-25490000D01*
X110859420Y-26510000D02*
X111140580Y-26510000D01*
%TO.C,J16*%
X70670000Y-52670000D02*
X72000000Y-52670000D01*
X70670000Y-54000000D02*
X70670000Y-52670000D01*
X70670000Y-55270000D02*
X70670000Y-73110000D01*
X70670000Y-55270000D02*
X73330000Y-55270000D01*
X70670000Y-73110000D02*
X73330000Y-73110000D01*
X73330000Y-55270000D02*
X73330000Y-73110000D01*
%TO.C,J9*%
X48670000Y-52670000D02*
X50000000Y-52670000D01*
X48670000Y-54000000D02*
X48670000Y-52670000D01*
X48670000Y-55270000D02*
X48670000Y-73110000D01*
X48670000Y-55270000D02*
X51330000Y-55270000D01*
X48670000Y-73110000D02*
X51330000Y-73110000D01*
X51330000Y-55270000D02*
X51330000Y-73110000D01*
%TO.C,U3*%
X34000000Y-24440000D02*
X33200000Y-24440000D01*
X34000000Y-24440000D02*
X34800000Y-24440000D01*
X34000000Y-27560000D02*
X33200000Y-27560000D01*
X34000000Y-27560000D02*
X34800000Y-27560000D01*
X32700000Y-24490000D02*
X32460000Y-24160000D01*
X32940000Y-24160000D01*
X32700000Y-24490000D01*
G36*
X32700000Y-24490000D02*
G01*
X32460000Y-24160000D01*
X32940000Y-24160000D01*
X32700000Y-24490000D01*
G37*
%TO.C,R4*%
X21846359Y-13120000D02*
X22153641Y-13120000D01*
X21846359Y-13880000D02*
X22153641Y-13880000D01*
%TO.C,R2*%
X109262742Y-55477500D02*
X109737258Y-55477500D01*
X109262742Y-56522500D02*
X109737258Y-56522500D01*
%TO.C,C6*%
X35892164Y-15140000D02*
X36107836Y-15140000D01*
X35892164Y-15860000D02*
X36107836Y-15860000D01*
%TO.C,J18*%
X70670000Y-72670000D02*
X72000000Y-72670000D01*
X70670000Y-74000000D02*
X70670000Y-72670000D01*
X70670000Y-75270000D02*
X70670000Y-93110000D01*
X70670000Y-75270000D02*
X73330000Y-75270000D01*
X70670000Y-93110000D02*
X73330000Y-93110000D01*
X73330000Y-75270000D02*
X73330000Y-93110000D01*
%TO.C,R5*%
X26346359Y-13120000D02*
X26653641Y-13120000D01*
X26346359Y-13880000D02*
X26653641Y-13880000D01*
%TO.C,J2*%
X63370000Y-39270000D02*
X63370000Y-87590000D01*
X63370000Y-39270000D02*
X66030000Y-39270000D01*
X63370000Y-87590000D02*
X66030000Y-87590000D01*
X64700000Y-36670000D02*
X66030000Y-36670000D01*
X66030000Y-36670000D02*
X66030000Y-38000000D01*
X66030000Y-39270000D02*
X66030000Y-87590000D01*
%TO.C,C43*%
X144892164Y-22140000D02*
X145107836Y-22140000D01*
X144892164Y-22860000D02*
X145107836Y-22860000D01*
%TO.C,R17*%
X159846359Y-26120000D02*
X160153641Y-26120000D01*
X159846359Y-26880000D02*
X160153641Y-26880000D01*
%TO.C,R19*%
X104846359Y-74620000D02*
X105153641Y-74620000D01*
X104846359Y-75380000D02*
X105153641Y-75380000D01*
%TO.C,R16*%
X150846359Y-22620000D02*
X151153641Y-22620000D01*
X150846359Y-23380000D02*
X151153641Y-23380000D01*
%TO.C,C42*%
X124359420Y-21990000D02*
X124640580Y-21990000D01*
X124359420Y-23010000D02*
X124640580Y-23010000D01*
%TO.C,C39*%
X109392164Y-52140000D02*
X109607836Y-52140000D01*
X109392164Y-52860000D02*
X109607836Y-52860000D01*
%TO.C,C47*%
X149392164Y-22140000D02*
X149607836Y-22140000D01*
X149392164Y-22860000D02*
X149607836Y-22860000D01*
%TO.C,C9*%
X100238748Y-55265000D02*
X100761252Y-55265000D01*
X100238748Y-56735000D02*
X100761252Y-56735000D01*
%TO.C,J14*%
X163670000Y-80670000D02*
X165000000Y-80670000D01*
X163670000Y-82000000D02*
X163670000Y-80670000D01*
X163670000Y-83270000D02*
X163670000Y-88410000D01*
X163670000Y-83270000D02*
X166330000Y-83270000D01*
X163670000Y-88410000D02*
X166330000Y-88410000D01*
X166330000Y-83270000D02*
X166330000Y-88410000D01*
%TO.C,C3*%
X115238748Y-21765000D02*
X115761252Y-21765000D01*
X115238748Y-23235000D02*
X115761252Y-23235000D01*
%TO.C,C22*%
X139392164Y-50640000D02*
X139607836Y-50640000D01*
X139392164Y-51360000D02*
X139607836Y-51360000D01*
%TO.C,R3*%
X153846359Y-22120000D02*
X154153641Y-22120000D01*
X153846359Y-22880000D02*
X154153641Y-22880000D01*
%TO.C,C53*%
X44392164Y-24140000D02*
X44607836Y-24140000D01*
X44392164Y-24860000D02*
X44607836Y-24860000D01*
%TO.C,C20*%
X130238748Y-50265000D02*
X130761252Y-50265000D01*
X130238748Y-51735000D02*
X130761252Y-51735000D01*
%TO.C,C32*%
X95859420Y-74490000D02*
X96140580Y-74490000D01*
X95859420Y-75510000D02*
X96140580Y-75510000D01*
%TO.C,U6*%
X53150000Y-12590000D02*
X56910000Y-12590000D01*
X53150000Y-19410000D02*
X56910000Y-19410000D01*
X56910000Y-12590000D02*
X56910000Y-13850000D01*
X56910000Y-19410000D02*
X56910000Y-18150000D01*
X51870000Y-12690000D02*
X51630000Y-12360000D01*
X52110000Y-12360000D01*
X51870000Y-12690000D01*
G36*
X51870000Y-12690000D02*
G01*
X51630000Y-12360000D01*
X52110000Y-12360000D01*
X51870000Y-12690000D01*
G37*
%TO.C,C44*%
X113859420Y-51990000D02*
X114140580Y-51990000D01*
X113859420Y-53010000D02*
X114140580Y-53010000D01*
%TD*%
M02*
