%TF.GenerationSoftware,KiCad,Pcbnew,9.0.7-9.0.7~ubuntu24.04.1*%
%TF.CreationDate,2026-03-17T15:56:11+00:00*%
%TF.ProjectId,layout,6c61796f-7574-42e6-9b69-6361645f7063,rev?*%
%TF.SameCoordinates,Original*%
%TF.FileFunction,Paste,Top*%
%TF.FilePolarity,Positive*%
%FSLAX46Y46*%
G04 Gerber Fmt 4.6, Leading zero omitted, Abs format (unit mm)*
G04 Created by KiCad (PCBNEW 9.0.7-9.0.7~ubuntu24.04.1) date 2026-03-17 15:56:11*
%MOMM*%
%LPD*%
G01*
G04 APERTURE LIST*
G04 Aperture macros list*
%AMRoundRect*
0 Rectangle with rounded corners*
0 $1 Rounding radius*
0 $2 $3 $4 $5 $6 $7 $8 $9 X,Y pos of 4 corners*
0 Add a 4 corners polygon primitive as box body*
4,1,4,$2,$3,$4,$5,$6,$7,$8,$9,$2,$3,0*
0 Add four circle primitives for the rounded corners*
1,1,$1+$1,$2,$3*
1,1,$1+$1,$4,$5*
1,1,$1+$1,$6,$7*
1,1,$1+$1,$8,$9*
0 Add four rect primitives between the rounded corners*
20,1,$1+$1,$2,$3,$4,$5,0*
20,1,$1+$1,$4,$5,$6,$7,0*
20,1,$1+$1,$6,$7,$8,$9,0*
20,1,$1+$1,$8,$9,$2,$3,0*%
G04 Aperture macros list end*
%ADD10RoundRect,0.250000X-0.250000X-0.475000X0.250000X-0.475000X0.250000X0.475000X-0.250000X0.475000X0*%
%ADD11RoundRect,0.200000X-0.200000X-0.275000X0.200000X-0.275000X0.200000X0.275000X-0.200000X0.275000X0*%
%ADD12RoundRect,0.218750X-0.218750X-0.256250X0.218750X-0.256250X0.218750X0.256250X-0.218750X0.256250X0*%
%ADD13RoundRect,0.225000X-0.225000X-0.250000X0.225000X-0.250000X0.225000X0.250000X-0.225000X0.250000X0*%
%ADD14RoundRect,0.135000X-0.135000X-0.185000X0.135000X-0.185000X0.135000X0.185000X-0.135000X0.185000X0*%
%ADD15RoundRect,0.242500X-0.242500X-0.242500X0.242500X-0.242500X0.242500X0.242500X-0.242500X0.242500X0*%
%ADD16RoundRect,0.062500X-0.350000X-0.062500X0.350000X-0.062500X0.350000X0.062500X-0.350000X0.062500X0*%
%ADD17RoundRect,0.062500X-0.062500X-0.350000X0.062500X-0.350000X0.062500X0.350000X-0.062500X0.350000X0*%
%ADD18RoundRect,0.140000X-0.140000X-0.170000X0.140000X-0.170000X0.140000X0.170000X-0.140000X0.170000X0*%
%ADD19RoundRect,0.250000X-0.262500X-0.450000X0.262500X-0.450000X0.262500X0.450000X-0.262500X0.450000X0*%
%ADD20RoundRect,0.150000X-0.825000X-0.150000X0.825000X-0.150000X0.825000X0.150000X-0.825000X0.150000X0*%
%ADD21RoundRect,0.150000X-0.512500X-0.150000X0.512500X-0.150000X0.512500X0.150000X-0.512500X0.150000X0*%
%ADD22RoundRect,0.150000X-0.587500X-0.150000X0.587500X-0.150000X0.587500X0.150000X-0.587500X0.150000X0*%
%ADD23RoundRect,0.375000X-0.625000X-0.375000X0.625000X-0.375000X0.625000X0.375000X-0.625000X0.375000X0*%
%ADD24RoundRect,0.500000X-0.500000X-1.400000X0.500000X-1.400000X0.500000X1.400000X-0.500000X1.400000X0*%
G04 APERTURE END LIST*
D10*
%TO.C,C19*%
X125050000Y-51000000D03*
X126950000Y-51000000D03*
%TD*%
D11*
%TO.C,R1*%
X104175000Y-56000000D03*
X105825000Y-56000000D03*
%TD*%
D12*
%TO.C,D2*%
X26212500Y-12000000D03*
X27787500Y-12000000D03*
%TD*%
D13*
%TO.C,C52*%
X129725000Y-68500000D03*
X131275000Y-68500000D03*
%TD*%
%TO.C,C15*%
X95225000Y-49000000D03*
X96775000Y-49000000D03*
%TD*%
D14*
%TO.C,R9*%
X158490000Y-74000000D03*
X159510000Y-74000000D03*
%TD*%
D15*
%TO.C,U2*%
X129400000Y-21400000D03*
X129400000Y-22600000D03*
X130600000Y-21400000D03*
X130600000Y-22600000D03*
D16*
X128062500Y-20800000D03*
X128062500Y-21200000D03*
X128062500Y-21600000D03*
X128062500Y-22000000D03*
X128062500Y-22400000D03*
X128062500Y-22800000D03*
X128062500Y-23200000D03*
D17*
X128800000Y-23937500D03*
X129200000Y-23937500D03*
X129600000Y-23937500D03*
X130000000Y-23937500D03*
X130400000Y-23937500D03*
X130800000Y-23937500D03*
X131200000Y-23937500D03*
D16*
X131937500Y-23200000D03*
X131937500Y-22800000D03*
X131937500Y-22400000D03*
X131937500Y-22000000D03*
X131937500Y-21600000D03*
X131937500Y-21200000D03*
X131937500Y-20800000D03*
D17*
X131200000Y-20062500D03*
X130800000Y-20062500D03*
X130400000Y-20062500D03*
X130000000Y-20062500D03*
X129600000Y-20062500D03*
X129200000Y-20062500D03*
X128800000Y-20062500D03*
%TD*%
D13*
%TO.C,C38*%
X135225000Y-22500000D03*
X136775000Y-22500000D03*
%TD*%
D10*
%TO.C,C8*%
X125050000Y-72000000D03*
X126950000Y-72000000D03*
%TD*%
D14*
%TO.C,R11*%
X39990000Y-15500000D03*
X41010000Y-15500000D03*
%TD*%
D10*
%TO.C,C23*%
X148550000Y-19000000D03*
X150450000Y-19000000D03*
%TD*%
%TO.C,C16*%
X99550000Y-49000000D03*
X101450000Y-49000000D03*
%TD*%
D15*
%TO.C,U1*%
X104400000Y-21400000D03*
X104400000Y-22600000D03*
X105600000Y-21400000D03*
X105600000Y-22600000D03*
D16*
X103062500Y-20800000D03*
X103062500Y-21200000D03*
X103062500Y-21600000D03*
X103062500Y-22000000D03*
X103062500Y-22400000D03*
X103062500Y-22800000D03*
X103062500Y-23200000D03*
D17*
X103800000Y-23937500D03*
X104200000Y-23937500D03*
X104600000Y-23937500D03*
X105000000Y-23937500D03*
X105400000Y-23937500D03*
X105800000Y-23937500D03*
X106200000Y-23937500D03*
D16*
X106937500Y-23200000D03*
X106937500Y-22800000D03*
X106937500Y-22400000D03*
X106937500Y-22000000D03*
X106937500Y-21600000D03*
X106937500Y-21200000D03*
X106937500Y-20800000D03*
D17*
X106200000Y-20062500D03*
X105800000Y-20062500D03*
X105400000Y-20062500D03*
X105000000Y-20062500D03*
X104600000Y-20062500D03*
X104200000Y-20062500D03*
X103800000Y-20062500D03*
%TD*%
D14*
%TO.C,R13*%
X138990000Y-54500000D03*
X140010000Y-54500000D03*
%TD*%
D13*
%TO.C,C50*%
X99725000Y-75000000D03*
X101275000Y-75000000D03*
%TD*%
D18*
%TO.C,C26*%
X60520000Y-13000000D03*
X61480000Y-13000000D03*
%TD*%
D10*
%TO.C,C27*%
X99550000Y-52500000D03*
X101450000Y-52500000D03*
%TD*%
D13*
%TO.C,C28*%
X110225000Y-22500000D03*
X111775000Y-22500000D03*
%TD*%
D14*
%TO.C,R18*%
X154990000Y-26500000D03*
X156010000Y-26500000D03*
%TD*%
D15*
%TO.C,U5*%
X89400000Y-51400000D03*
X89400000Y-52600000D03*
X90600000Y-51400000D03*
X90600000Y-52600000D03*
D16*
X88062500Y-50800000D03*
X88062500Y-51200000D03*
X88062500Y-51600000D03*
X88062500Y-52000000D03*
X88062500Y-52400000D03*
X88062500Y-52800000D03*
X88062500Y-53200000D03*
D17*
X88800000Y-53937500D03*
X89200000Y-53937500D03*
X89600000Y-53937500D03*
X90000000Y-53937500D03*
X90400000Y-53937500D03*
X90800000Y-53937500D03*
X91200000Y-53937500D03*
D16*
X91937500Y-53200000D03*
X91937500Y-52800000D03*
X91937500Y-52400000D03*
X91937500Y-52000000D03*
X91937500Y-51600000D03*
X91937500Y-51200000D03*
X91937500Y-50800000D03*
D17*
X91200000Y-50062500D03*
X90800000Y-50062500D03*
X90400000Y-50062500D03*
X90000000Y-50062500D03*
X89600000Y-50062500D03*
X89200000Y-50062500D03*
X88800000Y-50062500D03*
%TD*%
D18*
%TO.C,C37*%
X119520000Y-22500000D03*
X120480000Y-22500000D03*
%TD*%
D10*
%TO.C,C11*%
X119050000Y-19000000D03*
X120950000Y-19000000D03*
%TD*%
D18*
%TO.C,C29*%
X153520000Y-19000000D03*
X154480000Y-19000000D03*
%TD*%
D14*
%TO.C,R21*%
X150490000Y-26500000D03*
X151510000Y-26500000D03*
%TD*%
D10*
%TO.C,C2*%
X144050000Y-19000000D03*
X145950000Y-19000000D03*
%TD*%
D18*
%TO.C,C41*%
X40020000Y-12000000D03*
X40980000Y-12000000D03*
%TD*%
%TO.C,C24*%
X113520000Y-49000000D03*
X114480000Y-49000000D03*
%TD*%
D19*
%TO.C,FB1*%
X83087500Y-42000000D03*
X84912500Y-42000000D03*
%TD*%
D18*
%TO.C,C31*%
X95520000Y-64500000D03*
X96480000Y-64500000D03*
%TD*%
D14*
%TO.C,R20*%
X95490000Y-78500000D03*
X96510000Y-78500000D03*
%TD*%
D10*
%TO.C,C1*%
X110050000Y-19000000D03*
X111950000Y-19000000D03*
%TD*%
D18*
%TO.C,C45*%
X60520000Y-16500000D03*
X61480000Y-16500000D03*
%TD*%
D20*
%TO.C,U9*%
X87525000Y-64095000D03*
X87525000Y-65365000D03*
X87525000Y-66635000D03*
X87525000Y-67905000D03*
X92475000Y-67905000D03*
X92475000Y-66635000D03*
X92475000Y-65365000D03*
X92475000Y-64095000D03*
%TD*%
D13*
%TO.C,C48*%
X95225000Y-56000000D03*
X96775000Y-56000000D03*
%TD*%
D14*
%TO.C,R14*%
X159490000Y-23000000D03*
X160510000Y-23000000D03*
%TD*%
D10*
%TO.C,C5*%
X64550000Y-16500000D03*
X66450000Y-16500000D03*
%TD*%
%TO.C,C25*%
X95050000Y-52500000D03*
X96950000Y-52500000D03*
%TD*%
D14*
%TO.C,R7*%
X104490000Y-78500000D03*
X105510000Y-78500000D03*
%TD*%
D18*
%TO.C,C35*%
X39520000Y-24500000D03*
X40480000Y-24500000D03*
%TD*%
D14*
%TO.C,R22*%
X77490000Y-74000000D03*
X78510000Y-74000000D03*
%TD*%
D13*
%TO.C,C30*%
X104225000Y-52500000D03*
X105775000Y-52500000D03*
%TD*%
D18*
%TO.C,C7*%
X39520000Y-28000000D03*
X40480000Y-28000000D03*
%TD*%
D10*
%TO.C,C10*%
X114550000Y-19000000D03*
X116450000Y-19000000D03*
%TD*%
D14*
%TO.C,R10*%
X158490000Y-82000000D03*
X159510000Y-82000000D03*
%TD*%
%TO.C,R24*%
X85490000Y-40000000D03*
X86510000Y-40000000D03*
%TD*%
D10*
%TO.C,C12*%
X135050000Y-19000000D03*
X136950000Y-19000000D03*
%TD*%
D14*
%TO.C,R6*%
X99990000Y-78500000D03*
X101010000Y-78500000D03*
%TD*%
D21*
%TO.C,U4*%
X28862500Y-14050000D03*
X28862500Y-15000000D03*
X28862500Y-15950000D03*
X31137500Y-15950000D03*
X31137500Y-14050000D03*
%TD*%
D10*
%TO.C,C14*%
X139550000Y-19000000D03*
X141450000Y-19000000D03*
%TD*%
D20*
%TO.C,U8*%
X117525000Y-65555000D03*
X117525000Y-66825000D03*
X117525000Y-68095000D03*
X117525000Y-69365000D03*
X117525000Y-70635000D03*
X117525000Y-71905000D03*
X117525000Y-73175000D03*
X117525000Y-74445000D03*
X122475000Y-74445000D03*
X122475000Y-73175000D03*
X122475000Y-71905000D03*
X122475000Y-70635000D03*
X122475000Y-69365000D03*
X122475000Y-68095000D03*
X122475000Y-66825000D03*
X122475000Y-65555000D03*
%TD*%
D13*
%TO.C,C18*%
X108725000Y-49000000D03*
X110275000Y-49000000D03*
%TD*%
D14*
%TO.C,R8*%
X32490000Y-12000000D03*
X33510000Y-12000000D03*
%TD*%
D13*
%TO.C,C40*%
X64725000Y-13000000D03*
X66275000Y-13000000D03*
%TD*%
%TO.C,C36*%
X35225000Y-12000000D03*
X36775000Y-12000000D03*
%TD*%
D10*
%TO.C,C17*%
X104050000Y-49000000D03*
X105950000Y-49000000D03*
%TD*%
D18*
%TO.C,C51*%
X130020000Y-54500000D03*
X130980000Y-54500000D03*
%TD*%
D14*
%TO.C,R15*%
X154990000Y-23000000D03*
X156010000Y-23000000D03*
%TD*%
D20*
%TO.C,U7*%
X117525000Y-49555000D03*
X117525000Y-50825000D03*
X117525000Y-52095000D03*
X117525000Y-53365000D03*
X117525000Y-54635000D03*
X117525000Y-55905000D03*
X117525000Y-57175000D03*
X117525000Y-58445000D03*
X122475000Y-58445000D03*
X122475000Y-57175000D03*
X122475000Y-55905000D03*
X122475000Y-54635000D03*
X122475000Y-53365000D03*
X122475000Y-52095000D03*
X122475000Y-50825000D03*
X122475000Y-49555000D03*
%TD*%
%TO.C,U10*%
X87525000Y-76095000D03*
X87525000Y-77365000D03*
X87525000Y-78635000D03*
X87525000Y-79905000D03*
X92475000Y-79905000D03*
X92475000Y-78635000D03*
X92475000Y-77365000D03*
X92475000Y-76095000D03*
%TD*%
D18*
%TO.C,C33*%
X125520000Y-54500000D03*
X126480000Y-54500000D03*
%TD*%
D14*
%TO.C,R12*%
X134490000Y-54500000D03*
X135510000Y-54500000D03*
%TD*%
D18*
%TO.C,C21*%
X134520000Y-51000000D03*
X135480000Y-51000000D03*
%TD*%
D22*
%TO.C,D1*%
X41062500Y-14050000D03*
X41062500Y-15950000D03*
X42937500Y-15000000D03*
%TD*%
D13*
%TO.C,C34*%
X125225000Y-68500000D03*
X126775000Y-68500000D03*
%TD*%
D10*
%TO.C,C4*%
X139550000Y-22500000D03*
X141450000Y-22500000D03*
%TD*%
D18*
%TO.C,C49*%
X100020000Y-64500000D03*
X100980000Y-64500000D03*
%TD*%
D10*
%TO.C,C13*%
X123550000Y-19000000D03*
X125450000Y-19000000D03*
%TD*%
D14*
%TO.C,R23*%
X35490000Y-19000000D03*
X36510000Y-19000000D03*
%TD*%
D13*
%TO.C,C46*%
X110225000Y-26000000D03*
X111775000Y-26000000D03*
%TD*%
D21*
%TO.C,U3*%
X32862500Y-25050000D03*
X32862500Y-26000000D03*
X32862500Y-26950000D03*
X35137500Y-26950000D03*
X35137500Y-25050000D03*
%TD*%
D14*
%TO.C,R4*%
X21490000Y-13500000D03*
X22510000Y-13500000D03*
%TD*%
D11*
%TO.C,R2*%
X108675000Y-56000000D03*
X110325000Y-56000000D03*
%TD*%
D18*
%TO.C,C6*%
X35520000Y-15500000D03*
X36480000Y-15500000D03*
%TD*%
D14*
%TO.C,R5*%
X25990000Y-13500000D03*
X27010000Y-13500000D03*
%TD*%
D18*
%TO.C,C43*%
X144520000Y-22500000D03*
X145480000Y-22500000D03*
%TD*%
D14*
%TO.C,R17*%
X159490000Y-26500000D03*
X160510000Y-26500000D03*
%TD*%
%TO.C,R19*%
X104490000Y-75000000D03*
X105510000Y-75000000D03*
%TD*%
%TO.C,R16*%
X150490000Y-23000000D03*
X151510000Y-23000000D03*
%TD*%
D13*
%TO.C,C42*%
X123725000Y-22500000D03*
X125275000Y-22500000D03*
%TD*%
D18*
%TO.C,C39*%
X109020000Y-52500000D03*
X109980000Y-52500000D03*
%TD*%
%TO.C,C47*%
X149020000Y-22500000D03*
X149980000Y-22500000D03*
%TD*%
D10*
%TO.C,C9*%
X99550000Y-56000000D03*
X101450000Y-56000000D03*
%TD*%
%TO.C,C3*%
X114550000Y-22500000D03*
X116450000Y-22500000D03*
%TD*%
D18*
%TO.C,C22*%
X139020000Y-51000000D03*
X139980000Y-51000000D03*
%TD*%
D14*
%TO.C,R3*%
X153490000Y-22500000D03*
X154510000Y-22500000D03*
%TD*%
D18*
%TO.C,C53*%
X44020000Y-24500000D03*
X44980000Y-24500000D03*
%TD*%
D10*
%TO.C,C20*%
X129550000Y-51000000D03*
X131450000Y-51000000D03*
%TD*%
D13*
%TO.C,C32*%
X95225000Y-75000000D03*
X96775000Y-75000000D03*
%TD*%
D23*
%TO.C,U6*%
X51850000Y-13700000D03*
X51850000Y-16000000D03*
D24*
X58150000Y-16000000D03*
D23*
X51850000Y-18300000D03*
%TD*%
D13*
%TO.C,C44*%
X113225000Y-52500000D03*
X114775000Y-52500000D03*
%TD*%
M02*
