M48
; DRILL file {KiCad 9.0.7-9.0.7~ubuntu24.04.1} date 2026-03-17T15:09:13+0000
; FORMAT={-:-/ absolute / metric / decimal}
; #@! TF.CreationDate,2026-03-17T15:09:13+00:00
; #@! TF.GenerationSoftware,Kicad,Pcbnew,9.0.7-9.0.7~ubuntu24.04.1
; #@! TF.FileFunction,Plated,1,4,PTH
FMAT,2
METRIC
; #@! TA.AperFunction,Plated,PTH,ComponentDrill
T1C0.400
; #@! TA.AperFunction,Plated,PTH,ComponentDrill
T2C0.600
; #@! TA.AperFunction,Plated,PTH,ComponentDrill
T3C0.800
; #@! TA.AperFunction,Plated,PTH,ComponentDrill
T4C1.000
; #@! TA.AperFunction,Plated,PTH,ComponentDrill
T5C1.800
; #@! TA.AperFunction,Plated,PTH,ComponentDrill
T6C3.200
%
G90
G05
T1
X16.65Y-16.0
X16.65Y-16.85
X16.65Y-17.7
X16.65Y-18.55
X16.65Y-19.4
X16.65Y-20.25
X16.65Y-21.1
X16.65Y-21.95
X18.0Y-16.0
X18.0Y-16.85
X18.0Y-17.7
X18.0Y-18.55
X18.0Y-19.4
X18.0Y-20.25
X18.0Y-21.1
X18.0Y-21.95
T3
X18.0Y-32.0
X18.0Y-34.0
T4
X15.0Y-90.0
X15.0Y-92.54
X15.0Y-95.08
X15.0Y-97.62
X15.0Y-100.16
X15.0Y-102.7
X15.0Y-105.24
X15.0Y-107.78
X40.4Y-90.0
X40.4Y-92.54
X40.4Y-95.08
X40.4Y-97.62
X40.4Y-100.16
X40.4Y-102.7
X40.4Y-105.24
X40.4Y-107.78
X52.3Y-44.0
X52.3Y-46.54
X52.3Y-49.08
X52.3Y-51.62
X52.3Y-54.16
X52.3Y-56.7
X52.3Y-59.24
X52.3Y-61.78
X52.3Y-64.32
X52.3Y-66.86
X52.3Y-69.4
X52.3Y-71.94
X52.3Y-74.48
X52.3Y-77.02
X52.3Y-79.56
X52.3Y-82.1
X52.3Y-84.64
X52.3Y-87.18
X52.3Y-89.72
X52.3Y-92.26
X55.0Y-90.0
X55.0Y-92.54
X55.0Y-95.08
X55.0Y-97.62
X55.0Y-100.16
X55.0Y-102.7
X55.0Y-105.24
X55.0Y-107.78
X77.7Y-44.0
X77.7Y-46.54
X77.7Y-49.08
X77.7Y-51.62
X77.7Y-54.16
X77.7Y-56.7
X77.7Y-59.24
X77.7Y-61.78
X77.7Y-64.32
X77.7Y-66.86
X77.7Y-69.4
X77.7Y-71.94
X77.7Y-74.48
X77.7Y-77.02
X77.7Y-79.56
X77.7Y-82.1
X77.7Y-84.64
X77.7Y-87.18
X77.7Y-89.72
X77.7Y-92.26
X80.4Y-90.0
X80.4Y-92.54
X80.4Y-95.08
X80.4Y-97.62
X80.4Y-100.16
X80.4Y-102.7
X80.4Y-105.24
X80.4Y-107.78
X95.0Y-90.0
X95.0Y-92.54
X95.0Y-95.08
X95.0Y-97.62
X95.0Y-100.16
X95.0Y-102.7
X95.0Y-105.24
X95.0Y-107.78
X118.0Y-105.0
X118.0Y-107.54
X120.4Y-90.0
X120.4Y-92.54
X120.4Y-95.08
X120.4Y-97.62
X120.4Y-100.16
X120.4Y-102.7
X120.4Y-105.24
X120.4Y-107.78
X135.0Y-105.0
X135.0Y-107.54
X140.0Y-90.0
X140.0Y-92.54
X140.0Y-95.08
X140.0Y-97.62
X140.0Y-100.16
X140.0Y-102.7
X140.0Y-105.24
X140.0Y-107.78
X165.4Y-90.0
X165.4Y-92.54
X165.4Y-95.08
X165.4Y-97.62
X165.4Y-100.16
X165.4Y-102.7
X165.4Y-105.24
X165.4Y-107.78
X184.0Y-58.0
X184.0Y-60.5
X184.0Y-63.0
X184.0Y-74.0
X184.0Y-76.5
X184.0Y-79.0
X200.0Y-88.0
X200.0Y-90.54
X200.0Y-93.08
X200.0Y-96.0
X200.0Y-98.54
X200.0Y-101.08
X205.0Y-27.46
X205.0Y-30.0
X207.54Y-27.46
X207.54Y-30.0
X210.08Y-27.46
X210.08Y-30.0
X212.62Y-27.46
X212.62Y-30.0
X215.16Y-27.46
X215.16Y-30.0
T6
X14.0Y-10.0
X50.0Y-106.0
X206.0Y-14.0
X206.0Y-106.0
T1
X195.0Y-54.5G85X195.0Y-55.5
G05
X195.0Y-72.5G85X195.0Y-73.5
G05
X199.5Y-60.0G85X200.5Y-60.0
G05
X199.5Y-78.0G85X200.5Y-78.0
G05
X205.0Y-55.5G85X205.0Y-54.5
G05
X205.0Y-73.5G85X205.0Y-72.5
G05
T2
X14.04Y-14.65G85X13.24Y-14.65
G05
X14.04Y-23.3G85X13.24Y-23.3
G05
X17.77Y-14.65G85X16.27Y-14.65
G05
X17.77Y-23.3G85X16.27Y-23.3
G05
T5
X190.85Y-56.1G85X191.15Y-56.1
G05
X190.85Y-64.9G85X191.15Y-64.9
G05
X190.85Y-72.1G85X191.15Y-72.1
G05
X190.85Y-80.9G85X191.15Y-80.9
G05
M30
