M48
; DRILL file {KiCad 9.0.7-9.0.7~ubuntu24.04.1} date 2026-03-17T15:56:22+0000
; FORMAT={-:-/ absolute / metric / decimal}
; #@! TF.CreationDate,2026-03-17T15:56:22+00:00
; #@! TF.GenerationSoftware,Kicad,Pcbnew,9.0.7-9.0.7~ubuntu24.04.1
; #@! TF.FileFunction,MixedPlating,1,4
FMAT,2
METRIC
; #@! TA.AperFunction,Plated,PTH,ComponentDrill
T1C0.400
; #@! TA.AperFunction,Plated,PTH,ComponentDrill
T2C0.600
; #@! TA.AperFunction,Plated,PTH,ComponentDrill
T3C0.800
; #@! TA.AperFunction,Plated,PTH,ComponentDrill
T4C1.000
; #@! TA.AperFunction,Plated,PTH,ComponentDrill
T5C1.800
; #@! TA.AperFunction,Plated,PTH,ComponentDrill
T6C3.200
; #@! TA.AperFunction,NonPlated,NPTH,ComponentDrill
T7C1.200
%
G90
G05
T1
X14.65Y-15.0
X14.65Y-15.85
X14.65Y-16.7
X14.65Y-17.55
X14.65Y-18.4
X14.65Y-19.25
X14.65Y-20.1
X14.65Y-20.95
X16.0Y-15.0
X16.0Y-15.85
X16.0Y-16.7
X16.0Y-17.55
X16.0Y-18.4
X16.0Y-19.25
X16.0Y-20.1
X16.0Y-20.95
T3
X16.0Y-28.0
X16.0Y-30.0
T4
X13.0Y-54.0
X13.0Y-56.54
X13.0Y-59.08
X13.0Y-61.62
X13.0Y-64.16
X13.0Y-66.7
X13.0Y-69.24
X13.0Y-71.78
X13.0Y-74.0
X13.0Y-76.54
X13.0Y-79.08
X13.0Y-81.62
X13.0Y-84.16
X13.0Y-86.7
X13.0Y-89.24
X13.0Y-91.78
X35.0Y-54.0
X35.0Y-56.54
X35.0Y-59.08
X35.0Y-61.62
X35.0Y-64.16
X35.0Y-66.7
X35.0Y-69.24
X35.0Y-71.78
X35.0Y-74.0
X35.0Y-76.54
X35.0Y-79.08
X35.0Y-81.62
X35.0Y-84.16
X35.0Y-86.7
X35.0Y-89.24
X35.0Y-91.78
X39.3Y-38.0
X39.3Y-40.54
X39.3Y-43.08
X39.3Y-45.62
X39.3Y-48.16
X39.3Y-50.7
X39.3Y-53.24
X39.3Y-55.78
X39.3Y-58.32
X39.3Y-60.86
X39.3Y-63.4
X39.3Y-65.94
X39.3Y-68.48
X39.3Y-71.02
X39.3Y-73.56
X39.3Y-76.1
X39.3Y-78.64
X39.3Y-81.18
X39.3Y-83.72
X39.3Y-86.26
X50.0Y-54.0
X50.0Y-56.54
X50.0Y-59.08
X50.0Y-61.62
X50.0Y-64.16
X50.0Y-66.7
X50.0Y-69.24
X50.0Y-71.78
X50.0Y-74.0
X50.0Y-76.54
X50.0Y-79.08
X50.0Y-81.62
X50.0Y-84.16
X50.0Y-86.7
X50.0Y-89.24
X50.0Y-91.78
X64.7Y-38.0
X64.7Y-40.54
X64.7Y-43.08
X64.7Y-45.62
X64.7Y-48.16
X64.7Y-50.7
X64.7Y-53.24
X64.7Y-55.78
X64.7Y-58.32
X64.7Y-60.86
X64.7Y-63.4
X64.7Y-65.94
X64.7Y-68.48
X64.7Y-71.02
X64.7Y-73.56
X64.7Y-76.1
X64.7Y-78.64
X64.7Y-81.18
X64.7Y-83.72
X64.7Y-86.26
X72.0Y-54.0
X72.0Y-56.54
X72.0Y-59.08
X72.0Y-61.62
X72.0Y-64.16
X72.0Y-66.7
X72.0Y-69.24
X72.0Y-71.78
X72.0Y-74.0
X72.0Y-76.54
X72.0Y-79.08
X72.0Y-81.62
X72.0Y-84.16
X72.0Y-86.7
X72.0Y-89.24
X72.0Y-91.78
X98.0Y-86.0
X98.0Y-88.54
X112.0Y-86.0
X112.0Y-88.54
X148.0Y-48.0
X148.0Y-50.5
X148.0Y-53.0
X148.0Y-62.0
X148.0Y-64.5
X148.0Y-67.0
X165.0Y-74.0
X165.0Y-76.54
X165.0Y-79.08
X165.0Y-82.0
X165.0Y-84.54
X165.0Y-87.08
X166.0Y-23.46
X166.0Y-26.0
X168.54Y-23.46
X168.54Y-26.0
X171.08Y-23.46
X171.08Y-26.0
X173.62Y-23.46
X173.62Y-26.0
X176.16Y-23.46
X176.16Y-26.0
T6
X13.0Y-13.0
X167.0Y-87.0
T7
X161.0Y-50.0
X161.0Y-52.5
X161.0Y-65.0
X161.0Y-67.5
X166.0Y-45.0
X166.0Y-60.0
X171.0Y-50.0
X171.0Y-52.5
X171.0Y-65.0
X171.0Y-67.5
T1
X161.0Y-44.5G85X161.0Y-45.5
G05
X161.0Y-59.5G85X161.0Y-60.5
G05
X165.5Y-50.0G85X166.5Y-50.0
G05
X165.5Y-65.0G85X166.5Y-65.0
G05
X171.0Y-45.5G85X171.0Y-44.5
G05
X171.0Y-60.5G85X171.0Y-59.5
G05
T2
X12.04Y-13.65G85X11.24Y-13.65
G05
X12.04Y-22.3G85X11.24Y-22.3
G05
X15.77Y-13.65G85X14.27Y-13.65
G05
X15.77Y-22.3G85X14.27Y-22.3
G05
T5
X154.85Y-46.1G85X155.15Y-46.1
G05
X154.85Y-54.9G85X155.15Y-54.9
G05
X154.85Y-60.1G85X155.15Y-60.1
G05
X154.85Y-68.9G85X155.15Y-68.9
G05
M30
