M48
; DRILL file {KiCad 9.0.7-9.0.7~ubuntu24.04.1} date 2026-03-17T15:12:21+0000
; FORMAT={-:-/ absolute / metric / decimal}
; #@! TF.CreationDate,2026-03-17T15:12:21+00:00
; #@! TF.GenerationSoftware,Kicad,Pcbnew,9.0.7-9.0.7~ubuntu24.04.1
; #@! TF.FileFunction,Plated,1,4,PTH
FMAT,2
METRIC
; #@! TA.AperFunction,Plated,PTH,ComponentDrill
T1C0.800
; #@! TA.AperFunction,Plated,PTH,ComponentDrill
T2C1.000
; #@! TA.AperFunction,Plated,PTH,ComponentDrill
T3C1.400
; #@! TA.AperFunction,Plated,PTH,ComponentDrill
T4C3.200
%
G90
G05
T1
X28.92Y-55.0
X31.46Y-55.0
X34.0Y-55.0
X46.92Y-55.0
X49.46Y-55.0
X52.0Y-55.0
X64.92Y-50.0
X67.46Y-50.0
X70.0Y-50.0
X82.92Y-50.0
X85.46Y-50.0
X88.0Y-50.0
X100.92Y-50.0
X103.46Y-50.0
X106.0Y-50.0
X118.92Y-50.0
X121.46Y-50.0
X124.0Y-50.0
X136.92Y-50.0
X139.46Y-50.0
X142.0Y-50.0
X154.92Y-50.0
X157.46Y-50.0
X160.0Y-50.0
T2
X25.0Y-80.0
X25.0Y-82.54
X37.0Y-80.0
X37.0Y-82.54
X49.0Y-80.0
X49.0Y-82.54
X61.0Y-80.0
X61.0Y-82.54
X73.0Y-80.0
X73.0Y-82.54
X73.0Y-85.08
X73.0Y-87.62
X73.0Y-90.16
X75.54Y-80.0
X75.54Y-82.54
X75.54Y-85.08
X75.54Y-87.62
X75.54Y-90.16
X85.0Y-80.0
X85.0Y-82.54
X121.0Y-75.0
X121.0Y-77.54
X133.0Y-75.0
X133.0Y-77.54
X145.0Y-75.0
X145.0Y-77.54
X157.0Y-75.0
X157.0Y-77.54
T3
X25.0Y-75.0
X25.0Y-91.23
X31.35Y-75.0
X31.35Y-91.23
X37.0Y-75.0
X37.0Y-91.23
X37.7Y-75.0
X37.7Y-91.23
X43.35Y-75.0
X43.35Y-91.23
X49.0Y-75.0
X49.0Y-91.23
X49.7Y-75.0
X49.7Y-91.23
X55.35Y-75.0
X55.35Y-91.23
X61.0Y-75.0
X61.0Y-91.23
X61.7Y-75.0
X61.7Y-91.23
X67.35Y-75.0
X67.35Y-91.23
X73.0Y-75.0
X73.0Y-91.23
X73.7Y-75.0
X73.7Y-91.23
X79.35Y-75.0
X79.35Y-91.23
X85.0Y-75.0
X85.0Y-91.23
X85.7Y-75.0
X85.7Y-91.23
X91.35Y-75.0
X91.35Y-91.23
X97.0Y-75.0
X97.0Y-91.23
X97.7Y-75.0
X97.7Y-91.23
X103.35Y-75.0
X103.35Y-91.23
X109.0Y-75.0
X109.0Y-91.23
X109.7Y-75.0
X109.7Y-91.23
X115.35Y-75.0
X115.35Y-91.23
X121.7Y-75.0
X121.7Y-91.23
T4
X13.0Y-13.0
X13.0Y-87.0
X167.0Y-13.0
X167.0Y-87.0
M30
