%TF.GenerationSoftware,KiCad,Pcbnew,9.0.7-9.0.7~ubuntu24.04.1*%
%TF.CreationDate,2026-03-17T15:56:12+00:00*%
%TF.ProjectId,layout,6c61796f-7574-42e6-9b69-6361645f7063,rev?*%
%TF.SameCoordinates,Original*%
%TF.FileFunction,Copper,L1,Top*%
%TF.FilePolarity,Positive*%
%FSLAX46Y46*%
G04 Gerber Fmt 4.6, Leading zero omitted, Abs format (unit mm)*
G04 Created by KiCad (PCBNEW 9.0.7-9.0.7~ubuntu24.04.1) date 2026-03-17 15:56:12*
%MOMM*%
%LPD*%
G01*
G04 APERTURE LIST*
G04 Aperture macros list*
%AMRoundRect*
0 Rectangle with rounded corners*
0 $1 Rounding radius*
0 $2 $3 $4 $5 $6 $7 $8 $9 X,Y pos of 4 corners*
0 Add a 4 corners polygon primitive as box body*
4,1,4,$2,$3,$4,$5,$6,$7,$8,$9,$2,$3,0*
0 Add four circle primitives for the rounded corners*
1,1,$1+$1,$2,$3*
1,1,$1+$1,$4,$5*
1,1,$1+$1,$6,$7*
1,1,$1+$1,$8,$9*
0 Add four rect primitives between the rounded corners*
20,1,$1+$1,$2,$3,$4,$5,0*
20,1,$1+$1,$4,$5,$6,$7,0*
20,1,$1+$1,$6,$7,$8,$9,0*
20,1,$1+$1,$8,$9,$2,$3,0*%
G04 Aperture macros list end*
%TA.AperFunction,SMDPad,CuDef*%
%ADD10RoundRect,0.140000X-0.140000X-0.170000X0.140000X-0.170000X0.140000X0.170000X-0.140000X0.170000X0*%
%TD*%
%TA.AperFunction,SMDPad,CuDef*%
%ADD11RoundRect,0.135000X-0.135000X-0.185000X0.135000X-0.185000X0.135000X0.185000X-0.135000X0.185000X0*%
%TD*%
%TA.AperFunction,ComponentPad*%
%ADD12R,1.700000X1.700000*%
%TD*%
%TA.AperFunction,ComponentPad*%
%ADD13O,1.700000X1.700000*%
%TD*%
%TA.AperFunction,SMDPad,CuDef*%
%ADD14RoundRect,0.225000X-0.225000X-0.250000X0.225000X-0.250000X0.225000X0.250000X-0.225000X0.250000X0*%
%TD*%
%TA.AperFunction,ComponentPad*%
%ADD15C,1.440000*%
%TD*%
%TA.AperFunction,SMDPad,CuDef*%
%ADD16RoundRect,0.250000X-0.250000X-0.475000X0.250000X-0.475000X0.250000X0.475000X-0.250000X0.475000X0*%
%TD*%
%TA.AperFunction,SMDPad,CuDef*%
%ADD17RoundRect,0.150000X-0.825000X-0.150000X0.825000X-0.150000X0.825000X0.150000X-0.825000X0.150000X0*%
%TD*%
%TA.AperFunction,ComponentPad*%
%ADD18C,3.600000*%
%TD*%
%TA.AperFunction,ConnectorPad*%
%ADD19C,5.600000*%
%TD*%
G04 APERTURE END LIST*
D10*
%TO.P,C10,1*%
%TO.N,FILTERED_2*%
X35520000Y-20000000D03*
%TO.P,C10,2*%
%TO.N,AAF_NODE_2*%
X36480000Y-20000000D03*
%TD*%
D11*
%TO.P,R17,1*%
%TO.N,COUPLED_1*%
X25490000Y-24000000D03*
%TO.P,R17,2*%
%TO.N,VGND*%
X26510000Y-24000000D03*
%TD*%
D12*
%TO.P,J13,1*%
%TO.N,PICKUP_5*%
X38000000Y-62000000D03*
D13*
%TO.P,J13,2*%
%TO.N,GND*%
X38000000Y-64540000D03*
%TD*%
D11*
%TO.P,R38,1*%
%TO.N,VGND*%
X102490000Y-32000000D03*
%TO.P,R38,2*%
%TO.N,FB_4*%
X103510000Y-32000000D03*
%TD*%
D14*
%TO.P,C67,1*%
%TO.N,AVDD*%
X101225000Y-48000000D03*
%TO.P,C67,2*%
%TO.N,GND*%
X102775000Y-48000000D03*
%TD*%
%TO.P,C53,1*%
%TO.N,AVDD*%
X24225000Y-44000000D03*
%TO.P,C53,2*%
%TO.N,GND*%
X25775000Y-44000000D03*
%TD*%
D10*
%TO.P,C12,1*%
%TO.N,FILTERED_4*%
X57520000Y-20000000D03*
%TO.P,C12,2*%
%TO.N,AAF_NODE_4*%
X58480000Y-20000000D03*
%TD*%
D15*
%TO.P,RV5,1*%
%TO.N,AMPLIFIED_5*%
X92000000Y-40000000D03*
%TO.P,RV5,2*%
%TO.N,FB_5*%
X89460000Y-40000000D03*
%TO.P,RV5,3*%
X86920000Y-40000000D03*
%TD*%
D11*
%TO.P,R33,1*%
%TO.N,DIRECT_AC_7*%
X47490000Y-32000000D03*
%TO.P,R33,2*%
%TO.N,DIRECT_SER_7*%
X48510000Y-32000000D03*
%TD*%
D14*
%TO.P,C59,1*%
%TO.N,AVDD*%
X90225000Y-44000000D03*
%TO.P,C59,2*%
%TO.N,GND*%
X91775000Y-44000000D03*
%TD*%
D11*
%TO.P,R11,1*%
%TO.N,AAF_NODE_3*%
X47490000Y-20000000D03*
%TO.P,R11,2*%
%TO.N,AAF_OUT_3*%
X48510000Y-20000000D03*
%TD*%
D10*
%TO.P,C44,1*%
%TO.N,AVDD*%
X90520000Y-36000000D03*
%TO.P,C44,2*%
%TO.N,GND*%
X91480000Y-36000000D03*
%TD*%
%TO.P,C27,1*%
%TO.N,PICKUP_3*%
X57520000Y-28000000D03*
%TO.P,C27,2*%
%TO.N,COUPLED_3*%
X58480000Y-28000000D03*
%TD*%
D16*
%TO.P,C17,1*%
%TO.N,BUFFERED_1*%
X24050000Y-24000000D03*
%TO.P,C17,2*%
%TO.N,DIRECT_AC_1*%
X25950000Y-24000000D03*
%TD*%
D14*
%TO.P,C49,1*%
%TO.N,AVDD*%
X57225000Y-40000000D03*
%TO.P,C49,2*%
%TO.N,GND*%
X58775000Y-40000000D03*
%TD*%
D11*
%TO.P,R5,1*%
%TO.N,AMPLIFIED_5*%
X80490000Y-36000000D03*
%TO.P,R5,2*%
%TO.N,AAF_NODE_5*%
X81510000Y-36000000D03*
%TD*%
D16*
%TO.P,C33,1*%
%TO.N,FILTERED_1*%
X46050000Y-32000000D03*
%TO.P,C33,2*%
%TO.N,SIGNAL_1*%
X47950000Y-32000000D03*
%TD*%
%TO.P,C36,1*%
%TO.N,FILTERED_4*%
X79050000Y-32000000D03*
%TO.P,C36,2*%
%TO.N,SIGNAL_4*%
X80950000Y-32000000D03*
%TD*%
D11*
%TO.P,R10,1*%
%TO.N,AAF_NODE_2*%
X36490000Y-20000000D03*
%TO.P,R10,2*%
%TO.N,AAF_OUT_2*%
X37510000Y-20000000D03*
%TD*%
D10*
%TO.P,C14,1*%
%TO.N,FILTERED_6*%
X79520000Y-20000000D03*
%TO.P,C14,2*%
%TO.N,AAF_NODE_6*%
X80480000Y-20000000D03*
%TD*%
D12*
%TO.P,J4,1*%
%TO.N,DIRECT_SER_4*%
X46000000Y-58000000D03*
D13*
%TO.P,J4,2*%
%TO.N,GND*%
X46000000Y-60540000D03*
%TD*%
D11*
%TO.P,R14,1*%
%TO.N,AAF_NODE_6*%
X80490000Y-20000000D03*
%TO.P,R14,2*%
%TO.N,AAF_OUT_6*%
X81510000Y-20000000D03*
%TD*%
D10*
%TO.P,C9,1*%
%TO.N,FILTERED_1*%
X57520000Y-52000000D03*
%TO.P,C9,2*%
%TO.N,AAF_NODE_1*%
X58480000Y-52000000D03*
%TD*%
D14*
%TO.P,C43,1*%
%TO.N,AVDD*%
X79225000Y-36000000D03*
%TO.P,C43,2*%
%TO.N,GND*%
X80775000Y-36000000D03*
%TD*%
D15*
%TO.P,RV6,1*%
%TO.N,AMPLIFIED_6*%
X103000000Y-40000000D03*
%TO.P,RV6,2*%
%TO.N,FB_6*%
X100460000Y-40000000D03*
%TO.P,RV6,3*%
X97920000Y-40000000D03*
%TD*%
%TO.P,RV1,1*%
%TO.N,AMPLIFIED_1*%
X48000000Y-40000000D03*
%TO.P,RV1,2*%
%TO.N,FB_1*%
X45460000Y-40000000D03*
%TO.P,RV1,3*%
X42920000Y-40000000D03*
%TD*%
D11*
%TO.P,R39,1*%
%TO.N,VGND*%
X25490000Y-36000000D03*
%TO.P,R39,2*%
%TO.N,FB_5*%
X26510000Y-36000000D03*
%TD*%
D17*
%TO.P,U1,1*%
%TO.N,FILTERED_1*%
X23525000Y-22095000D03*
%TO.P,U1,2*%
X23525000Y-23365000D03*
%TO.P,U1,3*%
%TO.N,AAF_OUT_1*%
X23525000Y-24635000D03*
%TO.P,U1,4*%
%TO.N,GND*%
X23525000Y-25905000D03*
%TO.P,U1,5*%
%TO.N,AAF_OUT_2*%
X28475000Y-25905000D03*
%TO.P,U1,6*%
%TO.N,FILTERED_2*%
X28475000Y-24635000D03*
%TO.P,U1,7*%
X28475000Y-23365000D03*
%TO.P,U1,8*%
%TO.N,AVDD*%
X28475000Y-22095000D03*
%TD*%
D10*
%TO.P,C62,1*%
%TO.N,AVDD*%
X46520000Y-48000000D03*
%TO.P,C62,2*%
%TO.N,GND*%
X47480000Y-48000000D03*
%TD*%
D11*
%TO.P,R41,1*%
%TO.N,VGND*%
X58490000Y-36000000D03*
%TO.P,R41,2*%
%TO.N,FB_7*%
X59510000Y-36000000D03*
%TD*%
D18*
%TO.P,H1,1*%
%TO.N,N/C*%
X13000000Y-13000000D03*
D19*
X13000000Y-13000000D03*
%TD*%
D11*
%TO.P,R9,1*%
%TO.N,AAF_NODE_1*%
X36490000Y-40000000D03*
%TO.P,R9,2*%
%TO.N,AAF_OUT_1*%
X37510000Y-40000000D03*
%TD*%
D16*
%TO.P,C22,1*%
%TO.N,BUFFERED_6*%
X90050000Y-24000000D03*
%TO.P,C22,2*%
%TO.N,DIRECT_AC_6*%
X91950000Y-24000000D03*
%TD*%
D11*
%TO.P,R23,1*%
%TO.N,COUPLED_7*%
X102490000Y-24000000D03*
%TO.P,R23,2*%
%TO.N,VGND*%
X103510000Y-24000000D03*
%TD*%
D15*
%TO.P,RV8,1*%
%TO.N,AMPLIFIED_8*%
X37000000Y-44000000D03*
%TO.P,RV8,2*%
%TO.N,FB_8*%
X34460000Y-44000000D03*
%TO.P,RV8,3*%
X31920000Y-44000000D03*
%TD*%
D17*
%TO.P,U13,1*%
%TO.N,VGND*%
X23525000Y-36095000D03*
%TO.P,U13,2*%
X23525000Y-37365000D03*
%TO.P,U13,3*%
%TO.N,VGND_MID*%
X23525000Y-38635000D03*
%TO.P,U13,4*%
%TO.N,GND*%
X23525000Y-39905000D03*
%TO.P,U13,5*%
%TO.N,_IN_P*%
X28475000Y-39905000D03*
%TO.P,U13,6*%
%TO.N,_IN_N*%
X28475000Y-38635000D03*
%TO.P,U13,7*%
%TO.N,_OUT*%
X28475000Y-37365000D03*
%TO.P,U13,8*%
%TO.N,AVDD*%
X28475000Y-36095000D03*
%TD*%
D12*
%TO.P,J18,1*%
%TO.N,AVDD*%
X78000000Y-62000000D03*
D13*
%TO.P,J18,2*%
%TO.N,GND*%
X78000000Y-64540000D03*
%TD*%
D11*
%TO.P,R7,1*%
%TO.N,AMPLIFIED_7*%
X102490000Y-36000000D03*
%TO.P,R7,2*%
%TO.N,AAF_NODE_7*%
X103510000Y-36000000D03*
%TD*%
D12*
%TO.P,J3,1*%
%TO.N,DIRECT_SER_3*%
X38000000Y-58000000D03*
D13*
%TO.P,J3,2*%
%TO.N,GND*%
X38000000Y-60540000D03*
%TD*%
D10*
%TO.P,C42,1*%
%TO.N,VGND*%
X68520000Y-36000000D03*
%TO.P,C42,2*%
%TO.N,GND*%
X69480000Y-36000000D03*
%TD*%
D11*
%TO.P,R35,1*%
%TO.N,VGND*%
X69490000Y-32000000D03*
%TO.P,R35,2*%
%TO.N,FB_1*%
X70510000Y-32000000D03*
%TD*%
D12*
%TO.P,J6,1*%
%TO.N,DIRECT_SER_6*%
X62000000Y-58000000D03*
D13*
%TO.P,J6,2*%
%TO.N,GND*%
X62000000Y-60540000D03*
%TD*%
D11*
%TO.P,R16,1*%
%TO.N,AAF_NODE_8*%
X102490000Y-20000000D03*
%TO.P,R16,2*%
%TO.N,AAF_OUT_8*%
X103510000Y-20000000D03*
%TD*%
%TO.P,R19,1*%
%TO.N,COUPLED_3*%
X47490000Y-24000000D03*
%TO.P,R19,2*%
%TO.N,VGND*%
X48510000Y-24000000D03*
%TD*%
D16*
%TO.P,C20,1*%
%TO.N,BUFFERED_4*%
X68050000Y-24000000D03*
%TO.P,C20,2*%
%TO.N,DIRECT_AC_4*%
X69950000Y-24000000D03*
%TD*%
D11*
%TO.P,R25,1*%
%TO.N,VGND_MID*%
X36490000Y-28000000D03*
%TO.P,R25,2*%
%TO.N,GND*%
X37510000Y-28000000D03*
%TD*%
D10*
%TO.P,C2,1*%
%TO.N,AAF_NODE_2*%
X57520000Y-24000000D03*
%TO.P,C2,2*%
%TO.N,GND*%
X58480000Y-24000000D03*
%TD*%
D14*
%TO.P,C47,1*%
%TO.N,AVDD*%
X35225000Y-40000000D03*
%TO.P,C47,2*%
%TO.N,GND*%
X36775000Y-40000000D03*
%TD*%
D11*
%TO.P,R34,1*%
%TO.N,DIRECT_AC_8*%
X58490000Y-32000000D03*
%TO.P,R34,2*%
%TO.N,DIRECT_SER_8*%
X59510000Y-32000000D03*
%TD*%
%TO.P,R15,1*%
%TO.N,AAF_NODE_7*%
X91490000Y-20000000D03*
%TO.P,R15,2*%
%TO.N,AAF_OUT_7*%
X92510000Y-20000000D03*
%TD*%
D10*
%TO.P,C50,1*%
%TO.N,AVDD*%
X79520000Y-40000000D03*
%TO.P,C50,2*%
%TO.N,GND*%
X80480000Y-40000000D03*
%TD*%
D17*
%TO.P,U11,1*%
%TO.N,AMPLIFIED_5*%
X67525000Y-22095000D03*
%TO.P,U11,2*%
%TO.N,FB_5*%
X67525000Y-23365000D03*
%TO.P,U11,3*%
%TO.N,BUFFERED_5*%
X67525000Y-24635000D03*
%TO.P,U11,4*%
%TO.N,GND*%
X67525000Y-25905000D03*
%TO.P,U11,5*%
%TO.N,BUFFERED_6*%
X72475000Y-25905000D03*
%TO.P,U11,6*%
%TO.N,FB_6*%
X72475000Y-24635000D03*
%TO.P,U11,7*%
%TO.N,AMPLIFIED_6*%
X72475000Y-23365000D03*
%TO.P,U11,8*%
%TO.N,AVDD*%
X72475000Y-22095000D03*
%TD*%
D11*
%TO.P,R31,1*%
%TO.N,DIRECT_AC_5*%
X25490000Y-32000000D03*
%TO.P,R31,2*%
%TO.N,DIRECT_SER_5*%
X26510000Y-32000000D03*
%TD*%
D17*
%TO.P,U9,1*%
%TO.N,AMPLIFIED_1*%
X91525000Y-22095000D03*
%TO.P,U9,2*%
%TO.N,FB_1*%
X91525000Y-23365000D03*
%TO.P,U9,3*%
%TO.N,BUFFERED_1*%
X91525000Y-24635000D03*
%TO.P,U9,4*%
%TO.N,GND*%
X91525000Y-25905000D03*
%TO.P,U9,5*%
%TO.N,BUFFERED_2*%
X96475000Y-25905000D03*
%TO.P,U9,6*%
%TO.N,FB_2*%
X96475000Y-24635000D03*
%TO.P,U9,7*%
%TO.N,AMPLIFIED_2*%
X96475000Y-23365000D03*
%TO.P,U9,8*%
%TO.N,AVDD*%
X96475000Y-22095000D03*
%TD*%
D12*
%TO.P,J8,1*%
%TO.N,DIRECT_SER_8*%
X78000000Y-58000000D03*
D13*
%TO.P,J8,2*%
%TO.N,GND*%
X78000000Y-60540000D03*
%TD*%
D17*
%TO.P,U8,1*%
%TO.N,BUFFERED_7*%
X89525000Y-50095000D03*
%TO.P,U8,2*%
X89525000Y-51365000D03*
%TO.P,U8,3*%
%TO.N,COUPLED_7*%
X89525000Y-52635000D03*
%TO.P,U8,4*%
%TO.N,GND*%
X89525000Y-53905000D03*
%TO.P,U8,5*%
%TO.N,COUPLED_8*%
X94475000Y-53905000D03*
%TO.P,U8,6*%
%TO.N,BUFFERED_8*%
X94475000Y-52635000D03*
%TO.P,U8,7*%
X94475000Y-51365000D03*
%TO.P,U8,8*%
%TO.N,AVDD*%
X94475000Y-50095000D03*
%TD*%
D12*
%TO.P,J2,1*%
%TO.N,DIRECT_SER_2*%
X30000000Y-58000000D03*
D13*
%TO.P,J2,2*%
%TO.N,GND*%
X30000000Y-60540000D03*
%TD*%
D14*
%TO.P,C57,1*%
%TO.N,AVDD*%
X68225000Y-44000000D03*
%TO.P,C57,2*%
%TO.N,GND*%
X69775000Y-44000000D03*
%TD*%
D11*
%TO.P,R21,1*%
%TO.N,COUPLED_5*%
X80490000Y-24000000D03*
%TO.P,R21,2*%
%TO.N,VGND*%
X81510000Y-24000000D03*
%TD*%
D10*
%TO.P,C28,1*%
%TO.N,PICKUP_4*%
X68520000Y-28000000D03*
%TO.P,C28,2*%
%TO.N,COUPLED_4*%
X69480000Y-28000000D03*
%TD*%
D12*
%TO.P,J1,1*%
%TO.N,DIRECT_SER_1*%
X22000000Y-58000000D03*
D13*
%TO.P,J1,2*%
%TO.N,GND*%
X22000000Y-60540000D03*
%TD*%
D12*
%TO.P,J16,1*%
%TO.N,PICKUP_8*%
X62000000Y-62000000D03*
D13*
%TO.P,J16,2*%
%TO.N,GND*%
X62000000Y-64540000D03*
%TD*%
D16*
%TO.P,C19,1*%
%TO.N,BUFFERED_3*%
X46050000Y-24000000D03*
%TO.P,C19,2*%
%TO.N,DIRECT_AC_3*%
X47950000Y-24000000D03*
%TD*%
D12*
%TO.P,J15,1*%
%TO.N,PICKUP_7*%
X54000000Y-62000000D03*
D13*
%TO.P,J15,2*%
%TO.N,GND*%
X54000000Y-64540000D03*
%TD*%
D17*
%TO.P,U10,1*%
%TO.N,AMPLIFIED_3*%
X45525000Y-22095000D03*
%TO.P,U10,2*%
%TO.N,FB_3*%
X45525000Y-23365000D03*
%TO.P,U10,3*%
%TO.N,BUFFERED_3*%
X45525000Y-24635000D03*
%TO.P,U10,4*%
%TO.N,GND*%
X45525000Y-25905000D03*
%TO.P,U10,5*%
%TO.N,BUFFERED_4*%
X50475000Y-25905000D03*
%TO.P,U10,6*%
%TO.N,FB_4*%
X50475000Y-24635000D03*
%TO.P,U10,7*%
%TO.N,AMPLIFIED_4*%
X50475000Y-23365000D03*
%TO.P,U10,8*%
%TO.N,AVDD*%
X50475000Y-22095000D03*
%TD*%
%TO.P,U7,1*%
%TO.N,BUFFERED_5*%
X67525000Y-50095000D03*
%TO.P,U7,2*%
X67525000Y-51365000D03*
%TO.P,U7,3*%
%TO.N,COUPLED_5*%
X67525000Y-52635000D03*
%TO.P,U7,4*%
%TO.N,GND*%
X67525000Y-53905000D03*
%TO.P,U7,5*%
%TO.N,COUPLED_6*%
X72475000Y-53905000D03*
%TO.P,U7,6*%
%TO.N,BUFFERED_6*%
X72475000Y-52635000D03*
%TO.P,U7,7*%
X72475000Y-51365000D03*
%TO.P,U7,8*%
%TO.N,AVDD*%
X72475000Y-50095000D03*
%TD*%
%TO.P,U12,1*%
%TO.N,AMPLIFIED_7*%
X89525000Y-22095000D03*
%TO.P,U12,2*%
%TO.N,FB_7*%
X89525000Y-23365000D03*
%TO.P,U12,3*%
%TO.N,BUFFERED_7*%
X89525000Y-24635000D03*
%TO.P,U12,4*%
%TO.N,GND*%
X89525000Y-25905000D03*
%TO.P,U12,5*%
%TO.N,BUFFERED_8*%
X94475000Y-25905000D03*
%TO.P,U12,6*%
%TO.N,FB_8*%
X94475000Y-24635000D03*
%TO.P,U12,7*%
%TO.N,AMPLIFIED_8*%
X94475000Y-23365000D03*
%TO.P,U12,8*%
%TO.N,AVDD*%
X94475000Y-22095000D03*
%TD*%
D14*
%TO.P,C61,1*%
%TO.N,AVDD*%
X35225000Y-48000000D03*
%TO.P,C61,2*%
%TO.N,GND*%
X36775000Y-48000000D03*
%TD*%
D16*
%TO.P,C41,1*%
%TO.N,VGND*%
X57050000Y-36000000D03*
%TO.P,C41,2*%
%TO.N,GND*%
X58950000Y-36000000D03*
%TD*%
D11*
%TO.P,R26,1*%
%TO.N,AVDD*%
X47490000Y-28000000D03*
%TO.P,R26,2*%
%TO.N,VGND_MID*%
X48510000Y-28000000D03*
%TD*%
%TO.P,R12,1*%
%TO.N,AAF_NODE_4*%
X58490000Y-20000000D03*
%TO.P,R12,2*%
%TO.N,AAF_OUT_4*%
X59510000Y-20000000D03*
%TD*%
D10*
%TO.P,C11,1*%
%TO.N,FILTERED_3*%
X46520000Y-20000000D03*
%TO.P,C11,2*%
%TO.N,AAF_NODE_3*%
X47480000Y-20000000D03*
%TD*%
%TO.P,C26,1*%
%TO.N,PICKUP_2*%
X46520000Y-28000000D03*
%TO.P,C26,2*%
%TO.N,COUPLED_2*%
X47480000Y-28000000D03*
%TD*%
D16*
%TO.P,C18,1*%
%TO.N,BUFFERED_2*%
X35050000Y-24000000D03*
%TO.P,C18,2*%
%TO.N,DIRECT_AC_2*%
X36950000Y-24000000D03*
%TD*%
D14*
%TO.P,C51,1*%
%TO.N,AVDD*%
X90225000Y-40000000D03*
%TO.P,C51,2*%
%TO.N,GND*%
X91775000Y-40000000D03*
%TD*%
D16*
%TO.P,C37,1*%
%TO.N,FILTERED_5*%
X90050000Y-32000000D03*
%TO.P,C37,2*%
%TO.N,SIGNAL_5*%
X91950000Y-32000000D03*
%TD*%
D10*
%TO.P,C52,1*%
%TO.N,AVDD*%
X101520000Y-40000000D03*
%TO.P,C52,2*%
%TO.N,GND*%
X102480000Y-40000000D03*
%TD*%
%TO.P,C30,1*%
%TO.N,PICKUP_6*%
X101520000Y-28000000D03*
%TO.P,C30,2*%
%TO.N,COUPLED_6*%
X102480000Y-28000000D03*
%TD*%
D11*
%TO.P,R27,1*%
%TO.N,DIRECT_AC_1*%
X58490000Y-28000000D03*
%TO.P,R27,2*%
%TO.N,DIRECT_SER_1*%
X59510000Y-28000000D03*
%TD*%
%TO.P,R22,1*%
%TO.N,COUPLED_6*%
X91490000Y-24000000D03*
%TO.P,R22,2*%
%TO.N,VGND*%
X92510000Y-24000000D03*
%TD*%
D10*
%TO.P,C31,1*%
%TO.N,PICKUP_7*%
X24520000Y-32000000D03*
%TO.P,C31,2*%
%TO.N,COUPLED_7*%
X25480000Y-32000000D03*
%TD*%
D11*
%TO.P,R18,1*%
%TO.N,COUPLED_2*%
X36490000Y-24000000D03*
%TO.P,R18,2*%
%TO.N,VGND*%
X37510000Y-24000000D03*
%TD*%
%TO.P,R20,1*%
%TO.N,COUPLED_4*%
X69490000Y-24000000D03*
%TO.P,R20,2*%
%TO.N,VGND*%
X70510000Y-24000000D03*
%TD*%
D16*
%TO.P,C39,1*%
%TO.N,FILTERED_7*%
X24050000Y-36000000D03*
%TO.P,C39,2*%
%TO.N,SIGNAL_7*%
X25950000Y-36000000D03*
%TD*%
D10*
%TO.P,C66,1*%
%TO.N,AVDD*%
X90520000Y-48000000D03*
%TO.P,C66,2*%
%TO.N,GND*%
X91480000Y-48000000D03*
%TD*%
D11*
%TO.P,R40,1*%
%TO.N,VGND*%
X47490000Y-36000000D03*
%TO.P,R40,2*%
%TO.N,FB_6*%
X48510000Y-36000000D03*
%TD*%
D17*
%TO.P,U4,1*%
%TO.N,FILTERED_7*%
X89525000Y-36095000D03*
%TO.P,U4,2*%
X89525000Y-37365000D03*
%TO.P,U4,3*%
%TO.N,AAF_OUT_7*%
X89525000Y-38635000D03*
%TO.P,U4,4*%
%TO.N,GND*%
X89525000Y-39905000D03*
%TO.P,U4,5*%
%TO.N,AAF_OUT_8*%
X94475000Y-39905000D03*
%TO.P,U4,6*%
%TO.N,FILTERED_8*%
X94475000Y-38635000D03*
%TO.P,U4,7*%
X94475000Y-37365000D03*
%TO.P,U4,8*%
%TO.N,AVDD*%
X94475000Y-36095000D03*
%TD*%
D11*
%TO.P,R28,1*%
%TO.N,DIRECT_AC_2*%
X69490000Y-28000000D03*
%TO.P,R28,2*%
%TO.N,DIRECT_SER_2*%
X70510000Y-28000000D03*
%TD*%
D12*
%TO.P,J10,1*%
%TO.N,PICKUP_2*%
X94000000Y-58000000D03*
D13*
%TO.P,J10,2*%
%TO.N,GND*%
X94000000Y-60540000D03*
%TD*%
D16*
%TO.P,C23,1*%
%TO.N,BUFFERED_7*%
X101050000Y-24000000D03*
%TO.P,C23,2*%
%TO.N,DIRECT_AC_7*%
X102950000Y-24000000D03*
%TD*%
D11*
%TO.P,R2,1*%
%TO.N,AMPLIFIED_2*%
X58490000Y-24000000D03*
%TO.P,R2,2*%
%TO.N,AAF_NODE_2*%
X59510000Y-24000000D03*
%TD*%
D10*
%TO.P,C13,1*%
%TO.N,FILTERED_5*%
X68520000Y-20000000D03*
%TO.P,C13,2*%
%TO.N,AAF_NODE_5*%
X69480000Y-20000000D03*
%TD*%
%TO.P,C56,1*%
%TO.N,AVDD*%
X57520000Y-44000000D03*
%TO.P,C56,2*%
%TO.N,GND*%
X58480000Y-44000000D03*
%TD*%
D17*
%TO.P,U5,1*%
%TO.N,BUFFERED_1*%
X23525000Y-50095000D03*
%TO.P,U5,2*%
X23525000Y-51365000D03*
%TO.P,U5,3*%
%TO.N,COUPLED_1*%
X23525000Y-52635000D03*
%TO.P,U5,4*%
%TO.N,GND*%
X23525000Y-53905000D03*
%TO.P,U5,5*%
%TO.N,COUPLED_2*%
X28475000Y-53905000D03*
%TO.P,U5,6*%
%TO.N,BUFFERED_2*%
X28475000Y-52635000D03*
%TO.P,U5,7*%
X28475000Y-51365000D03*
%TO.P,U5,8*%
%TO.N,AVDD*%
X28475000Y-50095000D03*
%TD*%
D11*
%TO.P,R1,1*%
%TO.N,AMPLIFIED_1*%
X25490000Y-20000000D03*
%TO.P,R1,2*%
%TO.N,AAF_NODE_1*%
X26510000Y-20000000D03*
%TD*%
D14*
%TO.P,C55,1*%
%TO.N,AVDD*%
X46225000Y-44000000D03*
%TO.P,C55,2*%
%TO.N,GND*%
X47775000Y-44000000D03*
%TD*%
D11*
%TO.P,R4,1*%
%TO.N,AMPLIFIED_4*%
X36490000Y-36000000D03*
%TO.P,R4,2*%
%TO.N,AAF_NODE_4*%
X37510000Y-36000000D03*
%TD*%
D10*
%TO.P,C46,1*%
%TO.N,AVDD*%
X24520000Y-40000000D03*
%TO.P,C46,2*%
%TO.N,GND*%
X25480000Y-40000000D03*
%TD*%
D12*
%TO.P,J11,1*%
%TO.N,PICKUP_3*%
X22000000Y-62000000D03*
D13*
%TO.P,J11,2*%
%TO.N,GND*%
X22000000Y-64540000D03*
%TD*%
D10*
%TO.P,C68,1*%
%TO.N,AVDD*%
X24520000Y-52000000D03*
%TO.P,C68,2*%
%TO.N,GND*%
X25480000Y-52000000D03*
%TD*%
D14*
%TO.P,C63,1*%
%TO.N,AVDD*%
X57225000Y-48000000D03*
%TO.P,C63,2*%
%TO.N,GND*%
X58775000Y-48000000D03*
%TD*%
D17*
%TO.P,U2,1*%
%TO.N,FILTERED_3*%
X45525000Y-36095000D03*
%TO.P,U2,2*%
X45525000Y-37365000D03*
%TO.P,U2,3*%
%TO.N,AAF_OUT_3*%
X45525000Y-38635000D03*
%TO.P,U2,4*%
%TO.N,GND*%
X45525000Y-39905000D03*
%TO.P,U2,5*%
%TO.N,AAF_OUT_4*%
X50475000Y-39905000D03*
%TO.P,U2,6*%
%TO.N,FILTERED_4*%
X50475000Y-38635000D03*
%TO.P,U2,7*%
X50475000Y-37365000D03*
%TO.P,U2,8*%
%TO.N,AVDD*%
X50475000Y-36095000D03*
%TD*%
D11*
%TO.P,R36,1*%
%TO.N,VGND*%
X80490000Y-32000000D03*
%TO.P,R36,2*%
%TO.N,FB_2*%
X81510000Y-32000000D03*
%TD*%
D10*
%TO.P,C3,1*%
%TO.N,AAF_NODE_3*%
X90520000Y-28000000D03*
%TO.P,C3,2*%
%TO.N,GND*%
X91480000Y-28000000D03*
%TD*%
D17*
%TO.P,U3,1*%
%TO.N,FILTERED_5*%
X67525000Y-36095000D03*
%TO.P,U3,2*%
X67525000Y-37365000D03*
%TO.P,U3,3*%
%TO.N,AAF_OUT_5*%
X67525000Y-38635000D03*
%TO.P,U3,4*%
%TO.N,GND*%
X67525000Y-39905000D03*
%TO.P,U3,5*%
%TO.N,AAF_OUT_6*%
X72475000Y-39905000D03*
%TO.P,U3,6*%
%TO.N,FILTERED_6*%
X72475000Y-38635000D03*
%TO.P,U3,7*%
X72475000Y-37365000D03*
%TO.P,U3,8*%
%TO.N,AVDD*%
X72475000Y-36095000D03*
%TD*%
D11*
%TO.P,R30,1*%
%TO.N,DIRECT_AC_4*%
X102490000Y-28000000D03*
%TO.P,R30,2*%
%TO.N,DIRECT_SER_4*%
X103510000Y-28000000D03*
%TD*%
D16*
%TO.P,C34,1*%
%TO.N,FILTERED_2*%
X57050000Y-32000000D03*
%TO.P,C34,2*%
%TO.N,SIGNAL_2*%
X58950000Y-32000000D03*
%TD*%
D12*
%TO.P,J17,1*%
%TO.N,SIGNAL_1*%
X70000000Y-62000000D03*
D13*
%TO.P,J17,2*%
%TO.N,SIGNAL_2*%
X72540000Y-62000000D03*
%TO.P,J17,3*%
%TO.N,SIGNAL_3*%
X70000000Y-64540000D03*
%TO.P,J17,4*%
%TO.N,SIGNAL_4*%
X72540000Y-64540000D03*
%TO.P,J17,5*%
%TO.N,SIGNAL_5*%
X70000000Y-67080000D03*
%TO.P,J17,6*%
%TO.N,SIGNAL_6*%
X72540000Y-67080000D03*
%TO.P,J17,7*%
%TO.N,SIGNAL_7*%
X70000000Y-69620000D03*
%TO.P,J17,8*%
%TO.N,SIGNAL_8*%
X72540000Y-69620000D03*
%TO.P,J17,9*%
%TO.N,AVDD*%
X70000000Y-72160000D03*
%TO.P,J17,10*%
%TO.N,GND*%
X72540000Y-72160000D03*
%TD*%
D16*
%TO.P,C35,1*%
%TO.N,FILTERED_3*%
X68050000Y-32000000D03*
%TO.P,C35,2*%
%TO.N,SIGNAL_3*%
X69950000Y-32000000D03*
%TD*%
D10*
%TO.P,C7,1*%
%TO.N,AAF_NODE_7*%
X35520000Y-52000000D03*
%TO.P,C7,2*%
%TO.N,GND*%
X36480000Y-52000000D03*
%TD*%
D11*
%TO.P,R6,1*%
%TO.N,AMPLIFIED_6*%
X91490000Y-36000000D03*
%TO.P,R6,2*%
%TO.N,AAF_NODE_6*%
X92510000Y-36000000D03*
%TD*%
%TO.P,R3,1*%
%TO.N,AMPLIFIED_3*%
X91490000Y-28000000D03*
%TO.P,R3,2*%
%TO.N,AAF_NODE_3*%
X92510000Y-28000000D03*
%TD*%
D10*
%TO.P,C5,1*%
%TO.N,AAF_NODE_5*%
X68520000Y-40000000D03*
%TO.P,C5,2*%
%TO.N,GND*%
X69480000Y-40000000D03*
%TD*%
%TO.P,C54,1*%
%TO.N,AVDD*%
X35520000Y-44000000D03*
%TO.P,C54,2*%
%TO.N,GND*%
X36480000Y-44000000D03*
%TD*%
%TO.P,C32,1*%
%TO.N,PICKUP_8*%
X35520000Y-32000000D03*
%TO.P,C32,2*%
%TO.N,COUPLED_8*%
X36480000Y-32000000D03*
%TD*%
D12*
%TO.P,J7,1*%
%TO.N,DIRECT_SER_7*%
X70000000Y-58000000D03*
D13*
%TO.P,J7,2*%
%TO.N,GND*%
X70000000Y-60540000D03*
%TD*%
D10*
%TO.P,C25,1*%
%TO.N,PICKUP_1*%
X35520000Y-28000000D03*
%TO.P,C25,2*%
%TO.N,COUPLED_1*%
X36480000Y-28000000D03*
%TD*%
D15*
%TO.P,RV3,1*%
%TO.N,AMPLIFIED_3*%
X70000000Y-40000000D03*
%TO.P,RV3,2*%
%TO.N,FB_3*%
X67460000Y-40000000D03*
%TO.P,RV3,3*%
X64920000Y-40000000D03*
%TD*%
D12*
%TO.P,J9,1*%
%TO.N,PICKUP_1*%
X86000000Y-58000000D03*
D13*
%TO.P,J9,2*%
%TO.N,GND*%
X86000000Y-60540000D03*
%TD*%
D10*
%TO.P,C60,1*%
%TO.N,AVDD*%
X24520000Y-48000000D03*
%TO.P,C60,2*%
%TO.N,GND*%
X25480000Y-48000000D03*
%TD*%
%TO.P,C64,1*%
%TO.N,AVDD*%
X68520000Y-48000000D03*
%TO.P,C64,2*%
%TO.N,GND*%
X69480000Y-48000000D03*
%TD*%
D11*
%TO.P,R24,1*%
%TO.N,COUPLED_8*%
X25490000Y-28000000D03*
%TO.P,R24,2*%
%TO.N,VGND*%
X26510000Y-28000000D03*
%TD*%
%TO.P,R29,1*%
%TO.N,DIRECT_AC_3*%
X80490000Y-28000000D03*
%TO.P,R29,2*%
%TO.N,DIRECT_SER_3*%
X81510000Y-28000000D03*
%TD*%
D16*
%TO.P,C24,1*%
%TO.N,BUFFERED_8*%
X24050000Y-28000000D03*
%TO.P,C24,2*%
%TO.N,DIRECT_AC_8*%
X25950000Y-28000000D03*
%TD*%
D10*
%TO.P,C1,1*%
%TO.N,AAF_NODE_1*%
X24520000Y-20000000D03*
%TO.P,C1,2*%
%TO.N,GND*%
X25480000Y-20000000D03*
%TD*%
%TO.P,C8,1*%
%TO.N,AAF_NODE_8*%
X46520000Y-52000000D03*
%TO.P,C8,2*%
%TO.N,GND*%
X47480000Y-52000000D03*
%TD*%
D14*
%TO.P,C65,1*%
%TO.N,AVDD*%
X79225000Y-48000000D03*
%TO.P,C65,2*%
%TO.N,GND*%
X80775000Y-48000000D03*
%TD*%
D10*
%TO.P,C4,1*%
%TO.N,AAF_NODE_4*%
X35520000Y-36000000D03*
%TO.P,C4,2*%
%TO.N,GND*%
X36480000Y-36000000D03*
%TD*%
D11*
%TO.P,R37,1*%
%TO.N,VGND*%
X91490000Y-32000000D03*
%TO.P,R37,2*%
%TO.N,FB_3*%
X92510000Y-32000000D03*
%TD*%
D14*
%TO.P,C45,1*%
%TO.N,AVDD*%
X101225000Y-36000000D03*
%TO.P,C45,2*%
%TO.N,GND*%
X102775000Y-36000000D03*
%TD*%
D11*
%TO.P,R32,1*%
%TO.N,DIRECT_AC_6*%
X36490000Y-32000000D03*
%TO.P,R32,2*%
%TO.N,DIRECT_SER_6*%
X37510000Y-32000000D03*
%TD*%
%TO.P,R8,1*%
%TO.N,AMPLIFIED_8*%
X25490000Y-40000000D03*
%TO.P,R8,2*%
%TO.N,AAF_NODE_8*%
X26510000Y-40000000D03*
%TD*%
D10*
%TO.P,C29,1*%
%TO.N,PICKUP_5*%
X79520000Y-28000000D03*
%TO.P,C29,2*%
%TO.N,COUPLED_5*%
X80480000Y-28000000D03*
%TD*%
D16*
%TO.P,C21,1*%
%TO.N,BUFFERED_5*%
X79050000Y-24000000D03*
%TO.P,C21,2*%
%TO.N,DIRECT_AC_5*%
X80950000Y-24000000D03*
%TD*%
D10*
%TO.P,C16,1*%
%TO.N,FILTERED_8*%
X101520000Y-20000000D03*
%TO.P,C16,2*%
%TO.N,AAF_NODE_8*%
X102480000Y-20000000D03*
%TD*%
D12*
%TO.P,J14,1*%
%TO.N,PICKUP_6*%
X46000000Y-62000000D03*
D13*
%TO.P,J14,2*%
%TO.N,GND*%
X46000000Y-64540000D03*
%TD*%
D10*
%TO.P,C48,1*%
%TO.N,AVDD*%
X46520000Y-40000000D03*
%TO.P,C48,2*%
%TO.N,GND*%
X47480000Y-40000000D03*
%TD*%
D15*
%TO.P,RV7,1*%
%TO.N,AMPLIFIED_7*%
X26000000Y-44000000D03*
%TO.P,RV7,2*%
%TO.N,FB_7*%
X23460000Y-44000000D03*
%TO.P,RV7,3*%
X20920000Y-44000000D03*
%TD*%
%TO.P,RV4,1*%
%TO.N,AMPLIFIED_4*%
X81000000Y-40000000D03*
%TO.P,RV4,2*%
%TO.N,FB_4*%
X78460000Y-40000000D03*
%TO.P,RV4,3*%
X75920000Y-40000000D03*
%TD*%
D18*
%TO.P,H2,1*%
%TO.N,N/C*%
X107000000Y-67000000D03*
D19*
X107000000Y-67000000D03*
%TD*%
D10*
%TO.P,C6,1*%
%TO.N,AAF_NODE_6*%
X101520000Y-44000000D03*
%TO.P,C6,2*%
%TO.N,GND*%
X102480000Y-44000000D03*
%TD*%
D16*
%TO.P,C40,1*%
%TO.N,FILTERED_8*%
X46050000Y-36000000D03*
%TO.P,C40,2*%
%TO.N,SIGNAL_8*%
X47950000Y-36000000D03*
%TD*%
D15*
%TO.P,RV2,1*%
%TO.N,AMPLIFIED_2*%
X59000000Y-40000000D03*
%TO.P,RV2,2*%
%TO.N,FB_2*%
X56460000Y-40000000D03*
%TO.P,RV2,3*%
X53920000Y-40000000D03*
%TD*%
D11*
%TO.P,R42,1*%
%TO.N,VGND*%
X69490000Y-36000000D03*
%TO.P,R42,2*%
%TO.N,FB_8*%
X70510000Y-36000000D03*
%TD*%
D17*
%TO.P,U6,1*%
%TO.N,BUFFERED_3*%
X45525000Y-50095000D03*
%TO.P,U6,2*%
X45525000Y-51365000D03*
%TO.P,U6,3*%
%TO.N,COUPLED_3*%
X45525000Y-52635000D03*
%TO.P,U6,4*%
%TO.N,GND*%
X45525000Y-53905000D03*
%TO.P,U6,5*%
%TO.N,COUPLED_4*%
X50475000Y-53905000D03*
%TO.P,U6,6*%
%TO.N,BUFFERED_4*%
X50475000Y-52635000D03*
%TO.P,U6,7*%
X50475000Y-51365000D03*
%TO.P,U6,8*%
%TO.N,AVDD*%
X50475000Y-50095000D03*
%TD*%
D12*
%TO.P,J5,1*%
%TO.N,DIRECT_SER_5*%
X54000000Y-58000000D03*
D13*
%TO.P,J5,2*%
%TO.N,GND*%
X54000000Y-60540000D03*
%TD*%
D12*
%TO.P,J12,1*%
%TO.N,PICKUP_4*%
X30000000Y-62000000D03*
D13*
%TO.P,J12,2*%
%TO.N,GND*%
X30000000Y-64540000D03*
%TD*%
D11*
%TO.P,R13,1*%
%TO.N,AAF_NODE_5*%
X69490000Y-20000000D03*
%TO.P,R13,2*%
%TO.N,AAF_OUT_5*%
X70510000Y-20000000D03*
%TD*%
D16*
%TO.P,C38,1*%
%TO.N,FILTERED_6*%
X101050000Y-32000000D03*
%TO.P,C38,2*%
%TO.N,SIGNAL_6*%
X102950000Y-32000000D03*
%TD*%
D10*
%TO.P,C15,1*%
%TO.N,FILTERED_7*%
X90520000Y-20000000D03*
%TO.P,C15,2*%
%TO.N,AAF_NODE_7*%
X91480000Y-20000000D03*
%TD*%
%TO.P,C58,1*%
%TO.N,AVDD*%
X79520000Y-44000000D03*
%TO.P,C58,2*%
%TO.N,GND*%
X80480000Y-44000000D03*
%TD*%
M02*
