M48
; DRILL file {KiCad 9.0.7-9.0.7~ubuntu24.04.1} date 2026-03-17T15:56:23+0000
; FORMAT={-:-/ absolute / metric / decimal}
; #@! TF.CreationDate,2026-03-17T15:56:23+00:00
; #@! TF.GenerationSoftware,Kicad,Pcbnew,9.0.7-9.0.7~ubuntu24.04.1
; #@! TF.FileFunction,MixedPlating,1,4
FMAT,2
METRIC
; #@! TA.AperFunction,Plated,PTH,ComponentDrill
T1C0.800
; #@! TA.AperFunction,Plated,PTH,ComponentDrill
T2C1.000
; #@! TA.AperFunction,Plated,PTH,ComponentDrill
T3C3.200
%
G90
G05
T1
X20.92Y-44.0
X23.46Y-44.0
X26.0Y-44.0
X31.92Y-44.0
X34.46Y-44.0
X37.0Y-44.0
X42.92Y-40.0
X45.46Y-40.0
X48.0Y-40.0
X53.92Y-40.0
X56.46Y-40.0
X59.0Y-40.0
X64.92Y-40.0
X67.46Y-40.0
X70.0Y-40.0
X75.92Y-40.0
X78.46Y-40.0
X81.0Y-40.0
X86.92Y-40.0
X89.46Y-40.0
X92.0Y-40.0
X97.92Y-40.0
X100.46Y-40.0
X103.0Y-40.0
T2
X22.0Y-58.0
X22.0Y-60.54
X22.0Y-62.0
X22.0Y-64.54
X30.0Y-58.0
X30.0Y-60.54
X30.0Y-62.0
X30.0Y-64.54
X38.0Y-58.0
X38.0Y-60.54
X38.0Y-62.0
X38.0Y-64.54
X46.0Y-58.0
X46.0Y-60.54
X46.0Y-62.0
X46.0Y-64.54
X54.0Y-58.0
X54.0Y-60.54
X54.0Y-62.0
X54.0Y-64.54
X62.0Y-58.0
X62.0Y-60.54
X62.0Y-62.0
X62.0Y-64.54
X70.0Y-58.0
X70.0Y-60.54
X70.0Y-62.0
X70.0Y-64.54
X70.0Y-67.08
X70.0Y-69.62
X70.0Y-72.16
X72.54Y-62.0
X72.54Y-64.54
X72.54Y-67.08
X72.54Y-69.62
X72.54Y-72.16
X78.0Y-58.0
X78.0Y-60.54
X78.0Y-62.0
X78.0Y-64.54
X86.0Y-58.0
X86.0Y-60.54
X94.0Y-58.0
X94.0Y-60.54
T3
X13.0Y-13.0
X107.0Y-67.0
M30
